<mxfile host="app.diagrams.net" modified="2023-09-24T12:03:35.361Z" agent="Mozilla/5.0 (Macintosh; Intel Mac OS X 10_15_7) AppleWebKit/537.36 (KHTML, like Gecko) Chrome/117.0.0.0 Safari/537.36" etag="OR50SJnGtB4cec1dQPlE" version="21.8.1" type="device">
  <diagram name="Page-1" id="4vwFs_V558irxqXLarPN">
    <mxGraphModel dx="2033" dy="1165" grid="0" gridSize="10" guides="1" tooltips="1" connect="1" arrows="1" fold="1" page="0" pageScale="1" pageWidth="1169" pageHeight="827" math="0" shadow="0">
      <root>
        <mxCell id="0" />
        <mxCell id="1" parent="0" />
        <mxCell id="96xqmQHdzvCccrLlqiye-1" value="" style="rounded=0;whiteSpace=wrap;html=1;" vertex="1" parent="1">
          <mxGeometry x="65" y="387" width="457" height="271" as="geometry" />
        </mxCell>
        <mxCell id="96xqmQHdzvCccrLlqiye-27" value="" style="group" vertex="1" connectable="0" parent="1">
          <mxGeometry x="111" y="551" width="228" height="73" as="geometry" />
        </mxCell>
        <mxCell id="96xqmQHdzvCccrLlqiye-21" value="" style="rounded=0;whiteSpace=wrap;html=1;dashed=1;glass=0;" vertex="1" parent="96xqmQHdzvCccrLlqiye-27">
          <mxGeometry x="15" y="17" width="213" height="56" as="geometry" />
        </mxCell>
        <mxCell id="96xqmQHdzvCccrLlqiye-18" value="" style="group;strokeWidth=2;strokeColor=#8465b3;" vertex="1" connectable="0" parent="96xqmQHdzvCccrLlqiye-27">
          <mxGeometry x="82" y="21" width="37" height="48" as="geometry" />
        </mxCell>
        <mxCell id="96xqmQHdzvCccrLlqiye-19" value="" style="whiteSpace=wrap;html=1;shape=mxgraph.basic.document" vertex="1" parent="96xqmQHdzvCccrLlqiye-18">
          <mxGeometry width="37" height="48" as="geometry" />
        </mxCell>
        <mxCell id="96xqmQHdzvCccrLlqiye-20" value="" style="shape=image;verticalLabelPosition=bottom;labelBackgroundColor=default;verticalAlign=top;aspect=fixed;imageAspect=0;image=data:image/png,iVBORw0KGgoAAAANSUhEUgAAAgAAAAIACAYAAAD0eNT6AAAABGdBTUEAALGPC/xhBQAAAAFzUkdCAK7OHOkAAAAgY0hSTQAAeiYAAICEAAD6AAAAgOgAAHUwAADqYAAAOpgAABdwnLpRPAAAIABJREFUeJzt3XmQnPVh52F8J7YT346vOD6T2HES59rKtber9ipX7daucqDLYFugGYFAGHOZAIUtY7CQCbcMQggJmH7f7pkRWBWXg2e4DMHgYAw2dwTCGISQ1G8fIw6rt9+WepgRAnqkmXmv56n6lv6Dme53uj/d/ZPmoIMAAAAAAAAAAAAAAAAAAAAAAAAAAAAAAAAAAAAAAAAAAAAAAAAAAAAAAAAAAAAAAAAAAAAAAAAAAAAAAAAAAAAAAAAAAAAAAAAAAAAAAAAAKJyhSv34Uim6dXCw+e+T/loAgFkyOFg/+durf7Hrqqu2N9oh8MOhoeZ/SPprAgBmWBwAX19x/655/aOt40+7q7X+ynYIBNU7Bwcbn036awMAZsjEAOhOCABAzu0rACaGwJVXba8LAQDImZcLgBeFQKn6YyEAADnQSwDsHQJBUL1LCABAhk0lALo79tQ7W+vWb4tKpR0/EQIAkEH7EwATQ+CKdVvrA0H1njgEWq3Wq5L+fgCAHhxIAMSbv2R3CKxd93QtCKIHhyvNOUIAAFLuQANACABABk1XALwoBK54ulYqRQ8JAQBIoekOgL1D4PIrtgoBAEibmQqAiVt28o/2hEB1kxAAgBSYjQDYVwgMDdUXnHJK69VJf/8AUEizGQCTQmDtU/FhwU4IlEqt1yR9OwBAoSQRAJPfEWiHwED0iBAAgFmUZABMDIE1a4UAAMyaNATAXmcEoqAUPSoEAGAGpSkAult60h2t1Wu2VOMQqFTqC4UAAEyzNAbAxBC49LIttSCoPiYEAGAapTkAJobAJWu21MIweqJcbhw2MtJ6bdK3GwBkWhYCYO8QCILqk0IAAA5AlgJg8kcDTwgBANhfWQyAiSGw6tLHIyEAAFOU5QDYRwg8NTgoBADgFeUhALo76sR2CKzeHQLDg42jNm7c9Yakb18ASKU8BcAL7wjc3gmBMKw9NVSuHS0EAGAveQyA7o48MQ6BXwgBANhbngPgpUJg5LLWryR9uwNAoooQAN0tPWF3CARBtFUIAFBoRQqA7pYcf1vrwm//vCoEACisIgZAd/3H3da6YNXmejsEtg2VG0cPDOz61aTvDwCYFUUOgPEQOP5fOiEQhrVqpVI/QQgAkHsCYO8QeEwIAJB/AmAfIXCcEAAg5wTAy4fAuRdtrgVh1AmBDRtab0z6/gKAaSEAXnl9e0Jg9zsC0UlCAIDMEwBTC4HzLtxcD4NaVC7XTt+4ceuvJ33/AcB+EQBCAIACEgAHEAJfvnU8BIKg9lUhAEBmCIDpD4FSadtbkr5fAeBlCYDp2+I4BC4SAgBkgACY/h32pVta51zwSC0Mo1ocAoOD29+a9P0MAJMIgBkOgfM3NcthrRaUhQAAKSIAZjEEyrVGuVz/phAAIHECIIEQCGvNOASuvXbH25K+/wEoKAEw+1s0MQSC+gohAMCsEwDJhsC3zts0JgQAmHUCIPktOuaW1jfPfbgZhrV6HAIDAzvenvR1AUDOCYD0LA6Bs89rh0BQa4Tl2oXDw7XfSPr6ACCnBED6tuiYHwgBAGaWAEjvxkMgjJpxCFxbqr8n6esFgJwQAOlfHAIrzn14TAgAMG0EQHY2HgLxRwNh9aJyuf7epK8fADJKAGRvXzj65taZKx8UAgDsPwGQ3X3+6JvaIfDQzjCImnEIDA013pf09QRARgiA7K8TAt966JkwjHa2t0YIAPCKBEB+tncIXHNN4/1JX18ApJQAyN8OPUoIAPAKBEB+NzkEakIAgBcIgPwv/mjg62c/8Mzuw4K1NeVy4wNJX3cAJEwAFGfjIRDWmkEQrRUCAAUmAIq3ySFQCyqVsY8mfR0CMMsEQHEXnxFYvuKBZ4UAQAEJAHshBKJOCAwPj30s6esSgBkmAKw7IQBQIALA9t4hS29onX7WveMhcE248+NJX6cATDMBYC+1Q4+6sbV8xf3PB0E0FgxE6wcGdv1q0tcrANNEANgrLQ6By9c9XR8u1/970tcrANNEAFgvW7X6ie1D5fr/Svp6BWCaCADrZQIAIGcEgPUyAQCQMwLAepkAAMgZAWC9TAAA5IwAsF4mAAByRgBYLxMAADkjAKyXCQCAnBEA1ssEAEDOCADrZQIAIGcEgPUyAQCQMwLAepkAAMgZAWC9TAAA5IwAsF4mAAByRgBYL0syACqV5n8cqkT/UCpte0sS/3+AXBIA1suSDID2Nfq5UmnHc+UwqpeD2ulCAGAaCADrZUkHwD9e+Ght0ZduaX3rvE1j5bDWLAf1Fddeu+NtSXw9ALkgAKyXpSEAul9LHALfPPfhZhjW6nEIDAzseHsSXxdApgkA62VpCoDuFh2zJwSCWiMIopVCAGAKBID1sjQGQHdxCJx9XvyOQNQMy7ULh4drv5HE1wmQKQLAelmaA6C7Rcf8QAgA9EoAWC/LQgB0Nx4CQa0Rh8C1pfp7kvi6AVJNAFgvy1IAdBeHwIpzHx4TAgD7IACsl2UxALqbFAJh9aJyuf7eJL4PgFQRANbLshwA3X3h6JtbZ658UAgAxASA9bI8BEB3nz/6pnYIPLQz/geF4hAYGmq8L4nvCyBRAsB6WZ4CoLtOCHzroWfCMNrZ3hohABSKALBelscA6G7vELjmmsb7k/g+gfw6ePGNb5vbP7rsoINar0r6axknAKyX5TkAujv0KCEATK+5/df/8dy+kYvn9o3W48cZAWCZWxECoLs4BL5+9gPPhEEU/76BNeVy4wNJfN9ANh1xxMY3zF8yOqf9pP+9vR9fBIBlbkUKgO7ijwY6IRDWmkEQrRUCwMtZcNg/v39u/8ip7Vf8W17qcUUAWOZWxADobmIItFcKw7GPJHE7AOlzyimtV89fMvKZ9qv90ry+0ede6fFEAFjmVuQA6G7yOwK1oFIZ+2gStweQvDmLvveW9uPCovYr/p9O5XFEAFjmJgBeWHxGYPmKB56Nf+mQEIBiOXjx9/+kc6ivf6SxP48fAsAyNwHw4u0dAsPDYx9L4vYBZtbLHeqb6gSAZW4C4KV36NIbhQDk0MGLb/xI+9X+Ge2f86em6/FCAFjmJgBeeYcsvaF1+ln3jofANeHOjydxewH7b9Khvv7R56f7cUIAWOYmAHrf5zohcN9zYVAd231GYOdvJ3G7Ab1buHTkrXP7R5fO6x95aCYfHwSAZW4CYOobD4GwNlYKo2uEAKTPgR7qm+oEgGVuAmD/1wmBM+99PgiiTggMDVV/J4nbEdite6hvXt/oTbP9eCAALHMTAAe+zx15oxCABC044rqPTvehvqlOAFjmJgCmb3uHwIYw+t0kblcogpk+1DfVCQDL3ATA9C8OgdPO+Fk7BKrNUhB9RwjA9Oke6mu/4n846Z/1iRMAlrkJgJnbxBAIg+i69vf76SRuZ8iD7qG+eX0jzaR/tvc1AWCZmwCY+XVDYGBghxCAKRj/l/r6R25O+uf4lSYALHMTALO3iSEQlKrfHxqq/1EStzukXftV/sfiQ31z+0a3Jv1z2+sEgGVuAmD290IIVBtxCGwo1/84idsf0iRth/qmOgFgmZsASG4Lj7zhhRAIhADFNO/wm9/d/nk4bm7/6L8l/TN5IBMAlrkJgOS34IgbWicvv2c8BAYHG3+SxP0Bsynth/qmOgFgmZsASM92h8DduzpnBILo+0NDjT9N4n6BmbJw4civzFs8uqB9vf9r0j9v0z0BYJmbAEjfFiy5vhMCVw9Um2GpdrMQIOuyeKhvqhMAlrkJgPRu7xDYUG78WRL3E+yP7qG+eX2j18zrH8n9c5EAsMxNAKR/3RDY89HADyqVxr9L4v6CXvzdkf/8G+3r9rj2NiX9szObS1sAnHjO+Y/smt9+8Ej6hrH0TgBkZ/EZgVPP+Okv2yHQKJWqI94RIE3ydqhvqktVAGzY0PxgqRTdcvXV22tfWX73L4WA7WsCIHuLQ+Afvn7Prquv7oTA9d4RICl5PtQ31aUqALoGB5t/GZSqo+1XDfXTvvGzX8YPHknfUJaeCYDsLo76E796166rrtreKA1Etw6XG3+exP1I8fz9kaMf7/z63b6Rp5P+OUjLUhkAXZVK8y8mhsBCIWD9AiAPGw+Bq7fXgzD618HB2n9K4v4k34p2qG+qS3UAdMWvEkpCwPZMAORncQic9LWfdEKgFFTvHBqq/eck7lfypaiH+qa6TARAV/wbyQZK2/9JCBR7AiB/64bAlXtCYLhc+y9J3L9kW+dQX//o2rn9I88mfU1nYZkKgK5yuf6HpSD6ztUD1dppZwiBok0A5Hd7h8DgYO2/JnE/kx1z+kbe3L52Fs3tG70z6es3a8tkAHR1Q6C9xlfPulcIFGQCoBg7/rQf77rqqm1CgH2a33/Db3cO9fWPbEv6Ws3qMh0AXcPDtT8oBTu+EwTVphDI/wRAsXb8aXe1rrxqW2N3CDQ+m8T9TjrMmVN6zbzFo59tv9r/nkN9B75cBEBX+1XC7wuB/E8AFHNxCKy/crsQKKCFfSPvmRf/+t2+kUeSvg7ztFwFQFcnBEoTQuBIIZCnCYBib/c7At0zAkIgzxzqm9nlMgC6yuXapwYGqpX4jMDpZ937vBDIxwSAxRsPgVL1x0IgPw499KZfmxcf6usf+XHS11jel+sA6IpDoP0gUQ5KcQjc95wQyPYEgE1cNwSCoHqXEMiuuYdf9zsO9c3uChEAXcPDtd/rhsDXVtz//CFLhUAWJwBsXzv21Dtb69Zvi0qlHT8RAtngUF+yK1QAdE0MgeVnP/CcEMjWBIC93OIQuGLd1vpAUL0nDoFWq4APcinXPdTXftJ/NOnrpcgrZAB0DQ1Fn5wcAjcmfofYK08AWC+LQ2DtuqdrQRA9MFxpzhECyXOoL10rdAB0VSrRJ0oDQiArEwDW6+YvmRQCDwqB2dc91Devb+SupK8HmzwBMEEYjn1kYKC6Pv7rg0IgvRMANtWNh8AVT9dKpeghITDzOof6+kfOad/+fl5SOgGwD3EItF8trG2vsXzF/UIgZRMAtr/rhsDlV2wVAjNgzil3v759G89xqC8bEwAvY3h47MNxCIRhNHbmygeFQEomAGw6tuzkH+0JgeomIXBg5n7x+vfOiw/19Y1uTvp+td4nAHrwQgjUOiFw6FFCIMkJAJvOTQyBoaH6glNOab06iWsri+b3jfx1+9V+yaG+bE4ATMHg4NiHuiHwjZUPPSsEkpkAsJlYNwTaP+NC4GXMPeLWX5/X+Zf6Rn+S9H1mBzYBsB/iEAjD6HIhkMwEgM3kdofAU+MhUCq1XpPEtZY2f79k5Hcd6svXBMABCMPmb5XC6qpyWGt2QsAZgVmZALDZWBwCa9a2Q2AgeqSoITD5UF/y94lN7wTANOiEQGnHqjCoNc5c+dBOITCzEwA2m9vz0UAUlKJHixICf9d/0/vmOdSX+wmAabRhQ/OD3RBYce7Dz3zh6JsTv4PzOAFgSWzpSXe0Vq/ZUo1DoFKpL8xjCHQP9bWf+J9L+va2mZ8AmAFCYGYnACzJxSFw6WVbakFQfSwPITDhUN/dSd+2NrsTADNocLD5m+0HiYuFwPROAFgaFofAJWu21MIweqJcbhw2MtJ6bRLX5P6av3j0E/GhvvYr/nrSt6UlMwEwC8ZDIIyanRBYJgQOZALA0rQshYBDfTZxAmAWtR8cPtAOgUvK5VrzG996eOfnj74p8QsgixMAlsYt+0r80cCT9aBUfbxcri9I078sGB/qa7/aP7W9J5O+nSw9EwAJuOaaxvvbIfDtOATOOsdHA1OdALA0b9nJd7TWX7mtMTjY/NskrtEXtF41f8nIZxzqs5eaAEhQOwDeHZbqZ1fK9ebK8zY980UfDfQ0AWBp38rzNzWGKo3Dk7hGY/P6Rw6Z1zdyf9K3g6V7AiAFJoXA+Y/sFAIvPwFgaV/SATC3f+TmpG8DS/8EQIoMDETvmhQCx/wg8QskjRMAlvYJAMvCBEAKTQ6BTUJgrwkAS/sEgGVhAiDF4hAIguryMKzVOyGwTAjEEwCW9gkAy8IEQAZs2BC9sxsC55y/qVn0EBAAlvYJAMvCBECGTAyBcy/YPHbYl25J/AJKYgLA0j4BYFmYAMigSqX6jnYEfK1crtXOvXBz87Av3Zr4hTSbEwCW9gkAy8IEQIbtHQKHH1uMEBAAlvYJAMvCBEAOFC0EBIClfQLAsjABkCMbN2799aC84+RuCCzO6UcDAsDSPgFgWZgAyKGhoad+rVKJTmqHQJTHEBAAlvYJAMvCBECOjYdAWKtfsOqx3Hw0IAAs7RMAloUJgAKYGALn5yAEBIClfQLAsjABUCBxCJQH6ye2Q6AWh8DiL2czBASApX0CwLIwAVBApVLrzRNDoC9j7wgIAEv7BIBlYQKgwOIQqFSay9ohsCNLISAALO0TAJaFCQDGQyAMa9svWLW5nvaPBgSApX0CwLIwAcC4735315viEAiCaPuqSx5vLDn+tsQv0H1NAFjaJwAsCxMAvEgnBMJaakNAAFjaJwAsCxMAvKS9QqB+REpCQABY2icALAsTALyibgiEQW1bGkJAAFjaJwAsCxMA9GzDhtYbJ4XACT9M5KIVAJb2CQDLwgQAU7Zx4643hGG0OA6BixMIAQFgaZ8AsCxMALDf4hAYHGwcFoa1py9Z/URjtkJAAFjaJwAsCxMAHLBSqfX6iSFw5AyHgACwtE8AWBYmAJg2E0Jg60yGgACwtE8AWBYmAJh2k0Pgyfp0h4AAsLRPAFgWJgCYMXEIDA/XF4Zh9EQnBE68fVouWgFgaZ8AsCxMADDjxkMgqP7i0suejA40BASApX0CwLIwAcCsufji1uu6IbD68i31o79yx35dtALA0j4BYFmYAGDWdUMgCKqPxyGw7OSphYAAsLRPAFgWJgBITBwClcruELhs7VO1ZT2+IyAALO0TAJaFCQASNx4CYfXnvYSAALC0TwBYFiYASI1uCIRh9FgnBE7+0T4vWgFgaZ8AsCxMAJA6p5zSenUlaP7N7hDY8qIQEACW9gkAy8IEAKkVh8BwpTknDGqPxiFw7Kl3di5aAWBpnwCwLEwAkHojI63XDg3VF4RBtPmyy5+M1q3f1hQAluYJAMvCBACZUSq1XhOG9fnloLap/UT835L4GgSA9TIBYFmYACBzWq3Wq+Il8f8WANbLBIBlYQIApkAAWC8TAJaFCQCYAgFgvUwAWBYmAGAKBID1MgFgWZgAgCkQANbLBIBlYQIApkAAWC8TAJaFCQCYAgFgvUwAWBYmAGAKBID1MgFgWZgAgCkQANbLBIBlYQIApkAAWC8TAJaFCQCYAgFgvUwAWBYmAGAKBID1MgFgWZgAgCkQANbLBIBlYQIApkAAWC8TAJaFCQCYgk4AXLRZANjLTgBYFiYAYArK5dqnwrAW/eMFjzYOP/bWxH+ALZ0TAJaFCQCYolKp9eZKpbmsHNZ2nL/qsWafELC9JgAsCxMAsJ+6IRCGte0XrNpcFwLWnQCwLEwAwAGaGAKrLnm8seT42xL/wbZkJwAsCxMAME2++91db6qEtWVBEAmBgk8AWBYmAGCa7RUCdSFQvAkAy8IEAMyQbgiEQW1bHAJHCIHCTABYFiYAYIZt2NB6oxAo1gSAZWECAGbJxo273hCG0eLxEDjhh4k/ANjMTABYFiYAYJbFITA42DgsDGtbLxYCuZwAsCxMAEBCSqXW6/eEwNOXrH6icaQQyM0EgGVhAgASJgTyNwFgWZgAgJSYEAJbL1n9ZF0IZHcCwFK/vpGfCwBIGSGQ/QkAS/Fun7d4dMGiRbe/LqnrE3gFcQgMD9cXBkH1iU4InHh70g8c1uMEgKVp7eshmts3cvHB/aO/n9Q1CeyHiy9uvS4OgTCo/uLSy56Mlp4gBNI+AWAp2b3tHbdw6chbk7oWgWnQDYEgqD6++vIt9WUn35H0g4u9xASAJba+kWfm9o2W5i8Z+YzP+CFn4hCoVHaHwGVrn6oJgfRNANjsb+TxuX0jZ/zt4ut/M6nrDpgl4yEQVn/eCYGvCIG0TADYrK1v9Kb5S0bnONQHBfSiEDj5R8k/KBV8AsBmdH0j1fhQ37zDRz6V1DUGpMgpp7ReXQmafxOG0WOXrd0iBBKcALAZWd/oz+b2jy6d0zfy5qSuLSDF4hAYrjTnhEHt0TgEjj31zuQfuAo2AWDTtkmH+gB6IASSmwCwA9/uQ31zjxj5QFLXEZBx3RAIwujRyy4XArMxAWD7vT2H+v7jKSOvTer6AXJmYgisEQIzOgFgU9qeQ30L+q77vaSuGaAAxj8aCKNH1qx9SgjMwASA9bL2/fTT+FDfvGO++6akrhWggOIQGBxsfDYoRQ9efsXWSAhM3wSAveQc6gPSohsCpVJ0/5p1T1XjEJi/JAUPlBmeALAXrW/k5+375dR5h9/87qSuC4B9arVar+qEQBDdt27907XjT7tLCOznBIDt3siu9qv97znUB2SCEDjwCYDCb0d8qG/uETd8MqlrAJhm8dvlSX8Ns2VPCPzfIIgeXLvuaR8NTGECoKDrG7mj/ecih/oghyqV2rwwrN03NNT4P/ETZNJfz2yIv8/4+w2D6IG1V2ytfVkIvOIEQHE2t290p0N9UACDg/XPrVn71M7L20+EpVL13+JXyEV5V2DPOwL/Oz4seMW6bTu+fOqPhcBLTADkf3P7Rx+LD/UdcsQN70rqfgZmURwA/3jho7X4ASD+ZTvxX58LBqJHhobqC0ql1muS/vpmy9BQ7TNBUP3puvXbopO+9pPEH4zTNgGQz83tG/mlQ31QUBMDoLs4BOJ/UKeoIVBqh8D6K3eHwPwl1yf+IJ2GCYDcrXOob/7i0U8kdZ8CCdtXAHS39KQ7WqvXbKkGpejRSqW+sGghEATVe9ZfuV0I9AuAHO329hYtWnT7G5O6L4GUeLkA6C4OgUsv21JrPyE+VsQQCEvVu4seAgIgu3OoD9inXgKgu24IhGH0RLncOGxkpFWYzww7Hw2Udtx9ZUFDQABkcSMPtf887u8XjbwzqfsNSLGpBEB3cQhcsqaYIVCpNP+6VIru2BMCu4oSAgIgG5t4qG/OnFJh3qkD9sP+BEB3u98ReCL+aODJgobAbVddtaNahBAQAOle+0l/e/s2OufgxTd+JKn7CMiYAwmA7jrvCKwubggMBNG/XH319vrJy+/ZtSCnISAAUjuH+oD9Mx0B0F0cAqsufTwKw+oWIZCvEBAA6Vn3UN/BS77/V0ndH0AOTGcAdHfUie0QWP14FATVpwYHixcCpVJ069VX78hVCAiA5Nd+0n9wnkN9wHSZiQDobmIIDJVrR2/cuOsNSX+/syUOgfb3PZqXEBAAST3pO9QHzJCZDIDulp50ezsEfhGFYa24ITCwo3by8rszGwICYLaf+Hcf6pu35PoPJ3WbAzk3GwHQ3ZEnTg6Bkctav5L09z9bhsPmXwWl3SFw6hk/3bXgiBsSf5IRAKlc51Df/zv6B7+a1G0NFMRsBkB3S0/YHQJBEG0tWggMDjb/Mg6BgYEd9dO+8bNfZiUEBMDMbfxf6usf/Yukbl+ggJIIgO6WHH9b68JvP1YVAukPAQEwA0/8/aMPtP88bn7/996R1O0KFFiSAdBd/3G3tS5YtbneDoGnh8qNQoVApdL8i9KEEFiY0hAQANP0pO9QH5AWaQiAF4VAGFUrlfoJAwO7CvM56HC58edpDgEBcIBP/P0jT7af/M9YeNjIh5K6DQEmSVMAjIfA8f/SDoHH6mFYK1wItO+PTw+Utv9T2kJAAOz3HOoD0imNASAEDjqoXK7/YSmIvjMwUK2ddkbyISAAet/c/tGx9tYe3Dfy6aRuL4BXlOYAGA+B4yaHwIYNrcL8u+fdEAiCavOrZ92bWAgIgB7WN3J/+8/j2q/2357U7QTQsywEQHd97RA496LNte4ZgSKFwPBw7Q9KwY7EQkAA7HvdQ33zFo9+9qCDWq9K6vYBmLIsBcDEEDjvws31MKhFlUp0UpFCYHCw9vtJhIAA2Gt9o0/Eh/oO7rvut5K6TQAOSBYDYF8hUC7XTt+4ceuvJ317zpZOCJQmhMCRMxsCAmB8nUN9CxeOFOavqgI5leUA2FcIBEHtq0UKgXb4fGpgoFopBdXG6Wfd99xMhUCRA6B7qG/ekuv+MKnvH2Da5SEAxkPgy7dOCoFSadtbkr59Z0scAqVStRyUosbXVtz//CFLpzcEChkADvUBeZanABACncOCvzcTIVCUAHCoDyiMPAZAd4d96ZbWORc8UgvDqFbkEFh+9gPPHWgI5D4AHOoDiibPATApBM7f1CyHtVpQrn11cHD7W5O+3WfL0FD0yckhcKMAmLzb26/2FyxadPvrkvreABJRhAB4UQiUa41yuf7NIoVApRJ9ojSw/yGQpwBo/7ei9qv9ixcsvuEPkvp+ABJXpAB4UQiEtWbRQiAMxz4yMFBdH//1wamEQB4CoP2kf1/7z+MOXnzj25L6PgBSo4gB0N2ivULg2mt3FOaJIQ6BIIjWttdYvuL+VwyBDAfA8/P6Rq+Zv2TkMw71AUxQ5ACYGALfOm/TWCcEgvqKIoXA8PDYh+MQCMPa2JkrH3zJEMhaAMztH/1FfKhv/pE3fjCprxkg1QTAhBA45pbWN899uNl+MmzEITAwsKMwf/977xA49KjJIZChAHCoD6AXAuDlQiBqtp8UVxYpBAYHxz7UDYFvrHzo2W4IpDkAHOoD2A8C4GVCIP5o4PxHxuIQKIXRWZVK9R1J31+zpVIZ+2hYiq4Mg6i5fMUDz5530eaxFAbAvfMc6gPYPwKghxA4ZvcZgfijgfaTYqFCID4s2I6fK4cG68+nJAAc6gOYDgJgKiHwg9bK88bfETh7w4bonUnff7MlPiOwYUMzsQN1c/tGS3P7R/9h7hevf29SXwNArgiA/QuBFec+PBYGtUZYrl14ban+nqTvRwCYEgEwDSEQRs0wrF5ULte9OgUgGwTAge8LR9/cOnPlg0Ig/NTfAAAI4UlEQVQAgOwQANO3zx99U+vMbz30THxyPg6BoaHG+5K+fwFgnwTADIZAGO1sb40QACB1BMDM7dCjJofANdc03p/0/Q0AHQJgtkOgJgQASJ4AmN0Q+PrZD+w5I1BbUy43PpD0/Q9AQQmA2V98RqATAmEt/l0Da4UAALNOAKQjBNorxf/sbtLXAwAFIQCSXxwC8S/c2f2OQC2IfxFP0tcFADknANKz+IzA7hCIhAAAM0sApG97h8Dw8NjHkr5OAMgZAZDeHbr0xkkhcE248+NJXy8A5IQASP8OWXpD6/Sz7hUCAEwfAZCdfa4TAvc9FwbVsd1nBHb+dtLXDwAZJQCyt/EQCGtjpTC6RggAMGUCILvrhMCZ9z4fBFEnBIaGqr+T9PUEQEYIgOzvc0feKAQAmBoBkJ/FIXDaGT97vlSqNuIQ2BBGv5v09QVASgmA/K0bAkFQbZaC6DtCAIAXEQD53cQQCIPouvZ9/emkrzcAUkIA5H/dEBgY2NEJgaGh+h8lfd0BkDABUJxNDIGgVP2+EAAoMAFQvL0QAtVGHAIbyvU/Tvo6BGCWCYDibuGRN7wQAkH1+4ODjT9J+noEYJYIAFtwxA2tk5ffsycEIiEAUAQCwLrbHQJ37+qcEWiHwNBQ40+Tvj4BmCECwPbegiXXd0Lg6oFqMyzVbt5QbvxZ0tcpANNMANhLbeERN7ROOeOnnRAYGKheNzAQvSvp6xWAaSIA7JUWh8BFlz6+c6hS/2LS1ysA00QAWC9bef6mxlClcXjS1ysA00QAWC8TAAA5IwCslwkAgJwRANbLBABAzggA62UCACBnBID1MgEAkDMCwHqZAADIGQFgvUwAAOSMALBeJgAAckYAWC8TAAA5IwCslwkAgJwRANbLBABAzggA62UCACBnBID1MgEAkDMCwHqZAADIGQFgvUwAAOSMALBeJgAAckYAWC8TAAA5IwCslwkAgJwRANbLBABAzggA62UCACBnBID1MgEAkDMCwHqZAADIGQFgvUwAAOSMALBeJgAAckYAWC8TAAA5IwCslwkAgJwRANbLBABAzggA62UCACBnBID1MgEAkDMCwHqZAADIGQFgvUwAAOSMALBeJgAAckYAWC8TAAA5IwCslwkAgJwRANbLBABAzggA62UCACBnBID1MgEAkDMCwHqZAADIGQFgvUwAAOSMALBeJgAAckYAWC8TAAA5IwCslwkAgJwRANbLBABAzggA62UCACBnBID1MgEAkDMCwHqZAADIGQFgvUwAAOSMALBeJgAAckYAWC8TAAA5IwCslwkAgJwRANbLBABAzggA62UCACBn2gEw/5LVTzY/d+SNiT/JWHonAAByZnBw+1uDIBoOSlHj9LPufU4I2L4mAAByamgo+mRpoFqOQ2D52Q88d8hSIWAvTAAA5FwYjn1kYKC6XgjYxAkAgIKIQyAIorXtNZavuF8IFHwCAKBghofHPhyHQBjWxs5c+aAQKOgEAEBBCYFiTwAAFNzg4NiHuiHwjZUPPXvoUUKgCBMAAHTEIRCG0eVCoBgTAABMEobN3yqF1VVhEDU7IeCjgVxOAACwT+MhEEbNM1c+tFMI5GsCAICX1QmB0o5OCKw49+FnvnD0zYk/eZkAAGCWbNjQ/GAnBIJaQwhkfwIAgCmJQyAIqhcLgWxPAACwXwYHm78pBLI7AQDAAZkYAt889992fmGZEMjCBAAA06Jcrr07CKKVYSgEsjABAMC0ikMgLNXPrpTrzZXnbXrmi0IglRMAAMyISSFw/iM7hUC6JgAAmFEDA9G7JoXAMT9I/MnPBAAAs2RyCGwSAgIAgCKJQyAIqsvDsFbvhMAyISAAACiMDRuid3ZD4JzzNzWFgAAAoEAmhsC5F2weO+xLtyT+5FiECQAAUiEOgXYEfK0TAhdubh72pVsTf5LM8wQAAKlSqVTfEYdAuVyrCQEBAEDB7B0Chx8rBAQAAIUxMLDj7RNDYLF3BAQAAMUxNPTUr4Vh9BUhIAAAKKA4BCqV6KR2CEQ+GhAAABTMeAiEtfr5qx4TAgIAgCKJQ6A8WD+xHQK1OAQWf1kICAAACqNUar1ZCAgAAAoqDoFKpbmsHQI74hDo89GAAACgOLohEIa17Res2lz3joAAAKBAJobAqksebyw5/rbEn3zTMAEAQCF897u73lQJa8uCIBICAgCAotkrBOpFDQEBAEAhdUMgDGrb4hA4omAhIAAAKLQNG1pvnBQCJ/ww8SdnAQAAs2Tjxl1vCMNocRwCFxcgBAQAAEwQh8DgYOOwMKxtzXMICAAA2IdSqfX6PSHw9CWrn2gcmbMQEAAA8DImhMDWPIWAAACAHkwOgSfrWQ8BAQAAUxCHwPBwfWEYRk90QuDE2xN/MhcAADBLxkMgqP7i0suejLIWAgIAAA7AxRe3XtcNgdWXb6kf/ZU7En9yFwAAMEu6IRAE1cfjEFh2crpDQAAAwDSKQ6BS2R0Cl619qpbWEBAAADADxkMgrP68EwIp+2hAAADADOqGQBhGj+1+R+BHiT/5CwAAmCWnnNJ6dSVo/s3uENiSeAgIAACYRXEIDFeac8Kg9mgcAseeeqcAAICiSDoEBAAAJKgbAkEYPXrZ5bMXAgIAAFJgYgismYUQEAAAkCJxCAwONj4blKIH16x9asZCQAAAQAqNh0AQ3b9m3VPVOATmLxEAAFAI3RAolaL7r1j3dO340+6alhAQAACQAa1W61WdEAii+9atP/AQEAAAkCHTFQICAAAyqBsCQRDde8W6bVMOAQEAABk2/o5AqfqzqYSAAACAnBgaqn0mDoF167dFrxQCAgAAcqYTAkH1p+uv3Bad9LWfCAAAKJI4BIKgek83BOYvuV4AAEBRvBAC28dDQAAAQEEMDtb/Z/cdgTVrtzwrAACgQCqV+v8Iw+jH7SD4fNJfCwAAAAAAAAAAAAAAAAAAAAAAAAAAAAAAAAAAAAAAAAAAAAAAAAAAAAAAAAAAAAAAAAAAAAAAAAAAAAAAAAAAAAAAAAAAAAAAAAAAAAAAAADA3v4/qUbsv7ZhEXgAAAAASUVORK5CYII=;" vertex="1" parent="96xqmQHdzvCccrLlqiye-18">
          <mxGeometry x="5" y="10.5" width="27" height="27" as="geometry" />
        </mxCell>
        <mxCell id="96xqmQHdzvCccrLlqiye-22" value="" style="group;strokeWidth=2;strokeColor=#8465b3;" vertex="1" connectable="0" parent="96xqmQHdzvCccrLlqiye-27">
          <mxGeometry x="170" y="23" width="37" height="48" as="geometry" />
        </mxCell>
        <mxCell id="96xqmQHdzvCccrLlqiye-46" style="edgeStyle=orthogonalEdgeStyle;rounded=0;orthogonalLoop=1;jettySize=auto;html=1;strokeWidth=2;" edge="1" parent="96xqmQHdzvCccrLlqiye-22" source="96xqmQHdzvCccrLlqiye-23">
          <mxGeometry relative="1" as="geometry">
            <mxPoint x="302" y="24" as="targetPoint" />
          </mxGeometry>
        </mxCell>
        <mxCell id="96xqmQHdzvCccrLlqiye-23" value="" style="whiteSpace=wrap;html=1;shape=mxgraph.basic.document" vertex="1" parent="96xqmQHdzvCccrLlqiye-22">
          <mxGeometry width="37" height="48" as="geometry" />
        </mxCell>
        <mxCell id="96xqmQHdzvCccrLlqiye-24" value="" style="shape=image;verticalLabelPosition=bottom;labelBackgroundColor=default;verticalAlign=top;aspect=fixed;imageAspect=0;image=data:image/png,iVBORw0KGgoAAAANSUhEUgAAAgAAAAIACAYAAAD0eNT6AAAABGdBTUEAALGPC/xhBQAAAAFzUkdCAK7OHOkAAAAgY0hSTQAAeiYAAICEAAD6AAAAgOgAAHUwAADqYAAAOpgAABdwnLpRPAAAIABJREFUeJzt3XmQnPVh52F8J7YT346vOD6T2HES59rKtber9ipX7daucqDLYFugGYFAGHOZAIUtY7CQCbcMQggJmH7f7pkRWBWXg2e4DMHgYAw2dwTCGISQ1G8fIw6rt9+WepgRAnqkmXmv56n6lv6Dme53uj/d/ZPmoIMAAAAAAAAAAAAAAAAAAAAAAAAAAAAAAAAAAAAAAAAAAAAAAAAAAAAAAAAAAAAAAAAAAAAAAAAAAAAAAAAAAAAAAAAAAAAAAAAAAAAAAAAAKJyhSv34Uim6dXCw+e+T/loAgFkyOFg/+durf7Hrqqu2N9oh8MOhoeZ/SPprAgBmWBwAX19x/655/aOt40+7q7X+ynYIBNU7Bwcbn036awMAZsjEAOhOCABAzu0rACaGwJVXba8LAQDImZcLgBeFQKn6YyEAADnQSwDsHQJBUL1LCABAhk0lALo79tQ7W+vWb4tKpR0/EQIAkEH7EwATQ+CKdVvrA0H1njgEWq3Wq5L+fgCAHhxIAMSbv2R3CKxd93QtCKIHhyvNOUIAAFLuQANACABABk1XALwoBK54ulYqRQ8JAQBIoekOgL1D4PIrtgoBAEibmQqAiVt28o/2hEB1kxAAgBSYjQDYVwgMDdUXnHJK69VJf/8AUEizGQCTQmDtU/FhwU4IlEqt1yR9OwBAoSQRAJPfEWiHwED0iBAAgFmUZABMDIE1a4UAAMyaNATAXmcEoqAUPSoEAGAGpSkAult60h2t1Wu2VOMQqFTqC4UAAEyzNAbAxBC49LIttSCoPiYEAGAapTkAJobAJWu21MIweqJcbhw2MtJ6bdK3GwBkWhYCYO8QCILqk0IAAA5AlgJg8kcDTwgBANhfWQyAiSGw6tLHIyEAAFOU5QDYRwg8NTgoBADgFeUhALo76sR2CKzeHQLDg42jNm7c9Yakb18ASKU8BcAL7wjc3gmBMKw9NVSuHS0EAGAveQyA7o48MQ6BXwgBANhbngPgpUJg5LLWryR9uwNAoooQAN0tPWF3CARBtFUIAFBoRQqA7pYcf1vrwm//vCoEACisIgZAd/3H3da6YNXmejsEtg2VG0cPDOz61aTvDwCYFUUOgPEQOP5fOiEQhrVqpVI/QQgAkHsCYO8QeEwIAJB/AmAfIXCcEAAg5wTAy4fAuRdtrgVh1AmBDRtab0z6/gKAaSEAXnl9e0Jg9zsC0UlCAIDMEwBTC4HzLtxcD4NaVC7XTt+4ceuvJ33/AcB+EQBCAIACEgAHEAJfvnU8BIKg9lUhAEBmCIDpD4FSadtbkr5fAeBlCYDp2+I4BC4SAgBkgACY/h32pVta51zwSC0Mo1ocAoOD29+a9P0MAJMIgBkOgfM3NcthrRaUhQAAKSIAZjEEyrVGuVz/phAAIHECIIEQCGvNOASuvXbH25K+/wEoKAEw+1s0MQSC+gohAMCsEwDJhsC3zts0JgQAmHUCIPktOuaW1jfPfbgZhrV6HAIDAzvenvR1AUDOCYD0LA6Bs89rh0BQa4Tl2oXDw7XfSPr6ACCnBED6tuiYHwgBAGaWAEjvxkMgjJpxCFxbqr8n6esFgJwQAOlfHAIrzn14TAgAMG0EQHY2HgLxRwNh9aJyuf7epK8fADJKAGRvXzj65taZKx8UAgDsPwGQ3X3+6JvaIfDQzjCImnEIDA013pf09QRARgiA7K8TAt966JkwjHa2t0YIAPCKBEB+tncIXHNN4/1JX18ApJQAyN8OPUoIAPAKBEB+NzkEakIAgBcIgPwv/mjg62c/8Mzuw4K1NeVy4wNJX3cAJEwAFGfjIRDWmkEQrRUCAAUmAIq3ySFQCyqVsY8mfR0CMMsEQHEXnxFYvuKBZ4UAQAEJAHshBKJOCAwPj30s6esSgBkmAKw7IQBQIALA9t4hS29onX7WveMhcE248+NJX6cATDMBYC+1Q4+6sbV8xf3PB0E0FgxE6wcGdv1q0tcrANNEANgrLQ6By9c9XR8u1/970tcrANNEAFgvW7X6ie1D5fr/Svp6BWCaCADrZQIAIGcEgPUyAQCQMwLAepkAAMgZAWC9TAAA5IwAsF4mAAByRgBYLxMAADkjAKyXCQCAnBEA1ssEAEDOCADrZQIAIGcEgPUyAQCQMwLAepkAAMgZAWC9TAAA5IwAsF4mAAByRgBYL0syACqV5n8cqkT/UCpte0sS/3+AXBIA1suSDID2Nfq5UmnHc+UwqpeD2ulCAGAaCADrZUkHwD9e+Ght0ZduaX3rvE1j5bDWLAf1Fddeu+NtSXw9ALkgAKyXpSEAul9LHALfPPfhZhjW6nEIDAzseHsSXxdApgkA62VpCoDuFh2zJwSCWiMIopVCAGAKBID1sjQGQHdxCJx9XvyOQNQMy7ULh4drv5HE1wmQKQLAelmaA6C7Rcf8QAgA9EoAWC/LQgB0Nx4CQa0Rh8C1pfp7kvi6AVJNAFgvy1IAdBeHwIpzHx4TAgD7IACsl2UxALqbFAJh9aJyuf7eJL4PgFQRANbLshwA3X3h6JtbZ658UAgAxASA9bI8BEB3nz/6pnYIPLQz/geF4hAYGmq8L4nvCyBRAsB6WZ4CoLtOCHzroWfCMNrZ3hohABSKALBelscA6G7vELjmmsb7k/g+gfw6ePGNb5vbP7rsoINar0r6axknAKyX5TkAujv0KCEATK+5/df/8dy+kYvn9o3W48cZAWCZWxECoLs4BL5+9gPPhEEU/76BNeVy4wNJfN9ANh1xxMY3zF8yOqf9pP+9vR9fBIBlbkUKgO7ijwY6IRDWmkEQrRUCwMtZcNg/v39u/8ip7Vf8W17qcUUAWOZWxADobmIItFcKw7GPJHE7AOlzyimtV89fMvKZ9qv90ry+0ede6fFEAFjmVuQA6G7yOwK1oFIZ+2gStweQvDmLvveW9uPCovYr/p9O5XFEAFjmJgBeWHxGYPmKB56Nf+mQEIBiOXjx9/+kc6ivf6SxP48fAsAyNwHw4u0dAsPDYx9L4vYBZtbLHeqb6gSAZW4C4KV36NIbhQDk0MGLb/xI+9X+Ge2f86em6/FCAFjmJgBeeYcsvaF1+ln3jofANeHOjydxewH7b9Khvv7R56f7cUIAWOYmAHrf5zohcN9zYVAd231GYOdvJ3G7Ab1buHTkrXP7R5fO6x95aCYfHwSAZW4CYOobD4GwNlYKo2uEAKTPgR7qm+oEgGVuAmD/1wmBM+99PgiiTggMDVV/J4nbEdite6hvXt/oTbP9eCAALHMTAAe+zx15oxCABC044rqPTvehvqlOAFjmJgCmb3uHwIYw+t0kblcogpk+1DfVCQDL3ATA9C8OgdPO+Fk7BKrNUhB9RwjA9Oke6mu/4n846Z/1iRMAlrkJgJnbxBAIg+i69vf76SRuZ8iD7qG+eX0jzaR/tvc1AWCZmwCY+XVDYGBghxCAKRj/l/r6R25O+uf4lSYALHMTALO3iSEQlKrfHxqq/1EStzukXftV/sfiQ31z+0a3Jv1z2+sEgGVuAmD290IIVBtxCGwo1/84idsf0iRth/qmOgFgmZsASG4Lj7zhhRAIhADFNO/wm9/d/nk4bm7/6L8l/TN5IBMAlrkJgOS34IgbWicvv2c8BAYHG3+SxP0Bsynth/qmOgFgmZsASM92h8DduzpnBILo+0NDjT9N4n6BmbJw4civzFs8uqB9vf9r0j9v0z0BYJmbAEjfFiy5vhMCVw9Um2GpdrMQIOuyeKhvqhMAlrkJgPRu7xDYUG78WRL3E+yP7qG+eX2j18zrH8n9c5EAsMxNAKR/3RDY89HADyqVxr9L4v6CXvzdkf/8G+3r9rj2NiX9szObS1sAnHjO+Y/smt9+8Ej6hrH0TgBkZ/EZgVPP+Okv2yHQKJWqI94RIE3ydqhvqktVAGzY0PxgqRTdcvXV22tfWX73L4WA7WsCIHuLQ+Afvn7Prquv7oTA9d4RICl5PtQ31aUqALoGB5t/GZSqo+1XDfXTvvGzX8YPHknfUJaeCYDsLo76E796166rrtreKA1Etw6XG3+exP1I8fz9kaMf7/z63b6Rp5P+OUjLUhkAXZVK8y8mhsBCIWD9AiAPGw+Bq7fXgzD618HB2n9K4v4k34p2qG+qS3UAdMWvEkpCwPZMAORncQic9LWfdEKgFFTvHBqq/eck7lfypaiH+qa6TARAV/wbyQZK2/9JCBR7AiB/64bAlXtCYLhc+y9J3L9kW+dQX//o2rn9I88mfU1nYZkKgK5yuf6HpSD6ztUD1dppZwiBok0A5Hd7h8DgYO2/JnE/kx1z+kbe3L52Fs3tG70z6es3a8tkAHR1Q6C9xlfPulcIFGQCoBg7/rQf77rqqm1CgH2a33/Db3cO9fWPbEv6Ws3qMh0AXcPDtT8oBTu+EwTVphDI/wRAsXb8aXe1rrxqW2N3CDQ+m8T9TjrMmVN6zbzFo59tv9r/nkN9B75cBEBX+1XC7wuB/E8AFHNxCKy/crsQKKCFfSPvmRf/+t2+kUeSvg7ztFwFQFcnBEoTQuBIIZCnCYBib/c7At0zAkIgzxzqm9nlMgC6yuXapwYGqpX4jMDpZ937vBDIxwSAxRsPgVL1x0IgPw499KZfmxcf6usf+XHS11jel+sA6IpDoP0gUQ5KcQjc95wQyPYEgE1cNwSCoHqXEMiuuYdf9zsO9c3uChEAXcPDtd/rhsDXVtz//CFLhUAWJwBsXzv21Dtb69Zvi0qlHT8RAtngUF+yK1QAdE0MgeVnP/CcEMjWBIC93OIQuGLd1vpAUL0nDoFWq4APcinXPdTXftJ/NOnrpcgrZAB0DQ1Fn5wcAjcmfofYK08AWC+LQ2DtuqdrQRA9MFxpzhECyXOoL10rdAB0VSrRJ0oDQiArEwDW6+YvmRQCDwqB2dc91Devb+SupK8HmzwBMEEYjn1kYKC6Pv7rg0IgvRMANtWNh8AVT9dKpeghITDzOof6+kfOad/+fl5SOgGwD3EItF8trG2vsXzF/UIgZRMAtr/rhsDlV2wVAjNgzil3v759G89xqC8bEwAvY3h47MNxCIRhNHbmygeFQEomAGw6tuzkH+0JgeomIXBg5n7x+vfOiw/19Y1uTvp+td4nAHrwQgjUOiFw6FFCIMkJAJvOTQyBoaH6glNOab06iWsri+b3jfx1+9V+yaG+bE4ATMHg4NiHuiHwjZUPPSsEkpkAsJlYNwTaP+NC4GXMPeLWX5/X+Zf6Rn+S9H1mBzYBsB/iEAjD6HIhkMwEgM3kdofAU+MhUCq1XpPEtZY2f79k5Hcd6svXBMABCMPmb5XC6qpyWGt2QsAZgVmZALDZWBwCa9a2Q2AgeqSoITD5UF/y94lN7wTANOiEQGnHqjCoNc5c+dBOITCzEwA2m9vz0UAUlKJHixICf9d/0/vmOdSX+wmAabRhQ/OD3RBYce7Dz3zh6JsTv4PzOAFgSWzpSXe0Vq/ZUo1DoFKpL8xjCHQP9bWf+J9L+va2mZ8AmAFCYGYnACzJxSFw6WVbakFQfSwPITDhUN/dSd+2NrsTADNocLD5m+0HiYuFwPROAFgaFofAJWu21MIweqJcbhw2MtJ6bRLX5P6av3j0E/GhvvYr/nrSt6UlMwEwC8ZDIIyanRBYJgQOZALA0rQshYBDfTZxAmAWtR8cPtAOgUvK5VrzG996eOfnj74p8QsgixMAlsYt+0r80cCT9aBUfbxcri9I078sGB/qa7/aP7W9J5O+nSw9EwAJuOaaxvvbIfDtOATOOsdHA1OdALA0b9nJd7TWX7mtMTjY/NskrtEXtF41f8nIZxzqs5eaAEhQOwDeHZbqZ1fK9ebK8zY980UfDfQ0AWBp38rzNzWGKo3Dk7hGY/P6Rw6Z1zdyf9K3g6V7AiAFJoXA+Y/sFAIvPwFgaV/SATC3f+TmpG8DS/8EQIoMDETvmhQCx/wg8QskjRMAlvYJAMvCBEAKTQ6BTUJgrwkAS/sEgGVhAiDF4hAIguryMKzVOyGwTAjEEwCW9gkAy8IEQAZs2BC9sxsC55y/qVn0EBAAlvYJAMvCBECGTAyBcy/YPHbYl25J/AJKYgLA0j4BYFmYAMigSqX6jnYEfK1crtXOvXBz87Av3Zr4hTSbEwCW9gkAy8IEQIbtHQKHH1uMEBAAlvYJAMvCBEAOFC0EBIClfQLAsjABkCMbN2799aC84+RuCCzO6UcDAsDSPgFgWZgAyKGhoad+rVKJTmqHQJTHEBAAlvYJAMvCBECOjYdAWKtfsOqx3Hw0IAAs7RMAloUJgAKYGALn5yAEBIClfQLAsjABUCBxCJQH6ye2Q6AWh8DiL2czBASApX0CwLIwAVBApVLrzRNDoC9j7wgIAEv7BIBlYQKgwOIQqFSay9ohsCNLISAALO0TAJaFCQDGQyAMa9svWLW5nvaPBgSApX0CwLIwAcC4735315viEAiCaPuqSx5vLDn+tsQv0H1NAFjaJwAsCxMAvEgnBMJaakNAAFjaJwAsCxMAvKS9QqB+REpCQABY2icALAsTALyibgiEQW1bGkJAAFjaJwAsCxMA9GzDhtYbJ4XACT9M5KIVAJb2CQDLwgQAU7Zx4643hGG0OA6BixMIAQFgaZ8AsCxMALDf4hAYHGwcFoa1py9Z/URjtkJAAFjaJwAsCxMAHLBSqfX6iSFw5AyHgACwtE8AWBYmAJg2E0Jg60yGgACwtE8AWBYmAJh2k0Pgyfp0h4AAsLRPAFgWJgCYMXEIDA/XF4Zh9EQnBE68fVouWgFgaZ8AsCxMADDjxkMgqP7i0suejA40BASApX0CwLIwAcCsufji1uu6IbD68i31o79yx35dtALA0j4BYFmYAGDWdUMgCKqPxyGw7OSphYAAsLRPAFgWJgBITBwClcruELhs7VO1ZT2+IyAALO0TAJaFCQASNx4CYfXnvYSAALC0TwBYFiYASI1uCIRh9FgnBE7+0T4vWgFgaZ8AsCxMAJA6p5zSenUlaP7N7hDY8qIQEACW9gkAy8IEAKkVh8BwpTknDGqPxiFw7Kl3di5aAWBpnwCwLEwAkHojI63XDg3VF4RBtPmyy5+M1q3f1hQAluYJAMvCBACZUSq1XhOG9fnloLap/UT835L4GgSA9TIBYFmYACBzWq3Wq+Il8f8WANbLBIBlYQIApkAAWC8TAJaFCQCYAgFgvUwAWBYmAGAKBID1MgFgWZgAgCkQANbLBIBlYQIApkAAWC8TAJaFCQCYAgFgvUwAWBYmAGAKBID1MgFgWZgAgCkQANbLBIBlYQIApkAAWC8TAJaFCQCYAgFgvUwAWBYmAGAKBID1MgFgWZgAgCkQANbLBIBlYQIApkAAWC8TAJaFCQCYgk4AXLRZANjLTgBYFiYAYArK5dqnwrAW/eMFjzYOP/bWxH+ALZ0TAJaFCQCYolKp9eZKpbmsHNZ2nL/qsWafELC9JgAsCxMAsJ+6IRCGte0XrNpcFwLWnQCwLEwAwAGaGAKrLnm8seT42xL/wbZkJwAsCxMAME2++91db6qEtWVBEAmBgk8AWBYmAGCa7RUCdSFQvAkAy8IEAMyQbgiEQW1bHAJHCIHCTABYFiYAYIZt2NB6oxAo1gSAZWECAGbJxo273hCG0eLxEDjhh4k/ANjMTABYFiYAYJbFITA42DgsDGtbLxYCuZwAsCxMAEBCSqXW6/eEwNOXrH6icaQQyM0EgGVhAgASJgTyNwFgWZgAgJSYEAJbL1n9ZF0IZHcCwFK/vpGfCwBIGSGQ/QkAS/Fun7d4dMGiRbe/LqnrE3gFcQgMD9cXBkH1iU4InHh70g8c1uMEgKVp7eshmts3cvHB/aO/n9Q1CeyHiy9uvS4OgTCo/uLSy56Mlp4gBNI+AWAp2b3tHbdw6chbk7oWgWnQDYEgqD6++vIt9WUn35H0g4u9xASAJba+kWfm9o2W5i8Z+YzP+CFn4hCoVHaHwGVrn6oJgfRNANjsb+TxuX0jZ/zt4ut/M6nrDpgl4yEQVn/eCYGvCIG0TADYrK1v9Kb5S0bnONQHBfSiEDj5R8k/KBV8AsBmdH0j1fhQ37zDRz6V1DUGpMgpp7ReXQmafxOG0WOXrd0iBBKcALAZWd/oz+b2jy6d0zfy5qSuLSDF4hAYrjTnhEHt0TgEjj31zuQfuAo2AWDTtkmH+gB6IASSmwCwA9/uQ31zjxj5QFLXEZBx3RAIwujRyy4XArMxAWD7vT2H+v7jKSOvTer6AXJmYgisEQIzOgFgU9qeQ30L+q77vaSuGaAAxj8aCKNH1qx9SgjMwASA9bL2/fTT+FDfvGO++6akrhWggOIQGBxsfDYoRQ9efsXWSAhM3wSAveQc6gPSohsCpVJ0/5p1T1XjEJi/JAUPlBmeALAXrW/k5+375dR5h9/87qSuC4B9arVar+qEQBDdt27907XjT7tLCOznBIDt3siu9qv97znUB2SCEDjwCYDCb0d8qG/uETd8MqlrAJhm8dvlSX8Ns2VPCPzfIIgeXLvuaR8NTGECoKDrG7mj/ecih/oghyqV2rwwrN03NNT4P/ETZNJfz2yIv8/4+w2D6IG1V2ytfVkIvOIEQHE2t290p0N9UACDg/XPrVn71M7L20+EpVL13+JXyEV5V2DPOwL/Oz4seMW6bTu+fOqPhcBLTADkf3P7Rx+LD/UdcsQN70rqfgZmURwA/3jho7X4ASD+ZTvxX58LBqJHhobqC0ql1muS/vpmy9BQ7TNBUP3puvXbopO+9pPEH4zTNgGQz83tG/mlQ31QUBMDoLs4BOJ/UKeoIVBqh8D6K3eHwPwl1yf+IJ2GCYDcrXOob/7i0U8kdZ8CCdtXAHS39KQ7WqvXbKkGpejRSqW+sGghEATVe9ZfuV0I9AuAHO329hYtWnT7G5O6L4GUeLkA6C4OgUsv21JrPyE+VsQQCEvVu4seAgIgu3OoD9inXgKgu24IhGH0RLncOGxkpFWYzww7Hw2Udtx9ZUFDQABkcSMPtf887u8XjbwzqfsNSLGpBEB3cQhcsqaYIVCpNP+6VIru2BMCu4oSAgIgG5t4qG/OnFJh3qkD9sP+BEB3u98ReCL+aODJgobAbVddtaNahBAQAOle+0l/e/s2OufgxTd+JKn7CMiYAwmA7jrvCKwubggMBNG/XH319vrJy+/ZtSCnISAAUjuH+oD9Mx0B0F0cAqsufTwKw+oWIZCvEBAA6Vn3UN/BS77/V0ndH0AOTGcAdHfUie0QWP14FATVpwYHixcCpVJ069VX78hVCAiA5Nd+0n9wnkN9wHSZiQDobmIIDJVrR2/cuOsNSX+/syUOgfb3PZqXEBAAST3pO9QHzJCZDIDulp50ezsEfhGFYa24ITCwo3by8rszGwICYLaf+Hcf6pu35PoPJ3WbAzk3GwHQ3ZEnTg6Bkctav5L09z9bhsPmXwWl3SFw6hk/3bXgiBsSf5IRAKlc51Df/zv6B7+a1G0NFMRsBkB3S0/YHQJBEG0tWggMDjb/Mg6BgYEd9dO+8bNfZiUEBMDMbfxf6usf/Yukbl+ggJIIgO6WHH9b68JvP1YVAukPAQEwA0/8/aMPtP88bn7/996R1O0KFFiSAdBd/3G3tS5YtbneDoGnh8qNQoVApdL8i9KEEFiY0hAQANP0pO9QH5AWaQiAF4VAGFUrlfoJAwO7CvM56HC58edpDgEBcIBP/P0jT7af/M9YeNjIh5K6DQEmSVMAjIfA8f/SDoHH6mFYK1wItO+PTw+Utv9T2kJAAOz3HOoD0imNASAEDjqoXK7/YSmIvjMwUK2ddkbyISAAet/c/tGx9tYe3Dfy6aRuL4BXlOYAGA+B4yaHwIYNrcL8u+fdEAiCavOrZ92bWAgIgB7WN3J/+8/j2q/2357U7QTQsywEQHd97RA496LNte4ZgSKFwPBw7Q9KwY7EQkAA7HvdQ33zFo9+9qCDWq9K6vYBmLIsBcDEEDjvws31MKhFlUp0UpFCYHCw9vtJhIAA2Gt9o0/Eh/oO7rvut5K6TQAOSBYDYF8hUC7XTt+4ceuvJ317zpZOCJQmhMCRMxsCAmB8nUN9CxeOFOavqgI5leUA2FcIBEHtq0UKgXb4fGpgoFopBdXG6Wfd99xMhUCRA6B7qG/ekuv+MKnvH2Da5SEAxkPgy7dOCoFSadtbkr59Z0scAqVStRyUosbXVtz//CFLpzcEChkADvUBeZanABACncOCvzcTIVCUAHCoDyiMPAZAd4d96ZbWORc8UgvDqFbkEFh+9gPPHWgI5D4AHOoDiibPATApBM7f1CyHtVpQrn11cHD7W5O+3WfL0FD0yckhcKMAmLzb26/2FyxadPvrkvreABJRhAB4UQiUa41yuf7NIoVApRJ9ojSw/yGQpwBo/7ei9qv9ixcsvuEPkvp+ABJXpAB4UQiEtWbRQiAMxz4yMFBdH//1wamEQB4CoP2kf1/7z+MOXnzj25L6PgBSo4gB0N2ivULg2mt3FOaJIQ6BIIjWttdYvuL+VwyBDAfA8/P6Rq+Zv2TkMw71AUxQ5ACYGALfOm/TWCcEgvqKIoXA8PDYh+MQCMPa2JkrH3zJEMhaAMztH/1FfKhv/pE3fjCprxkg1QTAhBA45pbWN899uNl+MmzEITAwsKMwf/977xA49KjJIZChAHCoD6AXAuDlQiBqtp8UVxYpBAYHxz7UDYFvrHzo2W4IpDkAHOoD2A8C4GVCIP5o4PxHxuIQKIXRWZVK9R1J31+zpVIZ+2hYiq4Mg6i5fMUDz5530eaxFAbAvfMc6gPYPwKghxA4ZvcZgfijgfaTYqFCID4s2I6fK4cG68+nJAAc6gOYDgJgKiHwg9bK88bfETh7w4bonUnff7MlPiOwYUMzsQN1c/tGS3P7R/9h7hevf29SXwNArgiA/QuBFec+PBYGtUZYrl14ban+nqTvRwCYEgEwDSEQRs0wrF5ULte9OgUgGwTAge8LR9/cOnPlg0Ig/NTfAAAI4UlEQVQAgOwQANO3zx99U+vMbz30THxyPg6BoaHG+5K+fwFgnwTADIZAGO1sb40QACB1BMDM7dCjJofANdc03p/0/Q0AHQJgtkOgJgQASJ4AmN0Q+PrZD+w5I1BbUy43PpD0/Q9AQQmA2V98RqATAmEt/l0Da4UAALNOAKQjBNorxf/sbtLXAwAFIQCSXxwC8S/c2f2OQC2IfxFP0tcFADknANKz+IzA7hCIhAAAM0sApG97h8Dw8NjHkr5OAMgZAZDeHbr0xkkhcE248+NJXy8A5IQASP8OWXpD6/Sz7hUCAEwfAZCdfa4TAvc9FwbVsd1nBHb+dtLXDwAZJQCyt/EQCGtjpTC6RggAMGUCILvrhMCZ9z4fBFEnBIaGqr+T9PUEQEYIgOzvc0feKAQAmBoBkJ/FIXDaGT97vlSqNuIQ2BBGv5v09QVASgmA/K0bAkFQbZaC6DtCAIAXEQD53cQQCIPouvZ9/emkrzcAUkIA5H/dEBgY2NEJgaGh+h8lfd0BkDABUJxNDIGgVP2+EAAoMAFQvL0QAtVGHAIbyvU/Tvo6BGCWCYDibuGRN7wQAkH1+4ODjT9J+noEYJYIAFtwxA2tk5ffsycEIiEAUAQCwLrbHQJ37+qcEWiHwNBQ40+Tvj4BmCECwPbegiXXd0Lg6oFqMyzVbt5QbvxZ0tcpANNMANhLbeERN7ROOeOnnRAYGKheNzAQvSvp6xWAaSIA7JUWh8BFlz6+c6hS/2LS1ysA00QAWC9bef6mxlClcXjS1ysA00QAWC8TAAA5IwCslwkAgJwRANbLBABAzggA62UCACBnBID1MgEAkDMCwHqZAADIGQFgvUwAAOSMALBeJgAAckYAWC8TAAA5IwCslwkAgJwRANbLBABAzggA62UCACBnBID1MgEAkDMCwHqZAADIGQFgvUwAAOSMALBeJgAAckYAWC8TAAA5IwCslwkAgJwRANbLBABAzggA62UCACBnBID1MgEAkDMCwHqZAADIGQFgvUwAAOSMALBeJgAAckYAWC8TAAA5IwCslwkAgJwRANbLBABAzggA62UCACBnBID1MgEAkDMCwHqZAADIGQFgvUwAAOSMALBeJgAAckYAWC8TAAA5IwCslwkAgJwRANbLBABAzggA62UCACBnBID1MgEAkDMCwHqZAADIGQFgvUwAAOSMALBeJgAAckYAWC8TAAA5IwCslwkAgJwRANbLBABAzggA62UCACBnBID1MgEAkDMCwHqZAADIGQFgvUwAAOSMALBeJgAAckYAWC8TAAA5IwCslwkAgJwRANbLBABAzggA62UCACBn2gEw/5LVTzY/d+SNiT/JWHonAAByZnBw+1uDIBoOSlHj9LPufU4I2L4mAAByamgo+mRpoFqOQ2D52Q88d8hSIWAvTAAA5FwYjn1kYKC6XgjYxAkAgIKIQyAIorXtNZavuF8IFHwCAKBghofHPhyHQBjWxs5c+aAQKOgEAEBBCYFiTwAAFNzg4NiHuiHwjZUPPXvoUUKgCBMAAHTEIRCG0eVCoBgTAABMEobN3yqF1VVhEDU7IeCjgVxOAACwT+MhEEbNM1c+tFMI5GsCAICX1QmB0o5OCKw49+FnvnD0zYk/eZkAAGCWbNjQ/GAnBIJaQwhkfwIAgCmJQyAIqhcLgWxPAACwXwYHm78pBLI7AQDAAZkYAt889992fmGZEMjCBAAA06Jcrr07CKKVYSgEsjABAMC0ikMgLNXPrpTrzZXnbXrmi0IglRMAAMyISSFw/iM7hUC6JgAAmFEDA9G7JoXAMT9I/MnPBAAAs2RyCGwSAgIAgCKJQyAIqsvDsFbvhMAyISAAACiMDRuid3ZD4JzzNzWFgAAAoEAmhsC5F2weO+xLtyT+5FiECQAAUiEOgXYEfK0TAhdubh72pVsTf5LM8wQAAKlSqVTfEYdAuVyrCQEBAEDB7B0Chx8rBAQAAIUxMLDj7RNDYLF3BAQAAMUxNPTUr4Vh9BUhIAAAKKA4BCqV6KR2CEQ+GhAAABTMeAiEtfr5qx4TAgIAgCKJQ6A8WD+xHQK1OAQWf1kICAAACqNUar1ZCAgAAAoqDoFKpbmsHQI74hDo89GAAACgOLohEIa17Res2lz3joAAAKBAJobAqksebyw5/rbEn3zTMAEAQCF897u73lQJa8uCIBICAgCAotkrBOpFDQEBAEAhdUMgDGrb4hA4omAhIAAAKLQNG1pvnBQCJ/ww8SdnAQAAs2Tjxl1vCMNocRwCFxcgBAQAAEwQh8DgYOOwMKxtzXMICAAA2IdSqfX6PSHw9CWrn2gcmbMQEAAA8DImhMDWPIWAAACAHkwOgSfrWQ8BAQAAUxCHwPBwfWEYRk90QuDE2xN/MhcAADBLxkMgqP7i0suejLIWAgIAAA7AxRe3XtcNgdWXb6kf/ZU7En9yFwAAMEu6IRAE1cfjEFh2crpDQAAAwDSKQ6BS2R0Cl619qpbWEBAAADADxkMgrP68EwIp+2hAAADADOqGQBhGj+1+R+BHiT/5CwAAmCWnnNJ6dSVo/s3uENiSeAgIAACYRXEIDFeac8Kg9mgcAseeeqcAAICiSDoEBAAAJKgbAkEYPXrZ5bMXAgIAAFJgYgismYUQEAAAkCJxCAwONj4blKIH16x9asZCQAAAQAqNh0AQ3b9m3VPVOATmLxEAAFAI3RAolaL7r1j3dO340+6alhAQAACQAa1W61WdEAii+9atP/AQEAAAkCHTFQICAAAyqBsCQRDde8W6bVMOAQEAABk2/o5AqfqzqYSAAACAnBgaqn0mDoF167dFrxQCAgAAcqYTAkH1p+uv3Bad9LWfCAAAKJI4BIKgek83BOYvuV4AAEBRvBAC28dDQAAAQEEMDtb/Z/cdgTVrtzwrAACgQCqV+v8Iw+jH7SD4fNJfCwAAAAAAAAAAAAAAAAAAAAAAAAAAAAAAAAAAAAAAAAAAAAAAAAAAAAAAAAAAAAAAAAAAAAAAAAAAAAAAAAAAAAAAAAAAAAAAAAAAAAAAAADA3v4/qUbsv7ZhEXgAAAAASUVORK5CYII=;" vertex="1" parent="96xqmQHdzvCccrLlqiye-22">
          <mxGeometry x="5" y="10.5" width="27" height="27" as="geometry" />
        </mxCell>
        <mxCell id="96xqmQHdzvCccrLlqiye-26" value="TF Configuration" style="text;html=1;align=center;verticalAlign=middle;resizable=0;points=[];autosize=1;strokeColor=none;fillColor=none;fontSize=9;" vertex="1" parent="96xqmQHdzvCccrLlqiye-27">
          <mxGeometry width="85" height="23" as="geometry" />
        </mxCell>
        <mxCell id="96xqmQHdzvCccrLlqiye-33" value="output: random_string.&amp;lt;bucket_name&amp;gt;.result" style="text;html=1;align=center;verticalAlign=middle;resizable=0;points=[];autosize=1;strokeColor=none;fillColor=none;fontSize=10;" vertex="1" parent="1">
          <mxGeometry x="582" y="585" width="217" height="24" as="geometry" />
        </mxCell>
        <mxCell id="96xqmQHdzvCccrLlqiye-31" value="" style="rounded=0;whiteSpace=wrap;html=1;container=0;strokeColor=#FFFFFF;" vertex="1" parent="1">
          <mxGeometry x="68.00083333333333" y="367.99916666666667" width="37.458333333333336" height="40.04166666666667" as="geometry" />
        </mxCell>
        <mxCell id="96xqmQHdzvCccrLlqiye-30" value="" style="shape=image;verticalLabelPosition=bottom;labelBackgroundColor=default;verticalAlign=top;aspect=fixed;imageAspect=0;image=data:image/png,iVBORw0KGgoAAAANSUhEUgAAARgAAAEYCAYAAACHjumMAAA9pklEQVR4nOydCXQUVdbHbydkI2QhSYdsQNghbEFAEJBERBFUUAyCDoqAjooiqCgukAiOjnwuiDjiNjC4DUhcwHHBBRPcAAEDSBRkSSBASCeEhOzppL5D1uqqt1V3V9LVub9zOHS9W+/Ve1Wv/nXvrSUegCAIohMoMAiC6AYKDIIguoECgyCIbqDAIAiiGygwCILoBgoMgiC6gQKDIIhuoMAgCKIbKDAIgugGCgyCILqBAoMgiG6gwCAIohsoMAiC6AYKDIIguoECgyCIbqDAIAiiGygwCILoBgoMgiC6gQKDIIhuoMAgCKIbKDAIgugGCgyCILqBAoMgiG6gwCAIohsoMAiC6AYKDIIguoECgyCIbqDAIAiiGygwCILoBgoMgiC6gQKDIIhuoMAgCKIbKDAIgugGCgyCILqBAoMgiG60a+0OIK6LOSzEIyE+tlfSuAHjofh0H5BqI2TmWvD0Op1f3WHne1t/27Zj/zFLK3YVcVFMrd0BxLXo2jnKJ3FgxOUTL4meMC2hzyQoPxdXZ2iaKeopI0lSRVGt/6/rvzu6dvP2AxkZWUX7i4qKa1u254grggKDNPHgHdeNemFm33VQlt9bPTVMTJGRY6nu8NkNy7+avSPjUIFefUWMAQoMAvOmXzFibkLUE/HRXtcAgLftrDCpf4sIjUe74rRDpRuWb9iXkr7rQK4O3UYMAApMG2bkgK5dFk6Nv3va0KDHAEyyhL8J6CIDCqFhTyHJN/iv+W/vn71m4zc/Oa3jiGFAgWmjrH0y6f5Zo0KTwVputrUoPBaqtyIeMgGYqua8+cfl6z/7aZdjvUaMBgpMGyIoMMBzwdSht6RM6/ccVJdGNxlUs0CLmAiHTdbX0vLnzH9x87v29R4xIp6t3QGkZVg486pRGxeN+WDSAP8FUFsVWF9KEAMhj0VpFxIZj+Gx/teaY3rkfPlzZoZ9o0CMBgqMm5MwpHv/tY9dt+Tuy/zX+Htau9aXcnIsvPwLS2iYdcGzZ7jPoJ3HKz7NPp1fpHUsiPHAEMmN2fbqXcsTossfA5C86ktkh9tECXWIi072ZnwC/xo4f3N85qFjZUIDQQwLejBuRlBQkMfimQk3rn1g1Nvx5sqZYJI8iQIgx8SwM/MzrLtJDKGpqQytNvmd2Lrzrz1Cg0IMC3owbsS0qy7tkzw97h9xIZVJ9SUCAkC0O8ubUdplNr/QrK4z/z04J7egmDMsxMCgB+MGxPXu5v/GgvGLl1wbtsHsZx1IFQuu0PA8HeqCQF5H0ba1PDgmOkpKTcvcRhsXYnzQgzEwQQH+Xh8/Nfn5xG7S30GS/OwOWZhiQLIzbMLPzgBIPh2zeszd0Cf75Kkq0vgQ44OfazAoLz5w3U2H1tywKzG2dkG9uFxEav5PkpqXmwub/qu3K2xNixLBTltdYWvcBqld+fYvyk1lYeyk4Z0TtY8eMQooMAYiKDDAM+mKASP2vDp948Kx7T80+1bHq9eSFD8pQtP4myc0NBsoRUYpJEqhUazbUJQ0tvcE7sARw4IhkkGIiQj1+/K5m1+K61BwD3EFVVgD4vkXTbkZwroOhEySvzmz3ZUr+hM6j7gB+MEpF+ei17Lu4SuXX9bZdGu4f35ss0Vxsl70GFRCIDWv2+jN2IiJxLE11pV5IHXbkGz7YLOosDV5KxeFhmArtfTQtEMQQ4EC48IsvP2a4Y9d2/lZs0fh+PqSiyerSXYiE0QGSB6HZCsGJokiJEAXIfk2TDRbc1Pq/jX0HcBGaEwg+WjbK4iRwByMCxLXI7rjnjW3vfvi9f6/mD3Ojbe1yhOlygRr4yqkcsk2CUxKztr8ZOVfHMjNEJLACaNHBpEHghgd9GBciIRLenZ7ac6wZ+PDq2YAlCq8FVB7HZI87AC1pwE0b6ahLjMsAn5IZdM+z5sBddjUWLemoj0A4LtJbggKjAtgDgvz3PD4lc8ndvOcA9byIHL+AignqjxRa0fYJAE5NyISUqnaV7bDERqpoV0PzxrBXYUYDBSYViQooL3XVQPDrnjjwatTgmvzR0E17URlCY3cm1HaZLCSwDa5EYY3AyyPRZmbIfTBZrvN62blnD1H3UmIoUGBaSVGDh0Q9Omi4f81exROhNr8ZgMriUryUOQ2Z3gzoBQihndD8khUdUl3mmxt2SdyrJRBIQYHBaaFSRgeF7Hg6s6Lp1zScSZYC8OIKzWGDtSwAui3fUHpkYCg0BBuS5PEQvSWNs2bUYRMkqfPGeI+QNwCFJgWJHnmiNtSbur9LFQWx0B1ebOB+JCcYP6FmwQGuudDDZvkHomyXWVuhmZneDOyLuZXtf+NMHjETUCBaQEShnTvvfb+Ec/H+pdOhsrGmyW0/IUSuZCAOkSRGN4C5dkT2+Z5IgOKsEmZmyHlbkgJYFL/AD7flfUNZeCIG4ACoyNJ4wYPeOPv8f8Kls6NBSiRnXukp2F5ItO4OqUuMEQION6M6kldoPQPOLe0lTZoDptIdU2eF175JGM9ZdCIG4ACowMjB/UMf+bm7isSe3jPBKmgYR+LPElLS8LKoCaBRUIqxu1kYvvK/gE//2KitQuqO1G/HL3w3b5D2YX0wSJGBwXGiXSN7uS/YHL/2xeMD18KlRciibeTRW778oSGlQTmhU2SbDuOhE0myh0ulQiRno25aPeoeD89axV5gIi7gALjJJLGD4vb+MCgVCg52w8qL9QXEs9fVmhkR9jEei6FGTaZZEWit7S1eDNAz90AwEGLx4Y1m/ekUQaHuAkoMA6SdPXIXvdeHrAssVf7a6EkN5AadgAw7shoue1LaJuZ5KWJkIZb2ry3tGneDNASvSbrkvU7VpMHhLgTKDB2MvKS/qF/GxFy17wxAcvr/ixITTX7SVrg5V8AyA+50URIvhrJWwHBsMheb0ZZl3KrXC2o0o7cgGe3/PjnXvVAEHeDkU1EaCTfPmZaypSYF6CiqIutxWTzH3X3EoXCxLCbBOo32hjtquyUdVntE7chUre+LOuC11c9Zq2fSG8ccSfQg9FAyp3XjHtgtM/KYK+KQVB+XnEemTSEHSDLXwA9CUy9pQ0Eb6exbdm6JI9K9ElgWt+BlZ+heTP19jwpfNu4JzdOVTeIuCvowQiQdPWlsSnXRayMC6mc3PwNHZ63wvJISKtRPAuuN8M5hEyPxuG/Ny3gzdT/sEjh24bd/e9bcvJL8tgdRtwJFBgGcTGBsf+4a/wtU3qULwGppj39ZBYQG6GwSWnniZTczjqUWv44GqUPrP6z94uUVeLz9bgnt96YnZNbzugk4oagwFDY8PTfZk/rXvgy1FoDbQysk8lRb4DaPk1ItHgzjoig3bkZ6y/5Ic+OuXtNCqNjiBuDAqPg3ptGjbhzZIen4iOkCYSzshkhoWGdqJR2wZ4ksNKuRQS0CKFw2FSdec73oyXrdz6/Ge8WtWlQYBoYOahH+LMz4pYmxJTf05T81nRHhrCewx4Br67SrtGjEfJmKNug1M0pNmVsyaxaOf+FT95hbBxpI7R5gTGbw0yP3zRg5oIxvquhtrrh49OiiVBHch8u4M041D9V3er1u8oeW/zW9tcthcVljI0ibYg2LTDJc8Zflzwh6A1TxfmougK7E6EOegugh9C0kBB6epekn/BaOfv5L1dkn8orZWwEaYO0WYFZfc/o+fMu83mpPhxSnqjEBb7IgINhk11JYA0iw+ofLxxUj92aA9Hv3v7PL55J3/vXUXqHkbZMmxOYruEBYeseuvLJhMiihewrPnWh9cMm4IiJQ2GT0q5qp+bg6bIdqfsqX1y+btsn7IaQtk6bEpiY6EifX5eP2B7uWXRpXYFQ2EGz8a749nozPKFQrqaHyFBF0PraDmn6/Jc++ZhRGUGaaDMCkxDfrdfG++JSzV6lg+pLNIhFawqNUG6GUhfs8XQUjV80mzwq0rI81r3y+eHXNqft+51RAUFsaBMCM3JAbJdPFwx8z+x14XJbi9b8BXWBE1bonJvhJZCJ2xcK62pzytr/8NznJ5LXpP64nTIABKHi9gIzuF/3oK8e7Jse7lU6uK6A+6QscO7GsOradRLbrutIaCMU8rHGJlv2Djy56ru85Q+9+tXbjE4jCBO3FpigoEDPY8+P2BfsVdVfZdR0N4awLJwE1uLN8OpqCZvsFJp2vueXfZ4/e83/9m22WPIlRkfbDObQju3iuoZEJw7tM0yqKvYyWcsBamsAPL1A8vQDk0/QhbS9f+3JPJ531lJwDveZDLcWmO+eu2F5YqdzS+knoo7ejKp9J4dNxP7x2meOrWpTRtnLa77LeTX91z9O0ht1f2KiozznXBt/ZVxwaVLiyCFdw7xKBppqqyPrrZQEuAS14O13NPNUxR8Hj548lX6keu2aTWm7W6P/roTbCkzy7WMnJCeaPjOB5GWfN2FvEpjlzdjZB5ZH4mgS2NO7PNMipb39U/HTqz749hdKR9wesznMFBfpN3DBzaNunjI0fAZUFvWw/7jW/a6xlEq/fbHv3Ib1X+3/PD3j+J969t9VcUuBSRjWJ2LbA53/AGtlsPiJqKc344oP6AGAd8DJ+9cfmr1my97v6BXdn6SJY3q+OCv+pRjfouvtP65MAbL+crzy1b+//H1K5rHTxc7su6vjlgLz3ZKRGxK7e023LXWW0IgIEW0bruDNmAA8vEqWbTk1P3VHzmeZR08XUDbo9iQM7d0j+ea45MT+4deBtTzE1uqsC0jzsTlfWn1q36maLQ+++cOyfYdOnnXGGFwdtxOYhdNHj3rxGs/vQZK8yWvo8Ug+yS5aV6PI8ASM2r86rDk15i0Prz/4WOq3v/5F2YjbE9era2DKrNFzkwb5JkNNVbCNkfm9HeqC2AWg8advyB8Pr9v70MsfbPvK/lEYA7cSmK6dAoOPvXDZPqgq7eLYx5cai7V6M07MzTj7TlN78x8Pvn9k3iubfmzTf4to1nUjhq+9b+gmqCjq2lyq4eKhWtQSstqIkDXtqHXllQvXP2rHMAyDWwnM2gevfGjWgMoXbQrtfvaE14YeQqPFm+HVrV+2WDvsevT9Px585+sDPzMacnuS75xw3bzEsGfM7aVBTYV6eakiIVPDz/O1Ab9evnDDdZnHz7rlt4rdRmBGxvcJ/WlR9wNQWdx8O7GRFvFmSHVFczMc15y6faD339SubNmX5+5Z+92R1JzTZ9vst3CTxl8S/+KdI/4Z431+fPNf0dAQsjp68SBuw9aWc7525+0vbU9K/+1YjtiojIPbCMyGh0Y9M60/PKFtsoB63RYNm5QFTgib2vkVpR0u+eKV7yxPb07L+INRwa1JGNqrV8qsMXckdLE+ADXVHcQuADoKDcvTNAFkFVi3X7/sq5szj+e5VfLXLQTGHNrRM3fVqN+horCvY0lU4Ics1PpaJit1gS8y1O3X5Vn+nP7aH0mp3+45SF6hbZB859UTUiZ23AIADYl+wWPDFSFniQylD94djg+87+MRmUdzLMSBGRCP1u6AM7h3Qo+pdeICDX//q+4PgzU+sS3/3VjEeppbklUh1G2sr2pDtq6k3IaiHZtF5TYa2qba1du3VPjsX7a1ZEbEnZ/Ft2VxSZ579Y37V0/5MWVix8+bxQXUx0a5v1XHjWZXHnc7jqvNyop1q0q6vbt44gvmsFC3uPCDu3gw+5+7fHP/sJrJRKPTXkAk1KXW1+Bes0Imft+rNu2vfmnR+t+ezTlbeIHQkTZBwtDePd55YvKTMdKJ2+gfbG+EdUxdwZsBSD1QvXD6k++togzAULiFwNS8PaoMAPyoK+gtMtQ29JuQFmtQ+uKPTi5c/78dGYzOuzVdo8P91z0ycXFCl+oHodbagbqiwy+26iQ0tMS+p3fJ1Bd3X7p52x7D59AMLzCzxvcfsnZ6YP3f3iFOFhm6fU6B1warrqA3U79cY/GM3Dr9+e0L0jOyjjA669aYOwb4r5g7+u5ZIzo8BwBe+uTNlHYtc4fk6dIWyBew8xWmQ6E3r+1L6LShMHwOZuKg4GvZMbQMYgytsFNRxvCMbbDqEmN82U9JWa+hIKjz3vtTC66N+Ns717ZlcVm9cNJduRtm75o1wv/FenGB5rxZ429a3kxdyMjNKJZZuRlQzi1S3oy2IBH7H+wr9bl3WsJlhE4bCsN7MAXrJqcHW/PGNpewrjrAsGn0Znh3eqhtaLzb5B2Qu/4ny+rF7+xdZSkqb5N/FsRsDjON6hk45o2HJjxmlvImXAwimLd9geNpOvK+F7UNp3mpTUVZxV5fjFyQOtlSUFhD6bDL0661O+AII4fE+QVb84ZQV7h4RaFNJpVNsj3YrLp1Vxz5hJLIk5nYhmzdup/yurbt5JT7fzMxZcf0zOO5hdQxujlxPTsHfZky/t8xPkU3gSR7REQyUfZ9w3LTvgX1saEeW1ld4MwP1nZZdVVdIrTTMLbYwOpJCXGhCak/FG5j7yXXxdAhUox34SUgQQA1rAB7Qiaa26uq7OAtbXkzNn2QLLVB22e/k3PlsCd+nNhWxcUc3MF/7cNXP3HgxXF/xvicv4l925cSvojc6mc+bsC6Zc0Ld51wS1sCSL7r2pvoe8n1MbTAgLUyqum36tzmTQb5qgK5GRGhIXekuQ1a/xrt7cOOvfZzxeMRsz9OeOe7Q9ssBecM6xo7wr03XDohd8Ps7bMubf8MVBRF8I+N3KY8UZUnMgFe3owoYPJNapk7BKGh2UCCuODimWNHDg4jd9z1MbTAJE1KCFMLiXIt5cGkCQVpohAmC72yI96MlHYmYNXAx34aOv+Nn1cwNuLWJAzp3jN3498/f/WWqM+h6OQlNkZmElXgITaJc/xZSWBiXZanLFHsyrYpw5EtmKTawBuGRd1A7rTrY+gcjNl0rnvzkiy4lf0k2yR6ErBxIphM6rpEu03lhv8a8zOqjija8KhOy/Z4Z/nnuUvSd32fyx2wmzLr2kuHrpjR+0Wz14WEujwLK0Fbt+8o+RdJtqza97Jjwz0ulLwZce7w5pbEmDvK/pPn7OBIuCgwhvzrDoYWmMRhvUdC7r6GJdoB5wkNayJzhIaVBLbZvqSazDkVHb557rviJWtSf9glNlr3IyY8KHD9oxOeSoypmA9Q3M42ESqQZG8SGaAICcUufAFQJmpBPJGrSt4DZe4obbImG/of1zMmgrIjXB5DC4xUVuBrsjmJgXLlUM4h+WRheDNAEhLCFQloVz1Q3dGwVPvv/2Bn4Rv/3HJwTVv9syBxvbv5Jw3vNDVletxSKLX0Yp6IwPAWJcYFoCkvRvJ2NHiazOMq4M0ApY88b0ZWZPar6R7Xu7tv5uFjFYQd4dIYWmBMlbLXbwjHhy0yitUc8WaYNHszmw77LFr0bsaqnFNnrAIV3ZKkxP7xG+cP2AJVpZ2htOGlYeKJKvjIgE3IRKjL9XZMsiqkk1wgbFJ5qIyLnXoAdE8HGiMua8e4KN/emYdhP6URl8XQAqPCJgaGhgOl9CRUFRSuKzjmzRBOhLyawJ/uWZv56OZfjrXZr8rNunb48EXXdU+OC6m8AqpK/etLWWGHIlZo2r9AOD6C3gzRWyCFVCK5OeDkZlh2DZ5Ow+K0CZeOSk3LRIFpWSSma6meSKS8DKg9HScmgS1V7fcPX7r9mhxLcYmDgzUkMebAwMUzLp057zKfVQAl7aCGJBI8oSYdH9FjQ0gCE4VEHlIxPFTiRQY0JoFF83rNfZRKLMHqzrg+biAwQBcZYCTbuN4M8MMmgSeBH/3w2ONtVVyS70i4MeXGbivq8ywyeCciODNsoiR5iTaZHcjJefq2STk3hojSxkbJ68R1j+pOHqxrY3CBUXorQPFmSDExKB73B1ubSNjE82ZMngXphy8Y9jFvezCHhXneO6Hb9JTJMSvBWhkOJXmM/QcUoaGJvB1JYKLQyGzAmR+O3NKmtUu0szydusR4PGGQLo/xBQZI7wWBKlFWX8RL8inabVzXrrDJBNAhIjs7J81wmX97SZ5z9YS5l3o9ExNQOxSsjcPmvBcEgkJirzfDzb8wvFBHvRlqXWW4TvOym/NQpqbGjIXBBUay/V91xWKFTWB75SB6MyAe/4NyskkgeXjU2j00A5EwrE/sgmv73DalV1UKmGo860tp3iIvv0Goy0uUAs+bYYVNLE8HnODNNI7dgQf0DIzBBYaEMsamXDFVdsEkMHFZbmoWGeNPDz4blt54/7Q+5c8DVPrWFQi95Uyyy1ejeJo2dpa3Y6c3w7xA8XI3vG0Ljo3qyUn0dl0YYwsMdZ+LPK0JMjstRiZWEA+Z3JS6PMtVXW+dN6H7QnO74sF132dpQp7foFy17T42LE9S0ubNCN3SJtlkbZLCJuLDl7IyYtjEE0njzidjCwxInG97sK6ostVYuRlwQGgMPDFoJCX0u/TF2wc8E+NdNB6gSOERyOElOwW9GV5YZG9uRuhxA8ZTwEK5Jcb3gKgiCc35F2JIZSwMLjANqJ7mtDGKXTF5E0lVjeW2ux/mID//NxaMWzilV9UygPOeYicyS+S15GY4niY1rBDNzXDCJpo3o+q/RpEBkkgCQYTIXTcCxhYYSbHAvJpyJrMk+8FKxtntzRiTuF6xgavv6P9UYueq+wAqvZluPTD2P3XfawmbWMdGklWjeDvUixApbFIIKLCERuALeqDcN7y5o7AbNOw2tsDU73nCZGB4M6AlbKJdVTjejMr1NR4x0ZHtXphz6X3T4qQnobrUTD9RWSejHJ6QKPevHSEtkPpE80gIMB/QY9lFRdLBB/QMiMEFphHChJOAEzY12llhE+VqSxQayhXdYAQFBZluGGq+ZsWt/ZebvUqGQXWjRXFCSYz8BQgKDTcspXiERBFSnOS8sImVN7OZO7y5RekDU6Ro+4XnzRgPYwuMyoEhqL/EcIuBln+R2YBzxWSGTcaaGDFhHYK+XJqwOi649DYAgbcbuG8yc/IzvLecgdEucDxNIAkJScCoMZNi7lDmB3HuiNQVDZuM672A4QWmEZv5qcWb0RL/U66YxNyMfLuuj7ljoPfr9wx99oZLzNOhLD+m2WKyHYPwFR3UV23hx/mdnZuh2UVzR7SxCYR8vP1C3b5xL1JK3EBgaN4E6YCzcjOOxP/Aea/JdUm6YuCgDfcNWG8qyY2v+z4L7URULfL2r2huRlnXgdwMU0iAHzbxQmrhzz0Q9gswPGWgiTDpgmYsDP3R72Yk258SxQaS4iv0yvUkWRVVQ4rmlDaJXOzCJN82+vqNc6O3mUrOxNv0n/cVfOH9S9p/tB3Eqit4bGzslD6wPr4NrL8ewdkvqrqEdSVaXVrfwJDzSo4beDCNKK9I8kWK+yr87Aaor+TAyM0YYDLseXXG2vgOubObX0oEtWtOCztAizdDCZmA482AiLco6s2QvBVGkprVP9EH9Gj9dyg3YzyM78Go9r3yiqVckF+NWXkSgb+pI5GuqMqrreuRfNuom+P9z8yuHz/nqikRrtTyn5q8GZ43oViXWleDN8P0xhhjY/aPNHc43o38tyT4J27cAIMLjPxEUIqBvSeCcj2RySDgmrsISVcMHJRyVYfXbQqJQiMxhIa1f0VCB6XIM4ROoomJ4LEBmpDwxiZR6lL6xxwbZb+oRJTQb4MLjRsIDOsA8LwZxTLLm+FNBnB9kTF3DPDeeG+v/0BNRUfiCrzJzBufav8qTzbqypztksRP8VvzsQG1SAp7QoT+Cc8tio25fd48d10MLjCNKK9IFJtqkXK1ZQmNiDfDFb7W4fW74p+FkvwhXNeceFVWXvGVdtmibYO2vx31ZognqqA3o/JWQOPYOH9CWDgJzPJmXHPu2IubCEwjNCEB8tWWd1WhboMzmV1wjsSYAwNvuCT0ZnL/CbByM0A7UWU/HfVmmCcybd+Ljo1Rlzo25dhp3eOMjZmXEgz5DISxBUZ1xQHOFZUiBkSbgDejqu+6fLH8uqegrKBzc4m8/6LeDOjszRC2T0RSXARIfaT0SVVMqUv1dmR9s+uWOxAuYDRvhlTXWBhfYIB1Ish+Mq+o9gqNgDfjAiQMiOjT3+fEA2qLYP+5+5flDYh4M5LCpuVEZngkqrs15Cb43hjHmxESGt68Ytldc16JYGyBUaLJmyEUsFxb1VWHsB0XverERfoOBEn+1Tklgt6YpjtNoFHkBUILat95YRNTQGs8+kzJU4sQoX+0sTP7x2kXeJ6c8nEJY2FwgWFcbWlXHd28GSCIjGvMijsn9L2u7gfvauuQN6MUGoKN2CzvZNPgLVBFnjA2k0dZRp7XR9Pfyh5yQ8onVzRXIQmUpNg+TUQZx5w1J0EpsIxtGAyDP8nbeCAob5xKrO+2NhRR352R25Urc95rkhRPhLYyg8NrEps/u0DaL3IkxQuclP1LbEPivMnMeq+J9XIkwQ4OvNfkG3J0+up901O/P7DnYmnCmIBIgJDmVYD3ljbpxVfSE86k7in7LnFekDT229TG9mB4V1ugud6KKyrNRrTLfvNyMy4wOZIS47qbqsti7PYGVKEDcNpQeDPMsIPhLfKu+MAScEqS1cvfsn6/54Pd7/8qvlFcqEgkj0RwbMzb7fLx0cbmmp6wPRjcg2lAfjBYH6CmlanMGq62IPBeUysy7YqBY0E66cn8HKSQN6Ny+ThtSJzPJYDYe02SpHjL2Q5vBsCadrTiwzU7LjyZ+uWPWarVmj6FqfEtbbnICP+9acI+Ii6TvBnj4R4CYwPlRCBORNm6DoVMpBPBNZCKTpohWjnRSSexwMufwHrBkLZ/aZ9LINlp+18p4rT9rx7DeVPI9rvfPnBf6vcHficMTtEVhtdJDItALCRU2UDdb5WQKMJxg+J+AsPzZoROBKWQgIa3tE22Ra2MqeK8CSC4foEY/4MGoRH0ZnjbaKpGetOZ583Q8hey7ZtMkFURvGXOv359JP23rYdJ+4WIzdgI4yOOXXmRogg50dtRNK7yWJTejPEwuMBIbBdU5MpBPREEwiYgJUIVV/xWRySkEQ2bSN6MHdtoqqbcbyxvBihhh8LmE5S17LOc5OXvbn2XMAAGyrEBRcDkfQdBj0VjWEpMUhtTYQwuMI2wJro9JwLYhk3ACo1Y3owLTAqfAHInHPZmBIRGSMRZYQdD5JWhhU/Aqc37it9b8sEPKzKP5xYSxyyE6NhAZtfozYDA/iWGhMbDPQSGeLC12HmfKyQ1SBIZXr1WIDCmHOAUI7dgrzcDirCJUJe5DaCciKAhN1O/bPHs/PGw+Vtm5pwtKKd0VACKR8Idm4g3Y+f+ddG8nhaMfZtaSVOcS1F8eRysstEe0JP9tGlaYtgll4mb0w7mbqvvDsOjEnoIjDYY2VhZ+597S5vXB3W9rMqQLdPfOJrY555NNzsmLsrjqnVspLlFGptEGZuWt7SNhcEFhnGwaU9VsmxN6zAmOnWDgv1rYT77+eifUju/nKYC7rMZFIHl1W06mSh1mW0oTjbViSr7efGfb3BOaqbH8h53fTgl9afj6UXFJTWMjgki8CQtd2wC/afZQHD/GgyDCwxwhIJhlwRONnUF1U9iP4hXtNYh5/SZ2n25kM4+iRU45M0IjN/u1w2kmrRTfqsGLv5p0PTnvkmhD0ArMs9C5aUq+sDzZoDnzTBswNq/rT+X7MHYOZjGY8O7tQha7ibxbJL4nSYXYf0vltT46/3/1jxJBf6Wtt1JYPnJYrJj30vquzGmdmVpuUEvz3jum+WWc0WVWsauHam577TkfaMdeHk/Sv5FLjL2/tF+g2BsgWnE5tgwDjj3bhLDBpTJoGqSsY1WIuPEhf0g+VeDCbzqS5QiyRBG3rMnujwJ3LxuZnnkm3e9sv2FHZk5fwkP2CnInksB0j7SMjZg3Clz5Ja26+MGIZIMagytLOa5tgzXnrxBQjXXcWm3Z2QdS8vxWmVbSgpJ9AqbtL7XJEmWSt89q36umjPwng/ubhFxYYYmjG+6iIRNxP0rEhLK+uZC80kLBhcYwo6nxtCKdZg2lp0hMoxqrc2sNzKfAC9/9Xs4KpEUFRkgjJ01eGUOgrp/rZuOBj8QcfdXwx5686d1jAZbGIEv6Nk171hCIhF/GgmDC0wjLKFhXFXs9nQEbqm62ITIOVtQvTmzagO5bxqumHrd0vbwLEvLC/u/cS9nxc14evOrdg3SGYjcMm5Nb8ZgGFtgJEGPhWazazLI7aSrketedZZ8dOzZk8XS3roFYt9I3oy9npzg3SYAyDzn/cX09fljr1z80eL0fdktnGtR9KlpUeBTnU31CF4H9yJFsrlHWCTH2AJDhOJNOOSxMA447wE9FyLz6KkLi7YUzQWTqdz2aiuHJJJ2ejNAEiLZuj4BZ1b9Ujtn4MPfXJu6bT/7+ywtAuX40taVOF/QA3vmFcubMR4GFxiakID9HgvLJWVNFlCecK55BUrd/mfGnI/KxwKAVe3WyyFNdDuFRmn3DTqxLK12quffPo966M0fXSPPwjpuIt4Mce7I9y9nXjHzL645l0QwuMAAQyjAPo/FEW+maR3Xngzrv8rY/dpumAsAVfUlGoRG07gVyx7tzm06Erio68M7+y5/56dPHB6Is3HEG+MKjT0XMOW+Nx7u8RxM0943UYoI9sZi5tuyrGdjBJ8fcVHmv7nzHTBd1v7WAdITwT5Sw99LkhQv+MmRGA+JyVdT2uo+sF2RngUbl32WnZL+27Fs3QblDCTZfCA9V8V8AE65/yT7HtCjfnPGeBjbg1FdDFjeDM/Ou6rQvB1O6ODCzH/jl9envpF1pdTOL7e5VB4WKWtwPBQbU0NY0T7s+P3/syaOW/7DHa4tLoSxsTxhoedmKO2CyLxS1nXtuUTD2ALTiMQJi4TtdoRUIBg2uSjpv+f+NWj5HwPWZ8CT0M73fH0pyzVX2Gjj9g06uuzbijsGPrlr6JqPf9mp7yicBSG0cSRs0uWWtrFwD4FpROWtEISEvKAoEo2RNdpdlMysswVzXtv57PSNlUM2/XbhLcnDUyY0LG9GKTQAENT50Gs/FC7t+siefss37F2feeyMAx9/akFYc0ey94/CAUdIlPuXNe+MiZvkYGQow1dVDC23E+JgyYG8DcgmigHfH0nduiMrFeDvg3tFPXrnuC5TJsV1mBbbvnQsSLUBzNyMp09hVmXH7au2Zr3+3+1ffa//C4k6oRqfIoci2ftyosTPzYi812RAjC0wzMfaG/6niUVTEcsGdBFq/NFkUq5jXNd231+nz8//6/T6+QDrLy537RLdLjbMNwTKCvwTR106BExQlvbz7kPg36ko469ThUVFxcYcqA2S2MurkqT4ypzyAkYTmkZvRZ7kBQ1JYGPuYmMLDIDGt001eiwsEVKto6nXhiL7xClr9gnIu/g7/c+vjzdbzrVir/RAArFPddL+ZpHIW9AiQuM+3ozBBabxYMnUXXlQ5cLPFRKenXXAjT8ZECB4LPJFghiwhIYbNoHiuzMsb8aYuFeSFwTCJlYi15EkMC9Rh7g2rCdpVYvKY8xZFkkCN9WjJIENivsJDPAOqFIoCBNJyE7JsUjGzr+0aSTl3FEcR9bc4L2PJvyWtrKupBAhY+GeAgO8A6rFW+HZKdtQTVbEMGj2ZhRCQ7Op7KoN0y9gBp1LxhYYkZBEU8jE82ZI26fURR/GYJC8FVFvBpzrzYDABcwgGFtgmpDoIQsIejP2hkUMETJZq7y1jQNpFWrkf/VEMZdYn1MAAW/Grre0JYI3Y0yMLTDEGzYcF5SFSFhEO+AEEZIu5PaK6x4dzN4o0tqYfcrM9BOdllcT9GaA5AkpN8PyZiRDi4yxBYbnZpKKHfVmgOHNgK3QmKQav2ExniN4w0Bal0n9/KbV/SDODXvDJhFvhmCnCZ0x9cXgAsOEETKBQNJMkzdDz8+suDFmRUxUJz+xPiMtTdKkhOhZYyL/blOo+ePmGrxm3ntNxPZ523BdjC8wHB3hiowzvBlG2BTuUTz418f6ps+6esBQVi+Rlid55ohbNs4K/RUqi8JVRupX+iSOneSgEMIrjSJjTHkxusCYZN3nioyO3gywvZlwqWD4v6+Dn5OndJ8TE9YhgL0xRG8SBkb2z/7Pbe+njPN5D0rzI7k3CNSFCjsjx0JNApOefaEngU2e3hWCw3MpDC0wkre/+srBrsGeSE7JzZDtJgm8U65s/+/di3v/mHzriEm8niLOxxwS6LN20YT7tz3Ue3dMbdatAFL9/Lc5bgRYd3qA5MEScjOqurLfAkngtJ9+3UEfmetiaIExdYgqaF5SuKdMdBQald3WZvauGpQyovTzmtdHZifPGHIjr6eI45hDg9t9vHTSktyXhuXNiitbDVKtb7NVsvUmeH89Qm2QNUPyZmjzkpTkpdgAwFJaY9E6blfA0AKz6etfFKrOOqAacUYSmNWRqpIuKaOqU7P/b8Q3904eineadCJ55mU3574+Yd+U2OKnoaYqkPskLbDDXfqdJp7QqH+qC+hhk8k/Io89UtfE0AIDIT0KyCIiGjapsnEKsxO8GfJC4+oeMb6l418dX5W29v7RC+O6hEaweouIM2Vk7Kjcd2//NOUKjw+gOCdO7S3QjqvyAsUQGmJdpdDQbKy5ow6bNn29axd/1K6HoQUmdesv9R+rpmqA1rCJZnLAmxEKqSTfWb2LVh54rNvB1fMSb+X1FKETExXRbsMjCQ9/fGfUT+bKI1MAwLPZqtz3LJERuEDxwibiNrRchKTG0gs55X7HGD1xWQwtMNDOu9ltpDojWsKmVsrNNBZVV4TM61uw9sBTQ9IeuH7ANayeIraYzWGml2ZfMm/30gF7pvWpfqHJwLqdTLSDel1WbobaBmsbPJGxrWvqEHl8x54DeBeppcmpCd0v1f0ZVAXUsIll5zbQYNL6ljZtMlFdb5+4kOqElVfB/7LfmrE2YWBUL15v2zr3Th196e6lg7YuGO3zL7NX2SDiSpofniOsywqZqNugeTNKG92bSdt1sIDROZfG0AKzY9/hwiLP0L1EI9WbYdkp6xLNot4MoS2WrbnIM6b899nb7u6U8dLs4bPNYSEG//qg80kYHhfx3ZLL3n51Yu2PMX7lV2n3NOz1Zgh15W0Q67L6QFts2IZPYA6lUy6PoQXmIpsPln7KvqqQCgRjbJ4KORI2iYZUNdXtFwwpX5u7vPupl27tM88cFtrmv8kZ1z0y+LvlE17edlfg6cSu0lwAyYucYNVLaHjhLudOEyj7R5iTslXTj1ZvpnTG5fFs7Q44ilf7wNJpfeCeugXaF/6pxSaGTagBmYnTgInTDs8uWf1HxnheO2NY6DWBkd1y0vefPMLtrhuyeu4li9fN6fNmrE/hxLodRdztyuOq5biZOHbCupq3oewjow8enoXz3/1rgaWw2JB/CsbwV8OgoECPc0ujykCq9WkqZAkNdcQmjl2oEf2Fpn4yV6edNL3zyvbiNZt3Zu3h9dbomEOC290ytttVT0wwP2H2KBptKyus49YaQsPYjh1Ck1ka9trAeRvvY2zcpTG8wFzkzMqE78KtZ8bZFGoWGeWE4m21lUTGdrF204mwBxZ9cGhNzukzteyNGpOE4f0i1s+M/LCzb8nldQVEoWB5okYTGdvl6a/+fmPqr3mfMjbs0hg+RLqIf0BAdWJMzU0qA+9Epha3gDdjaoizhYSQ2ndT/6CySVf39Lq2V49YaWvGGXLC24CYA307vLdwTMo/Jwb8O8hU2s/GSN0vLeDNiIgMs4+sdmy3I3kHnF7+ed4io4ZH4C4CY6lqf/TehIjbTNWlQXaeqOxCR7wZEBAaVjsCIhke4Bk1MrLmurlX9RuSU9H+z8zs/LPsDrk2ybePnfy/h4b8t297y01QU9Wef9xM6kJeKAwiniahXaG6zvFmUjNK1qz5/PfP2Z10bdxDYM6dt8ZF+kb1D4PR9SVaJiS9SGVwibCJajMFelT0nRbneUfCkG7R+87CL2cLitXPCLkwCQOje+58Zty7k2LOPQkV5zvVDczu/eJquRntIjP/w7M3Z58puMDYgMvjFjmYi8T1jPU78GDEISgr6NxcyhIaO70ZRlUBY0sITeOPmrTCyOdnvPD9M5YL1SXsjbYusyZeEr/i+pCXzR7nE8hruJrQkLbvXKHJKvXb3OO+L29gNGoI3MKDgQYvBrx8SxI7m66vKxAKi0RDF0Khvd4Mb7sqM0/cqCebR6xfyZhFUwcnmUMCPb787cxOXo9bmpjwwIA35w5c9sQY01p/U3kPtZDIEQ07SDZBkQFeOOssb4bSmeb61Xe/c+zWzBOFhg51wZ08mIsMjg2N2Ptwj51QXtilqVA4/6LRoxHacxwBk5yVn+HmbmosnpHbH9105Okvfz+fZsk/x31ZQk/MHQN87r26xw3zLvN7wuxTOciuHIq4JyfYtuuETQeLAz8ctOCz6YxGDINbCcxFFk4eeNmLYyq2N/1hf+GTlGKnFvNOBIF2m8w6iQzBnlMT+tHEV/6ck3k8t5jdKX1IShzQf+MdUalQlt+XPTYHvRlHRQZayptRrOfhVTT6/w712nHwpCE/MKXEbUKkRnYcysuZcmnXQRG+VXE2BmEh0SIy4Dyh0TM3IysO9CiPm3dF1KzYqFD4+UjRvrJKazV7w85hyuX9+r12a+wrj4z1ew4qL8Qo+6XqaNMi50S120N1ljejtDsWNq36seKBf289+AOjkqFwO4G5yKGCmoxZIztNB2ulP3EFISHheTsUA1do7BQZ3omoKmLYrZUB8eG1E2ZcFjm20jske/dfeceZXXaAmIhQv4UTe96yZrLfltigmkug1upL7B9zfM7yZgjtMqqJhDP1dud4MyfP1+59eGPWIkvhhSpGBUPhlgKTbSk7B4GRRxKjKmdQVxK68tkRMjGqCTTSYHJAaDSEfIFeNV0n9fS4ddqY7v0z8027s88Wn2f3WRsPTB125bu3xbw3qXv1/SBJXuQusfabc3Mb5GMuKDK8ton9MzFstpyv9Dh5y/r8sbsPHi9krmgwhE4Fo7L2/rF3zupy5i3qCk7Lb1AKXTlsUtkkyeIRsfXuD048tPnnw3+wN8zmgSmDr1k5tdOrUJLXg9o/Vt9bJGwi2UTDJt5x0RgymUyVD35Wfs0rH/+axm7YeLi1wFwk9+UrvjdX5SQyVxKe7HaETa0pMpr63thfU9mmw94vLPrw2HM5Z89pelAvKXHAgBeTOq+IgdMT6rxjofdu7O1/K9/Sdl7YJK3c4XHbojfT36c3ZlzcMkSS883h0i9ujA8Z7e9R3Zm7srDHIio0BvFmbIu9+ofWJMwcFXV1+47h+Zmny46UlVcyX6SMi+0U+vjUAXe8cJXnpkCpKE71nSHuycYcDKP/vMcF7H1Ar4XCJgBIK4hcMfO5L1bSGzA2bu/BXCQmzN8/e3n8HijJ68Nd2RGRoRYbwJsBytiCoveNe+H3m9MP5BwmVbl3Qq8rX50atg6qSjtru60LLefNCI+9Zb0Zi6nT9xFzPhpHr2h82oTAQP17Lt033BK2Lrxd2VihCpryF6z6hELuXtcS47OqO+qJNSx4+eWnHavatvnP6nf2nbZmgLXCd8rwzlde1bV6WlyIdTTUVvtp6x8rR8HsEEMsePtWIGyi2gSFUIPQHCwN//j6f6bfmX3mnFsldZW0GYG5SLQ50HfP4v5bzbX5GkVGtaAoEg2ZQGPY5IDQOOQR2Ju/EK3rYMjkiDcj1D+SXTBsEhCZtBPt/jPr7cP35Jw6Y9jPMIji9jkYORfKKq3fZHt80ifcKyY2EMhfnyfhiDcjPNm5G6eYHRAZsMObIa5jZ1inp9Do8oCeoMgAZb+YPCrSz8U8NfW57x+z5Be6zbMuLNqUByPngcmDE1aOrfoSaq1+wpWMKjSq6o7038neDnCERuhEptha25uB5rFbrAE77n4ve/bmH//8k9Yjd6TNCsxFEvqG9F9/a/S/OvtWUD4TQMApJyLD4IjQuKvIEKs6K2xS2rWMTUzoNv3lu2TR2l2rc/JLW+X9r9akTYVISrLzyy3v/1b6QVh4p/L42OCeUFUWLFzZKaEFoxCFhtyOcN9JdTlhE69/PKFRFFsqvA+8vRceu2v19tXFZdVun28h0aY9GDkxnTp6fzmv19txfoW3CVfS05sROjI6iYwmgbRDZIB3IjvgzXA9HY7I2C2+suMmQe2mIx0eX/Re5gs5p0+75cfYRUGBkREUFOhxVd+AESuSej0UK51KEq7oiDfD82So6wgZW8ibsUOEeHWBIzSa95tJ/Zsl8nbtF1NVWm7gmuUf7n8r/ffcg7TW2xIoMBRWz+j26LzLI+ZDaX6MUAVHPAKeN8NcR3AFR745A3qHRTy7fbkP9SKhHRHxFhDRTItp29oD3ktXbvjhZ1aLbQ0UGAZxnTt2XH1Lj5TE0KL7wSSQr3L0RKUWiwpNK3ozenpCoGfYJODNAKP/Xn7n1++tfvrBdw+uLCoqatUvBboiKDACmIP9fTbMuyQ5sePZhSBJ7bkVnOYRUApbzJuhtOWq3oxqUaMQanl2xtOnaNXP1Qv+ufnwe5aCczWMim0aFBgNjOwV0uut2/stjvPJmytUQdhb0UNkBFbS8+81OSxCLDupXIPQ2B021Rms6Xmhrz+RevjpHfuP5dHWROpBgbGDtXddMn9Sl/L7zT7W3kIVHD6hOIWtmZ/RM2zi9o0hNJo8MYJd2bYEUka+99a399Y8teaTnS73FxpcFRQYO4mJjmz3wuTwx6d1K1vOXbnVczOcFfB1A4qtYbmdT/GmU50XzkjZsI7eEYQECowDBAUFmuIjPAe/dNuQ++K9TtwBJlM7biVHchR6h02u/OyMU3MzPHvDgke7ss0nQ/+xZN32/2aeKsmibxyhgQLjJBZOGZT42Jj2z5ilglHclR0NHVrLm1FV1SEsckiEOLkZcZGpzbwQvGXZt8UPpn69G4XFAVBgnEhQUKDHutn9Hp/S+cJjUFPdgbmy005USmGL5WUobTnsrfDsWvov7m2dl/z3v7LH58Fla7/dxt4AIgIKjA6YOwa0WzGj/12zehQ9B7XWQObKruzNgINCo6c3A7xwkuPNKBYtpXDktd+8Hln+wa5PyQ0i9oACoyMj+3QKf2ZKl6WJoefvAROw8zNOCR0YBuaRdkBkVNXt9cZ4QmavCHGExsNU8dqv8Pj7GZXrduw9WETvBGIPKDAtwL0TB4y4c1DNU/Gh1gncfe70JLDMoKc3o6pub9jE6AfXm9KQW/L0LUrLsm5+fa9Hyqavd2GeRSdQYFqQDY9cPXtapxMvQ20NPWzSJTcDGkSGs1Kri4ydNmjuu6XSe/f9X0gzUr/99Sh9ZcQZoMC0MHERPrH/uHX4LVMi85ZwXztwSqKUYmhNoREWEp5dY/98O55c9mVu8vqdhRuyc85W0CsjzgIFppVIShgQmzLWc2VcQNlk1d8RkmPkJDA46LE4JVys+2FNO+333pOf5S7ecSALH+9vQVBgWpmUW0Zc+cCg0n8Fe1ay/2aT072Z1rjT5Ii3QrFz6p73jdl+9/vZ96WmHfyd3klEL1BgXITkG/vdnDIu4HkoL+xCXQm9GQF7/Y8sa6ctc/5z+JH0fdnEPxiHtAxt+pu8rkT6n/kHvz7t925lrUfh8E5SAphM9GPjlCs+w8DUCQdFBhzwSES8Ib+OOcu2ld9/00u/PJ59tqiA3xlET1BgXIics+fKvzxQ8GOmNXqDuT2ExXb07ApSrQ9xZV28GXBOEpiXgFWZnZB/8Wqfv/mIx5vzPi6Y9c63f+BX5VwEDJFcmKTL+8ZtvDU0FS7k9aOu5JREKMXgMneaKNtpKLJ4df7yhreyb9mxNxMflHMxUGBcnK5RYf4Lroi4fcEI36VQURRJXdFp+Q1CYWsKDdDHllUZ8PXijYef/+ZQWXpRSXm1SC+RlgUFxiDUvXYwMWRFYqR1JvW1A0dyM9RiJyWBnfm6gXdAwaYDFW/N35TzhMWSj9/BdWFQYAxG0mVdB7wxvcu/gqty6X/A35Fb2lSTaNjkrDtN5LbScjzXLv/2wvL0jOPZvJ4grQ8KjEFJiAvvvfZvsc/HehVOpq6k17MzjoZMoOXZmboCa0Z5xNrb3sp8JPPYmTb351eNDAqMwUme0uO2lHFBz0LlBfLfb3J6ErhlczMWr87fPre98vGXN6btFtka4lrgbWqDk36ocH/6GZ//do3u5BMbWNsXaq2+qpWEwyK9wiZe22pbXhlkfXs2+LXx/7d7bvrew6dEtoC4HujBuBEjB/cM/fT2Th+Za/ISiCs4+hAb69axE0UmE3q+PnHFzw/l5OaXi7SKuC4oMG5G1+hw3+Gh5YlvzIlfGlyVS/4+sGuGTbUZxUGp//wm76VvDuTtLiouwT9m5gagwLgp5rAQzw1zez+fGFE2B6rLg1QrOPIkLe8BPeY66hUsNR0y3j/s94+H39r+Ea8WYixQYNychAFR3V66IeLZ+MALM1RGTWGRHQ/oMZqtw6NdeZql45tTX9nzSNGFMnxQzg1BgWkjxHXrFLg6qfMTieHF94Ik2X5RzynvBTEKlXYv3+LNpzs9u2TTn69mHskuFRoAYkhQYNoYI/tGxvxteMgN8wZZnwGpliI0OjwJfPG/oOiDyz7LfuHrbK8tO37745xdA0AMBQpMGyVhSM9O947tNLuXz7nE+EivAVBdHl1ncNSbkZskqIGA8KNpB04d3nzE9Np/d57dZiksqXTaIBCXBwUGgZioCI85oyPGz70sdE5Mbc4kkGoDmq123Gny9jv5i8Uv9b29pe+9/vn+vbp0GjEEKDCIDYP79fAPrjrT3xwS7B/XOTC8f1RA9zC/mi5Qft4zNqpTZGyX6J4AUJXx+x9/nC+vOg/tw2rzyzyzDp4pOZ6+51AeeLc/lXXBKzs7JxeTtgiCIIh+0L9mjyAI4iAoMAiC6AYKDIIguoECgyCIbqDAIAiiGygwCILoBgoMgiC6gQKDIIhuoMAgCKIbKDAIgugGCgyCILqBAoMgiG6gwCAIohsoMAiC6AYKDIIguoECgyCIbqDAIAiiGygwCILoBgoMgiC6gQKDIIhuoMAgCKIbKDAIgugGCgyCILqBAoMgiG6gwCAIohsoMAiC6AYKDIIguoECgyCIbqDAIAiiGygwCILoBgoMgiC6gQKDIIhuoMAgCKIbKDAIgugGCgyCILqBAoMgiG78fwAAAP//9dCijYueQ1UAAAAASUVORK5CYII=;container=0;" vertex="1" parent="1">
          <mxGeometry x="64.99999999999999" y="364.77" width="46.5" height="46.5" as="geometry" />
        </mxCell>
        <mxCell id="96xqmQHdzvCccrLlqiye-36" value="" style="group" vertex="1" connectable="0" parent="1">
          <mxGeometry x="254" y="405" width="92" height="97" as="geometry" />
        </mxCell>
        <mxCell id="96xqmQHdzvCccrLlqiye-9" value="" style="rounded=0;whiteSpace=wrap;html=1;strokeColor=#4335ac;strokeWidth=2;movable=1;resizable=1;rotatable=1;deletable=1;editable=1;locked=0;connectable=1;container=0;" vertex="1" parent="96xqmQHdzvCccrLlqiye-36">
          <mxGeometry width="92" height="71" as="geometry" />
        </mxCell>
        <mxCell id="96xqmQHdzvCccrLlqiye-8" value="" style="shape=image;verticalLabelPosition=bottom;labelBackgroundColor=default;verticalAlign=top;aspect=fixed;imageAspect=0;image=data:image/png,iVBORw0KGgoAAAANSUhEUgAAAgAAAAIACAYAAAD0eNT6AAAABGdBTUEAALGPC/xhBQAAAAFzUkdCAK7OHOkAAAAgY0hSTQAAeiYAAICEAAD6AAAAgOgAAHUwAADqYAAAOpgAABdwnLpRPAAAIABJREFUeJzt3XmQnPVh52F8J7YT346vOD6T2HES59rKtber9ipX7daucqDLYFugGYFAGHOZAIUtY7CQCbcMQggJmH7f7pkRWBWXg2e4DMHgYAw2dwTCGISQ1G8fIw6rt9+WepgRAnqkmXmv56n6lv6Dme53uj/d/ZPmoIMAAAAAAAAAAAAAAAAAAAAAAAAAAAAAAAAAAAAAAAAAAAAAAAAAAAAAAAAAAAAAAAAAAAAAAAAAAAAAAAAAAAAAAAAAAAAAAAAAAAAAAAAAKJyhSv34Uim6dXCw+e+T/loAgFkyOFg/+durf7Hrqqu2N9oh8MOhoeZ/SPprAgBmWBwAX19x/655/aOt40+7q7X+ynYIBNU7Bwcbn036awMAZsjEAOhOCABAzu0rACaGwJVXba8LAQDImZcLgBeFQKn6YyEAADnQSwDsHQJBUL1LCABAhk0lALo79tQ7W+vWb4tKpR0/EQIAkEH7EwATQ+CKdVvrA0H1njgEWq3Wq5L+fgCAHhxIAMSbv2R3CKxd93QtCKIHhyvNOUIAAFLuQANACABABk1XALwoBK54ulYqRQ8JAQBIoekOgL1D4PIrtgoBAEibmQqAiVt28o/2hEB1kxAAgBSYjQDYVwgMDdUXnHJK69VJf/8AUEizGQCTQmDtU/FhwU4IlEqt1yR9OwBAoSQRAJPfEWiHwED0iBAAgFmUZABMDIE1a4UAAMyaNATAXmcEoqAUPSoEAGAGpSkAult60h2t1Wu2VOMQqFTqC4UAAEyzNAbAxBC49LIttSCoPiYEAGAapTkAJobAJWu21MIweqJcbhw2MtJ6bdK3GwBkWhYCYO8QCILqk0IAAA5AlgJg8kcDTwgBANhfWQyAiSGw6tLHIyEAAFOU5QDYRwg8NTgoBADgFeUhALo76sR2CKzeHQLDg42jNm7c9Yakb18ASKU8BcAL7wjc3gmBMKw9NVSuHS0EAGAveQyA7o48MQ6BXwgBANhbngPgpUJg5LLWryR9uwNAoooQAN0tPWF3CARBtFUIAFBoRQqA7pYcf1vrwm//vCoEACisIgZAd/3H3da6YNXmejsEtg2VG0cPDOz61aTvDwCYFUUOgPEQOP5fOiEQhrVqpVI/QQgAkHsCYO8QeEwIAJB/AmAfIXCcEAAg5wTAy4fAuRdtrgVh1AmBDRtab0z6/gKAaSEAXnl9e0Jg9zsC0UlCAIDMEwBTC4HzLtxcD4NaVC7XTt+4ceuvJ33/AcB+EQBCAIACEgAHEAJfvnU8BIKg9lUhAEBmCIDpD4FSadtbkr5fAeBlCYDp2+I4BC4SAgBkgACY/h32pVta51zwSC0Mo1ocAoOD29+a9P0MAJMIgBkOgfM3NcthrRaUhQAAKSIAZjEEyrVGuVz/phAAIHECIIEQCGvNOASuvXbH25K+/wEoKAEw+1s0MQSC+gohAMCsEwDJhsC3zts0JgQAmHUCIPktOuaW1jfPfbgZhrV6HAIDAzvenvR1AUDOCYD0LA6Bs89rh0BQa4Tl2oXDw7XfSPr6ACCnBED6tuiYHwgBAGaWAEjvxkMgjJpxCFxbqr8n6esFgJwQAOlfHAIrzn14TAgAMG0EQHY2HgLxRwNh9aJyuf7epK8fADJKAGRvXzj65taZKx8UAgDsPwGQ3X3+6JvaIfDQzjCImnEIDA013pf09QRARgiA7K8TAt966JkwjHa2t0YIAPCKBEB+tncIXHNN4/1JX18ApJQAyN8OPUoIAPAKBEB+NzkEakIAgBcIgPwv/mjg62c/8Mzuw4K1NeVy4wNJX3cAJEwAFGfjIRDWmkEQrRUCAAUmAIq3ySFQCyqVsY8mfR0CMMsEQHEXnxFYvuKBZ4UAQAEJAHshBKJOCAwPj30s6esSgBkmAKw7IQBQIALA9t4hS29onX7WveMhcE248+NJX6cATDMBYC+1Q4+6sbV8xf3PB0E0FgxE6wcGdv1q0tcrANNEANgrLQ6By9c9XR8u1/970tcrANNEAFgvW7X6ie1D5fr/Svp6BWCaCADrZQIAIGcEgPUyAQCQMwLAepkAAMgZAWC9TAAA5IwAsF4mAAByRgBYLxMAADkjAKyXCQCAnBEA1ssEAEDOCADrZQIAIGcEgPUyAQCQMwLAepkAAMgZAWC9TAAA5IwAsF4mAAByRgBYL0syACqV5n8cqkT/UCpte0sS/3+AXBIA1suSDID2Nfq5UmnHc+UwqpeD2ulCAGAaCADrZUkHwD9e+Ght0ZduaX3rvE1j5bDWLAf1Fddeu+NtSXw9ALkgAKyXpSEAul9LHALfPPfhZhjW6nEIDAzseHsSXxdApgkA62VpCoDuFh2zJwSCWiMIopVCAGAKBID1sjQGQHdxCJx9XvyOQNQMy7ULh4drv5HE1wmQKQLAelmaA6C7Rcf8QAgA9EoAWC/LQgB0Nx4CQa0Rh8C1pfp7kvi6AVJNAFgvy1IAdBeHwIpzHx4TAgD7IACsl2UxALqbFAJh9aJyuf7eJL4PgFQRANbLshwA3X3h6JtbZ658UAgAxASA9bI8BEB3nz/6pnYIPLQz/geF4hAYGmq8L4nvCyBRAsB6WZ4CoLtOCHzroWfCMNrZ3hohABSKALBelscA6G7vELjmmsb7k/g+gfw6ePGNb5vbP7rsoINar0r6axknAKyX5TkAujv0KCEATK+5/df/8dy+kYvn9o3W48cZAWCZWxECoLs4BL5+9gPPhEEU/76BNeVy4wNJfN9ANh1xxMY3zF8yOqf9pP+9vR9fBIBlbkUKgO7ijwY6IRDWmkEQrRUCwMtZcNg/v39u/8ip7Vf8W17qcUUAWOZWxADobmIItFcKw7GPJHE7AOlzyimtV89fMvKZ9qv90ry+0ede6fFEAFjmVuQA6G7yOwK1oFIZ+2gStweQvDmLvveW9uPCovYr/p9O5XFEAFjmJgBeWHxGYPmKB56Nf+mQEIBiOXjx9/+kc6ivf6SxP48fAsAyNwHw4u0dAsPDYx9L4vYBZtbLHeqb6gSAZW4C4KV36NIbhQDk0MGLb/xI+9X+Ge2f86em6/FCAFjmJgBeeYcsvaF1+ln3jofANeHOjydxewH7b9Khvv7R56f7cUIAWOYmAHrf5zohcN9zYVAd231GYOdvJ3G7Ab1buHTkrXP7R5fO6x95aCYfHwSAZW4CYOobD4GwNlYKo2uEAKTPgR7qm+oEgGVuAmD/1wmBM+99PgiiTggMDVV/J4nbEdite6hvXt/oTbP9eCAALHMTAAe+zx15oxCABC044rqPTvehvqlOAFjmJgCmb3uHwIYw+t0kblcogpk+1DfVCQDL3ATA9C8OgdPO+Fk7BKrNUhB9RwjA9Oke6mu/4n846Z/1iRMAlrkJgJnbxBAIg+i69vf76SRuZ8iD7qG+eX0jzaR/tvc1AWCZmwCY+XVDYGBghxCAKRj/l/r6R25O+uf4lSYALHMTALO3iSEQlKrfHxqq/1EStzukXftV/sfiQ31z+0a3Jv1z2+sEgGVuAmD290IIVBtxCGwo1/84idsf0iRth/qmOgFgmZsASG4Lj7zhhRAIhADFNO/wm9/d/nk4bm7/6L8l/TN5IBMAlrkJgOS34IgbWicvv2c8BAYHG3+SxP0Bsynth/qmOgFgmZsASM92h8DduzpnBILo+0NDjT9N4n6BmbJw4civzFs8uqB9vf9r0j9v0z0BYJmbAEjfFiy5vhMCVw9Um2GpdrMQIOuyeKhvqhMAlrkJgPRu7xDYUG78WRL3E+yP7qG+eX2j18zrH8n9c5EAsMxNAKR/3RDY89HADyqVxr9L4v6CXvzdkf/8G+3r9rj2NiX9szObS1sAnHjO+Y/smt9+8Ej6hrH0TgBkZ/EZgVPP+Okv2yHQKJWqI94RIE3ydqhvqktVAGzY0PxgqRTdcvXV22tfWX73L4WA7WsCIHuLQ+Afvn7Prquv7oTA9d4RICl5PtQ31aUqALoGB5t/GZSqo+1XDfXTvvGzX8YPHknfUJaeCYDsLo76E796166rrtreKA1Etw6XG3+exP1I8fz9kaMf7/z63b6Rp5P+OUjLUhkAXZVK8y8mhsBCIWD9AiAPGw+Bq7fXgzD618HB2n9K4v4k34p2qG+qS3UAdMWvEkpCwPZMAORncQic9LWfdEKgFFTvHBqq/eck7lfypaiH+qa6TARAV/wbyQZK2/9JCBR7AiB/64bAlXtCYLhc+y9J3L9kW+dQX//o2rn9I88mfU1nYZkKgK5yuf6HpSD6ztUD1dppZwiBok0A5Hd7h8DgYO2/JnE/kx1z+kbe3L52Fs3tG70z6es3a8tkAHR1Q6C9xlfPulcIFGQCoBg7/rQf77rqqm1CgH2a33/Db3cO9fWPbEv6Ws3qMh0AXcPDtT8oBTu+EwTVphDI/wRAsXb8aXe1rrxqW2N3CDQ+m8T9TjrMmVN6zbzFo59tv9r/nkN9B75cBEBX+1XC7wuB/E8AFHNxCKy/crsQKKCFfSPvmRf/+t2+kUeSvg7ztFwFQFcnBEoTQuBIIZCnCYBib/c7At0zAkIgzxzqm9nlMgC6yuXapwYGqpX4jMDpZ937vBDIxwSAxRsPgVL1x0IgPw499KZfmxcf6usf+XHS11jel+sA6IpDoP0gUQ5KcQjc95wQyPYEgE1cNwSCoHqXEMiuuYdf9zsO9c3uChEAXcPDtd/rhsDXVtz//CFLhUAWJwBsXzv21Dtb69Zvi0qlHT8RAtngUF+yK1QAdE0MgeVnP/CcEMjWBIC93OIQuGLd1vpAUL0nDoFWq4APcinXPdTXftJ/NOnrpcgrZAB0DQ1Fn5wcAjcmfofYK08AWC+LQ2DtuqdrQRA9MFxpzhECyXOoL10rdAB0VSrRJ0oDQiArEwDW6+YvmRQCDwqB2dc91Devb+SupK8HmzwBMEEYjn1kYKC6Pv7rg0IgvRMANtWNh8AVT9dKpeghITDzOof6+kfOad/+fl5SOgGwD3EItF8trG2vsXzF/UIgZRMAtr/rhsDlV2wVAjNgzil3v759G89xqC8bEwAvY3h47MNxCIRhNHbmygeFQEomAGw6tuzkH+0JgeomIXBg5n7x+vfOiw/19Y1uTvp+td4nAHrwQgjUOiFw6FFCIMkJAJvOTQyBoaH6glNOab06iWsri+b3jfx1+9V+yaG+bE4ATMHg4NiHuiHwjZUPPSsEkpkAsJlYNwTaP+NC4GXMPeLWX5/X+Zf6Rn+S9H1mBzYBsB/iEAjD6HIhkMwEgM3kdofAU+MhUCq1XpPEtZY2f79k5Hcd6svXBMABCMPmb5XC6qpyWGt2QsAZgVmZALDZWBwCa9a2Q2AgeqSoITD5UF/y94lN7wTANOiEQGnHqjCoNc5c+dBOITCzEwA2m9vz0UAUlKJHixICf9d/0/vmOdSX+wmAabRhQ/OD3RBYce7Dz3zh6JsTv4PzOAFgSWzpSXe0Vq/ZUo1DoFKpL8xjCHQP9bWf+J9L+va2mZ8AmAFCYGYnACzJxSFw6WVbakFQfSwPITDhUN/dSd+2NrsTADNocLD5m+0HiYuFwPROAFgaFofAJWu21MIweqJcbhw2MtJ6bRLX5P6av3j0E/GhvvYr/nrSt6UlMwEwC8ZDIIyanRBYJgQOZALA0rQshYBDfTZxAmAWtR8cPtAOgUvK5VrzG996eOfnj74p8QsgixMAlsYt+0r80cCT9aBUfbxcri9I078sGB/qa7/aP7W9J5O+nSw9EwAJuOaaxvvbIfDtOATOOsdHA1OdALA0b9nJd7TWX7mtMTjY/NskrtEXtF41f8nIZxzqs5eaAEhQOwDeHZbqZ1fK9ebK8zY980UfDfQ0AWBp38rzNzWGKo3Dk7hGY/P6Rw6Z1zdyf9K3g6V7AiAFJoXA+Y/sFAIvPwFgaV/SATC3f+TmpG8DS/8EQIoMDETvmhQCx/wg8QskjRMAlvYJAMvCBEAKTQ6BTUJgrwkAS/sEgGVhAiDF4hAIguryMKzVOyGwTAjEEwCW9gkAy8IEQAZs2BC9sxsC55y/qVn0EBAAlvYJAMvCBECGTAyBcy/YPHbYl25J/AJKYgLA0j4BYFmYAMigSqX6jnYEfK1crtXOvXBz87Av3Zr4hTSbEwCW9gkAy8IEQIbtHQKHH1uMEBAAlvYJAMvCBEAOFC0EBIClfQLAsjABkCMbN2799aC84+RuCCzO6UcDAsDSPgFgWZgAyKGhoad+rVKJTmqHQJTHEBAAlvYJAMvCBECOjYdAWKtfsOqx3Hw0IAAs7RMAloUJgAKYGALn5yAEBIClfQLAsjABUCBxCJQH6ye2Q6AWh8DiL2czBASApX0CwLIwAVBApVLrzRNDoC9j7wgIAEv7BIBlYQKgwOIQqFSay9ohsCNLISAALO0TAJaFCQDGQyAMa9svWLW5nvaPBgSApX0CwLIwAcC4735315viEAiCaPuqSx5vLDn+tsQv0H1NAFjaJwAsCxMAvEgnBMJaakNAAFjaJwAsCxMAvKS9QqB+REpCQABY2icALAsTALyibgiEQW1bGkJAAFjaJwAsCxMA9GzDhtYbJ4XACT9M5KIVAJb2CQDLwgQAU7Zx4643hGG0OA6BixMIAQFgaZ8AsCxMALDf4hAYHGwcFoa1py9Z/URjtkJAAFjaJwAsCxMAHLBSqfX6iSFw5AyHgACwtE8AWBYmAJg2E0Jg60yGgACwtE8AWBYmAJh2k0Pgyfp0h4AAsLRPAFgWJgCYMXEIDA/XF4Zh9EQnBE68fVouWgFgaZ8AsCxMADDjxkMgqP7i0suejA40BASApX0CwLIwAcCsufji1uu6IbD68i31o79yx35dtALA0j4BYFmYAGDWdUMgCKqPxyGw7OSphYAAsLRPAFgWJgBITBwClcruELhs7VO1ZT2+IyAALO0TAJaFCQASNx4CYfXnvYSAALC0TwBYFiYASI1uCIRh9FgnBE7+0T4vWgFgaZ8AsCxMAJA6p5zSenUlaP7N7hDY8qIQEACW9gkAy8IEAKkVh8BwpTknDGqPxiFw7Kl3di5aAWBpnwCwLEwAkHojI63XDg3VF4RBtPmyy5+M1q3f1hQAluYJAMvCBACZUSq1XhOG9fnloLap/UT835L4GgSA9TIBYFmYACBzWq3Wq+Il8f8WANbLBIBlYQIApkAAWC8TAJaFCQCYAgFgvUwAWBYmAGAKBID1MgFgWZgAgCkQANbLBIBlYQIApkAAWC8TAJaFCQCYAgFgvUwAWBYmAGAKBID1MgFgWZgAgCkQANbLBIBlYQIApkAAWC8TAJaFCQCYAgFgvUwAWBYmAGAKBID1MgFgWZgAgCkQANbLBIBlYQIApkAAWC8TAJaFCQCYgk4AXLRZANjLTgBYFiYAYArK5dqnwrAW/eMFjzYOP/bWxH+ALZ0TAJaFCQCYolKp9eZKpbmsHNZ2nL/qsWafELC9JgAsCxMAsJ+6IRCGte0XrNpcFwLWnQCwLEwAwAGaGAKrLnm8seT42xL/wbZkJwAsCxMAME2++91db6qEtWVBEAmBgk8AWBYmAGCa7RUCdSFQvAkAy8IEAMyQbgiEQW1bHAJHCIHCTABYFiYAYIZt2NB6oxAo1gSAZWECAGbJxo273hCG0eLxEDjhh4k/ANjMTABYFiYAYJbFITA42DgsDGtbLxYCuZwAsCxMAEBCSqXW6/eEwNOXrH6icaQQyM0EgGVhAgASJgTyNwFgWZgAgJSYEAJbL1n9ZF0IZHcCwFK/vpGfCwBIGSGQ/QkAS/Fun7d4dMGiRbe/LqnrE3gFcQgMD9cXBkH1iU4InHh70g8c1uMEgKVp7eshmts3cvHB/aO/n9Q1CeyHiy9uvS4OgTCo/uLSy56Mlp4gBNI+AWAp2b3tHbdw6chbk7oWgWnQDYEgqD6++vIt9WUn35H0g4u9xASAJba+kWfm9o2W5i8Z+YzP+CFn4hCoVHaHwGVrn6oJgfRNANjsb+TxuX0jZ/zt4ut/M6nrDpgl4yEQVn/eCYGvCIG0TADYrK1v9Kb5S0bnONQHBfSiEDj5R8k/KBV8AsBmdH0j1fhQ37zDRz6V1DUGpMgpp7ReXQmafxOG0WOXrd0iBBKcALAZWd/oz+b2jy6d0zfy5qSuLSDF4hAYrjTnhEHt0TgEjj31zuQfuAo2AWDTtkmH+gB6IASSmwCwA9/uQ31zjxj5QFLXEZBx3RAIwujRyy4XArMxAWD7vT2H+v7jKSOvTer6AXJmYgisEQIzOgFgU9qeQ30L+q77vaSuGaAAxj8aCKNH1qx9SgjMwASA9bL2/fTT+FDfvGO++6akrhWggOIQGBxsfDYoRQ9efsXWSAhM3wSAveQc6gPSohsCpVJ0/5p1T1XjEJi/JAUPlBmeALAXrW/k5+375dR5h9/87qSuC4B9arVar+qEQBDdt27907XjT7tLCOznBIDt3siu9qv97znUB2SCEDjwCYDCb0d8qG/uETd8MqlrAJhm8dvlSX8Ns2VPCPzfIIgeXLvuaR8NTGECoKDrG7mj/ecih/oghyqV2rwwrN03NNT4P/ETZNJfz2yIv8/4+w2D6IG1V2ytfVkIvOIEQHE2t290p0N9UACDg/XPrVn71M7L20+EpVL13+JXyEV5V2DPOwL/Oz4seMW6bTu+fOqPhcBLTADkf3P7Rx+LD/UdcsQN70rqfgZmURwA/3jho7X4ASD+ZTvxX58LBqJHhobqC0ql1muS/vpmy9BQ7TNBUP3puvXbopO+9pPEH4zTNgGQz83tG/mlQ31QUBMDoLs4BOJ/UKeoIVBqh8D6K3eHwPwl1yf+IJ2GCYDcrXOob/7i0U8kdZ8CCdtXAHS39KQ7WqvXbKkGpejRSqW+sGghEATVe9ZfuV0I9AuAHO329hYtWnT7G5O6L4GUeLkA6C4OgUsv21JrPyE+VsQQCEvVu4seAgIgu3OoD9inXgKgu24IhGH0RLncOGxkpFWYzww7Hw2Udtx9ZUFDQABkcSMPtf887u8XjbwzqfsNSLGpBEB3cQhcsqaYIVCpNP+6VIru2BMCu4oSAgIgG5t4qG/OnFJh3qkD9sP+BEB3u98ReCL+aODJgobAbVddtaNahBAQAOle+0l/e/s2OufgxTd+JKn7CMiYAwmA7jrvCKwubggMBNG/XH319vrJy+/ZtSCnISAAUjuH+oD9Mx0B0F0cAqsufTwKw+oWIZCvEBAA6Vn3UN/BS77/V0ndH0AOTGcAdHfUie0QWP14FATVpwYHixcCpVJ069VX78hVCAiA5Nd+0n9wnkN9wHSZiQDobmIIDJVrR2/cuOsNSX+/syUOgfb3PZqXEBAAST3pO9QHzJCZDIDulp50ezsEfhGFYa24ITCwo3by8rszGwICYLaf+Hcf6pu35PoPJ3WbAzk3GwHQ3ZEnTg6Bkctav5L09z9bhsPmXwWl3SFw6hk/3bXgiBsSf5IRAKlc51Df/zv6B7+a1G0NFMRsBkB3S0/YHQJBEG0tWggMDjb/Mg6BgYEd9dO+8bNfZiUEBMDMbfxf6usf/Yukbl+ggJIIgO6WHH9b68JvP1YVAukPAQEwA0/8/aMPtP88bn7/996R1O0KFFiSAdBd/3G3tS5YtbneDoGnh8qNQoVApdL8i9KEEFiY0hAQANP0pO9QH5AWaQiAF4VAGFUrlfoJAwO7CvM56HC58edpDgEBcIBP/P0jT7af/M9YeNjIh5K6DQEmSVMAjIfA8f/SDoHH6mFYK1wItO+PTw+Utv9T2kJAAOz3HOoD0imNASAEDjqoXK7/YSmIvjMwUK2ddkbyISAAet/c/tGx9tYe3Dfy6aRuL4BXlOYAGA+B4yaHwIYNrcL8u+fdEAiCavOrZ92bWAgIgB7WN3J/+8/j2q/2357U7QTQsywEQHd97RA496LNte4ZgSKFwPBw7Q9KwY7EQkAA7HvdQ33zFo9+9qCDWq9K6vYBmLIsBcDEEDjvws31MKhFlUp0UpFCYHCw9vtJhIAA2Gt9o0/Eh/oO7rvut5K6TQAOSBYDYF8hUC7XTt+4ceuvJ317zpZOCJQmhMCRMxsCAmB8nUN9CxeOFOavqgI5leUA2FcIBEHtq0UKgXb4fGpgoFopBdXG6Wfd99xMhUCRA6B7qG/ekuv+MKnvH2Da5SEAxkPgy7dOCoFSadtbkr59Z0scAqVStRyUosbXVtz//CFLpzcEChkADvUBeZanABACncOCvzcTIVCUAHCoDyiMPAZAd4d96ZbWORc8UgvDqFbkEFh+9gPPHWgI5D4AHOoDiibPATApBM7f1CyHtVpQrn11cHD7W5O+3WfL0FD0yckhcKMAmLzb26/2FyxadPvrkvreABJRhAB4UQiUa41yuf7NIoVApRJ9ojSw/yGQpwBo/7ei9qv9ixcsvuEPkvp+ABJXpAB4UQiEtWbRQiAMxz4yMFBdH//1wamEQB4CoP2kf1/7z+MOXnzj25L6PgBSo4gB0N2ivULg2mt3FOaJIQ6BIIjWttdYvuL+VwyBDAfA8/P6Rq+Zv2TkMw71AUxQ5ACYGALfOm/TWCcEgvqKIoXA8PDYh+MQCMPa2JkrH3zJEMhaAMztH/1FfKhv/pE3fjCprxkg1QTAhBA45pbWN899uNl+MmzEITAwsKMwf/977xA49KjJIZChAHCoD6AXAuDlQiBqtp8UVxYpBAYHxz7UDYFvrHzo2W4IpDkAHOoD2A8C4GVCIP5o4PxHxuIQKIXRWZVK9R1J31+zpVIZ+2hYiq4Mg6i5fMUDz5530eaxFAbAvfMc6gPYPwKghxA4ZvcZgfijgfaTYqFCID4s2I6fK4cG68+nJAAc6gOYDgJgKiHwg9bK88bfETh7w4bonUnff7MlPiOwYUMzsQN1c/tGS3P7R/9h7hevf29SXwNArgiA/QuBFec+PBYGtUZYrl14ban+nqTvRwCYEgEwDSEQRs0wrF5ULte9OgUgGwTAge8LR9/cOnPlg0Ig/NTfAAAI4UlEQVQAgOwQANO3zx99U+vMbz30THxyPg6BoaHG+5K+fwFgnwTADIZAGO1sb40QACB1BMDM7dCjJofANdc03p/0/Q0AHQJgtkOgJgQASJ4AmN0Q+PrZD+w5I1BbUy43PpD0/Q9AQQmA2V98RqATAmEt/l0Da4UAALNOAKQjBNorxf/sbtLXAwAFIQCSXxwC8S/c2f2OQC2IfxFP0tcFADknANKz+IzA7hCIhAAAM0sApG97h8Dw8NjHkr5OAMgZAZDeHbr0xkkhcE248+NJXy8A5IQASP8OWXpD6/Sz7hUCAEwfAZCdfa4TAvc9FwbVsd1nBHb+dtLXDwAZJQCyt/EQCGtjpTC6RggAMGUCILvrhMCZ9z4fBFEnBIaGqr+T9PUEQEYIgOzvc0feKAQAmBoBkJ/FIXDaGT97vlSqNuIQ2BBGv5v09QVASgmA/K0bAkFQbZaC6DtCAIAXEQD53cQQCIPouvZ9/emkrzcAUkIA5H/dEBgY2NEJgaGh+h8lfd0BkDABUJxNDIGgVP2+EAAoMAFQvL0QAtVGHAIbyvU/Tvo6BGCWCYDibuGRN7wQAkH1+4ODjT9J+noEYJYIAFtwxA2tk5ffsycEIiEAUAQCwLrbHQJ37+qcEWiHwNBQ40+Tvj4BmCECwPbegiXXd0Lg6oFqMyzVbt5QbvxZ0tcpANNMANhLbeERN7ROOeOnnRAYGKheNzAQvSvp6xWAaSIA7JUWh8BFlz6+c6hS/2LS1ysA00QAWC9bef6mxlClcXjS1ysA00QAWC8TAAA5IwCslwkAgJwRANbLBABAzggA62UCACBnBID1MgEAkDMCwHqZAADIGQFgvUwAAOSMALBeJgAAckYAWC8TAAA5IwCslwkAgJwRANbLBABAzggA62UCACBnBID1MgEAkDMCwHqZAADIGQFgvUwAAOSMALBeJgAAckYAWC8TAAA5IwCslwkAgJwRANbLBABAzggA62UCACBnBID1MgEAkDMCwHqZAADIGQFgvUwAAOSMALBeJgAAckYAWC8TAAA5IwCslwkAgJwRANbLBABAzggA62UCACBnBID1MgEAkDMCwHqZAADIGQFgvUwAAOSMALBeJgAAckYAWC8TAAA5IwCslwkAgJwRANbLBABAzggA62UCACBnBID1MgEAkDMCwHqZAADIGQFgvUwAAOSMALBeJgAAckYAWC8TAAA5IwCslwkAgJwRANbLBABAzggA62UCACBnBID1MgEAkDMCwHqZAADIGQFgvUwAAOSMALBeJgAAckYAWC8TAAA5IwCslwkAgJwRANbLBABAzggA62UCACBn2gEw/5LVTzY/d+SNiT/JWHonAAByZnBw+1uDIBoOSlHj9LPufU4I2L4mAAByamgo+mRpoFqOQ2D52Q88d8hSIWAvTAAA5FwYjn1kYKC6XgjYxAkAgIKIQyAIorXtNZavuF8IFHwCAKBghofHPhyHQBjWxs5c+aAQKOgEAEBBCYFiTwAAFNzg4NiHuiHwjZUPPXvoUUKgCBMAAHTEIRCG0eVCoBgTAABMEobN3yqF1VVhEDU7IeCjgVxOAACwT+MhEEbNM1c+tFMI5GsCAICX1QmB0o5OCKw49+FnvnD0zYk/eZkAAGCWbNjQ/GAnBIJaQwhkfwIAgCmJQyAIqhcLgWxPAACwXwYHm78pBLI7AQDAAZkYAt889992fmGZEMjCBAAA06Jcrr07CKKVYSgEsjABAMC0ikMgLNXPrpTrzZXnbXrmi0IglRMAAMyISSFw/iM7hUC6JgAAmFEDA9G7JoXAMT9I/MnPBAAAs2RyCGwSAgIAgCKJQyAIqsvDsFbvhMAyISAAACiMDRuid3ZD4JzzNzWFgAAAoEAmhsC5F2weO+xLtyT+5FiECQAAUiEOgXYEfK0TAhdubh72pVsTf5LM8wQAAKlSqVTfEYdAuVyrCQEBAEDB7B0Chx8rBAQAAIUxMLDj7RNDYLF3BAQAAMUxNPTUr4Vh9BUhIAAAKKA4BCqV6KR2CEQ+GhAAABTMeAiEtfr5qx4TAgIAgCKJQ6A8WD+xHQK1OAQWf1kICAAACqNUar1ZCAgAAAoqDoFKpbmsHQI74hDo89GAAACgOLohEIa17Res2lz3joAAAKBAJobAqksebyw5/rbEn3zTMAEAQCF897u73lQJa8uCIBICAgCAotkrBOpFDQEBAEAhdUMgDGrb4hA4omAhIAAAKLQNG1pvnBQCJ/ww8SdnAQAAs2Tjxl1vCMNocRwCFxcgBAQAAEwQh8DgYOOwMKxtzXMICAAA2IdSqfX6PSHw9CWrn2gcmbMQEAAA8DImhMDWPIWAAACAHkwOgSfrWQ8BAQAAUxCHwPBwfWEYRk90QuDE2xN/MhcAADBLxkMgqP7i0suejLIWAgIAAA7AxRe3XtcNgdWXb6kf/ZU7En9yFwAAMEu6IRAE1cfjEFh2crpDQAAAwDSKQ6BS2R0Cl619qpbWEBAAADADxkMgrP68EwIp+2hAAADADOqGQBhGj+1+R+BHiT/5CwAAmCWnnNJ6dSVo/s3uENiSeAgIAACYRXEIDFeac8Kg9mgcAseeeqcAAICiSDoEBAAAJKgbAkEYPXrZ5bMXAgIAAFJgYgismYUQEAAAkCJxCAwONj4blKIH16x9asZCQAAAQAqNh0AQ3b9m3VPVOATmLxEAAFAI3RAolaL7r1j3dO340+6alhAQAACQAa1W61WdEAii+9atP/AQEAAAkCHTFQICAAAyqBsCQRDde8W6bVMOAQEAABk2/o5AqfqzqYSAAACAnBgaqn0mDoF167dFrxQCAgAAcqYTAkH1p+uv3Bad9LWfCAAAKJI4BIKgek83BOYvuV4AAEBRvBAC28dDQAAAQEEMDtb/Z/cdgTVrtzwrAACgQCqV+v8Iw+jH7SD4fNJfCwAAAAAAAAAAAAAAAAAAAAAAAAAAAAAAAAAAAAAAAAAAAAAAAAAAAAAAAAAAAAAAAAAAAAAAAAAAAAAAAAAAAAAAAAAAAAAAAAAAAAAAAADA3v4/qUbsv7ZhEXgAAAAASUVORK5CYII=;movable=1;resizable=1;rotatable=1;deletable=1;editable=1;locked=0;connectable=1;container=0;" vertex="1" parent="96xqmQHdzvCccrLlqiye-36">
          <mxGeometry x="18" y="8" width="55" height="55" as="geometry" />
        </mxCell>
        <mxCell id="96xqmQHdzvCccrLlqiye-10" value="Terraform CLI" style="text;html=1;align=center;verticalAlign=middle;resizable=1;points=[];autosize=1;strokeColor=none;fillColor=none;movable=1;rotatable=1;deletable=1;editable=1;locked=0;connectable=1;container=0;" vertex="1" parent="96xqmQHdzvCccrLlqiye-36">
          <mxGeometry y="71" width="91" height="26" as="geometry" />
        </mxCell>
        <mxCell id="96xqmQHdzvCccrLlqiye-42" value="" style="group" vertex="1" connectable="0" parent="1">
          <mxGeometry x="-80" y="454" width="95" height="94" as="geometry" />
        </mxCell>
        <mxCell id="96xqmQHdzvCccrLlqiye-39" value="" style="rounded=0;whiteSpace=wrap;html=1;strokeColor=#4335ac;strokeWidth=2;movable=1;resizable=1;rotatable=1;deletable=1;editable=1;locked=0;connectable=1;container=0;" vertex="1" parent="96xqmQHdzvCccrLlqiye-42">
          <mxGeometry x="2" width="92" height="71" as="geometry" />
        </mxCell>
        <mxCell id="96xqmQHdzvCccrLlqiye-40" value="" style="shape=image;verticalLabelPosition=bottom;labelBackgroundColor=default;verticalAlign=top;aspect=fixed;imageAspect=0;image=data:image/png,iVBORw0KGgoAAAANSUhEUgAAAgAAAAIACAYAAAD0eNT6AAAABGdBTUEAALGPC/xhBQAAAAFzUkdCAK7OHOkAAAAgY0hSTQAAeiYAAICEAAD6AAAAgOgAAHUwAADqYAAAOpgAABdwnLpRPAAAIABJREFUeJzt3XmQnPVh52F8J7YT346vOD6T2HES59rKtber9ipX7daucqDLYFugGYFAGHOZAIUtY7CQCbcMQggJmH7f7pkRWBWXg2e4DMHgYAw2dwTCGISQ1G8fIw6rt9+WepgRAnqkmXmv56n6lv6Dme53uj/d/ZPmoIMAAAAAAAAAAAAAAAAAAAAAAAAAAAAAAAAAAAAAAAAAAAAAAAAAAAAAAAAAAAAAAAAAAAAAAAAAAAAAAAAAAAAAAAAAAAAAAAAAAAAAAAAAKJyhSv34Uim6dXCw+e+T/loAgFkyOFg/+durf7Hrqqu2N9oh8MOhoeZ/SPprAgBmWBwAX19x/655/aOt40+7q7X+ynYIBNU7Bwcbn036awMAZsjEAOhOCABAzu0rACaGwJVXba8LAQDImZcLgBeFQKn6YyEAADnQSwDsHQJBUL1LCABAhk0lALo79tQ7W+vWb4tKpR0/EQIAkEH7EwATQ+CKdVvrA0H1njgEWq3Wq5L+fgCAHhxIAMSbv2R3CKxd93QtCKIHhyvNOUIAAFLuQANACABABk1XALwoBK54ulYqRQ8JAQBIoekOgL1D4PIrtgoBAEibmQqAiVt28o/2hEB1kxAAgBSYjQDYVwgMDdUXnHJK69VJf/8AUEizGQCTQmDtU/FhwU4IlEqt1yR9OwBAoSQRAJPfEWiHwED0iBAAgFmUZABMDIE1a4UAAMyaNATAXmcEoqAUPSoEAGAGpSkAult60h2t1Wu2VOMQqFTqC4UAAEyzNAbAxBC49LIttSCoPiYEAGAapTkAJobAJWu21MIweqJcbhw2MtJ6bdK3GwBkWhYCYO8QCILqk0IAAA5AlgJg8kcDTwgBANhfWQyAiSGw6tLHIyEAAFOU5QDYRwg8NTgoBADgFeUhALo76sR2CKzeHQLDg42jNm7c9Yakb18ASKU8BcAL7wjc3gmBMKw9NVSuHS0EAGAveQyA7o48MQ6BXwgBANhbngPgpUJg5LLWryR9uwNAoooQAN0tPWF3CARBtFUIAFBoRQqA7pYcf1vrwm//vCoEACisIgZAd/3H3da6YNXmejsEtg2VG0cPDOz61aTvDwCYFUUOgPEQOP5fOiEQhrVqpVI/QQgAkHsCYO8QeEwIAJB/AmAfIXCcEAAg5wTAy4fAuRdtrgVh1AmBDRtab0z6/gKAaSEAXnl9e0Jg9zsC0UlCAIDMEwBTC4HzLtxcD4NaVC7XTt+4ceuvJ33/AcB+EQBCAIACEgAHEAJfvnU8BIKg9lUhAEBmCIDpD4FSadtbkr5fAeBlCYDp2+I4BC4SAgBkgACY/h32pVta51zwSC0Mo1ocAoOD29+a9P0MAJMIgBkOgfM3NcthrRaUhQAAKSIAZjEEyrVGuVz/phAAIHECIIEQCGvNOASuvXbH25K+/wEoKAEw+1s0MQSC+gohAMCsEwDJhsC3zts0JgQAmHUCIPktOuaW1jfPfbgZhrV6HAIDAzvenvR1AUDOCYD0LA6Bs89rh0BQa4Tl2oXDw7XfSPr6ACCnBED6tuiYHwgBAGaWAEjvxkMgjJpxCFxbqr8n6esFgJwQAOlfHAIrzn14TAgAMG0EQHY2HgLxRwNh9aJyuf7epK8fADJKAGRvXzj65taZKx8UAgDsPwGQ3X3+6JvaIfDQzjCImnEIDA013pf09QRARgiA7K8TAt966JkwjHa2t0YIAPCKBEB+tncIXHNN4/1JX18ApJQAyN8OPUoIAPAKBEB+NzkEakIAgBcIgPwv/mjg62c/8Mzuw4K1NeVy4wNJX3cAJEwAFGfjIRDWmkEQrRUCAAUmAIq3ySFQCyqVsY8mfR0CMMsEQHEXnxFYvuKBZ4UAQAEJAHshBKJOCAwPj30s6esSgBkmAKw7IQBQIALA9t4hS29onX7WveMhcE248+NJX6cATDMBYC+1Q4+6sbV8xf3PB0E0FgxE6wcGdv1q0tcrANNEANgrLQ6By9c9XR8u1/970tcrANNEAFgvW7X6ie1D5fr/Svp6BWCaCADrZQIAIGcEgPUyAQCQMwLAepkAAMgZAWC9TAAA5IwAsF4mAAByRgBYLxMAADkjAKyXCQCAnBEA1ssEAEDOCADrZQIAIGcEgPUyAQCQMwLAepkAAMgZAWC9TAAA5IwAsF4mAAByRgBYL0syACqV5n8cqkT/UCpte0sS/3+AXBIA1suSDID2Nfq5UmnHc+UwqpeD2ulCAGAaCADrZUkHwD9e+Ght0ZduaX3rvE1j5bDWLAf1Fddeu+NtSXw9ALkgAKyXpSEAul9LHALfPPfhZhjW6nEIDAzseHsSXxdApgkA62VpCoDuFh2zJwSCWiMIopVCAGAKBID1sjQGQHdxCJx9XvyOQNQMy7ULh4drv5HE1wmQKQLAelmaA6C7Rcf8QAgA9EoAWC/LQgB0Nx4CQa0Rh8C1pfp7kvi6AVJNAFgvy1IAdBeHwIpzHx4TAgD7IACsl2UxALqbFAJh9aJyuf7eJL4PgFQRANbLshwA3X3h6JtbZ658UAgAxASA9bI8BEB3nz/6pnYIPLQz/geF4hAYGmq8L4nvCyBRAsB6WZ4CoLtOCHzroWfCMNrZ3hohABSKALBelscA6G7vELjmmsb7k/g+gfw6ePGNb5vbP7rsoINar0r6axknAKyX5TkAujv0KCEATK+5/df/8dy+kYvn9o3W48cZAWCZWxECoLs4BL5+9gPPhEEU/76BNeVy4wNJfN9ANh1xxMY3zF8yOqf9pP+9vR9fBIBlbkUKgO7ijwY6IRDWmkEQrRUCwMtZcNg/v39u/8ip7Vf8W17qcUUAWOZWxADobmIItFcKw7GPJHE7AOlzyimtV89fMvKZ9qv90ry+0ede6fFEAFjmVuQA6G7yOwK1oFIZ+2gStweQvDmLvveW9uPCovYr/p9O5XFEAFjmJgBeWHxGYPmKB56Nf+mQEIBiOXjx9/+kc6ivf6SxP48fAsAyNwHw4u0dAsPDYx9L4vYBZtbLHeqb6gSAZW4C4KV36NIbhQDk0MGLb/xI+9X+Ge2f86em6/FCAFjmJgBeeYcsvaF1+ln3jofANeHOjydxewH7b9Khvv7R56f7cUIAWOYmAHrf5zohcN9zYVAd231GYOdvJ3G7Ab1buHTkrXP7R5fO6x95aCYfHwSAZW4CYOobD4GwNlYKo2uEAKTPgR7qm+oEgGVuAmD/1wmBM+99PgiiTggMDVV/J4nbEdite6hvXt/oTbP9eCAALHMTAAe+zx15oxCABC044rqPTvehvqlOAFjmJgCmb3uHwIYw+t0kblcogpk+1DfVCQDL3ATA9C8OgdPO+Fk7BKrNUhB9RwjA9Oke6mu/4n846Z/1iRMAlrkJgJnbxBAIg+i69vf76SRuZ8iD7qG+eX0jzaR/tvc1AWCZmwCY+XVDYGBghxCAKRj/l/r6R25O+uf4lSYALHMTALO3iSEQlKrfHxqq/1EStzukXftV/sfiQ31z+0a3Jv1z2+sEgGVuAmD290IIVBtxCGwo1/84idsf0iRth/qmOgFgmZsASG4Lj7zhhRAIhADFNO/wm9/d/nk4bm7/6L8l/TN5IBMAlrkJgOS34IgbWicvv2c8BAYHG3+SxP0Bsynth/qmOgFgmZsASM92h8DduzpnBILo+0NDjT9N4n6BmbJw4civzFs8uqB9vf9r0j9v0z0BYJmbAEjfFiy5vhMCVw9Um2GpdrMQIOuyeKhvqhMAlrkJgPRu7xDYUG78WRL3E+yP7qG+eX2j18zrH8n9c5EAsMxNAKR/3RDY89HADyqVxr9L4v6CXvzdkf/8G+3r9rj2NiX9szObS1sAnHjO+Y/smt9+8Ej6hrH0TgBkZ/EZgVPP+Okv2yHQKJWqI94RIE3ydqhvqktVAGzY0PxgqRTdcvXV22tfWX73L4WA7WsCIHuLQ+Afvn7Prquv7oTA9d4RICl5PtQ31aUqALoGB5t/GZSqo+1XDfXTvvGzX8YPHknfUJaeCYDsLo76E796166rrtreKA1Etw6XG3+exP1I8fz9kaMf7/z63b6Rp5P+OUjLUhkAXZVK8y8mhsBCIWD9AiAPGw+Bq7fXgzD618HB2n9K4v4k34p2qG+qS3UAdMWvEkpCwPZMAORncQic9LWfdEKgFFTvHBqq/eck7lfypaiH+qa6TARAV/wbyQZK2/9JCBR7AiB/64bAlXtCYLhc+y9J3L9kW+dQX//o2rn9I88mfU1nYZkKgK5yuf6HpSD6ztUD1dppZwiBok0A5Hd7h8DgYO2/JnE/kx1z+kbe3L52Fs3tG70z6es3a8tkAHR1Q6C9xlfPulcIFGQCoBg7/rQf77rqqm1CgH2a33/Db3cO9fWPbEv6Ws3qMh0AXcPDtT8oBTu+EwTVphDI/wRAsXb8aXe1rrxqW2N3CDQ+m8T9TjrMmVN6zbzFo59tv9r/nkN9B75cBEBX+1XC7wuB/E8AFHNxCKy/crsQKKCFfSPvmRf/+t2+kUeSvg7ztFwFQFcnBEoTQuBIIZCnCYBib/c7At0zAkIgzxzqm9nlMgC6yuXapwYGqpX4jMDpZ937vBDIxwSAxRsPgVL1x0IgPw499KZfmxcf6usf+XHS11jel+sA6IpDoP0gUQ5KcQjc95wQyPYEgE1cNwSCoHqXEMiuuYdf9zsO9c3uChEAXcPDtd/rhsDXVtz//CFLhUAWJwBsXzv21Dtb69Zvi0qlHT8RAtngUF+yK1QAdE0MgeVnP/CcEMjWBIC93OIQuGLd1vpAUL0nDoFWq4APcinXPdTXftJ/NOnrpcgrZAB0DQ1Fn5wcAjcmfofYK08AWC+LQ2DtuqdrQRA9MFxpzhECyXOoL10rdAB0VSrRJ0oDQiArEwDW6+YvmRQCDwqB2dc91Devb+SupK8HmzwBMEEYjn1kYKC6Pv7rg0IgvRMANtWNh8AVT9dKpeghITDzOof6+kfOad/+fl5SOgGwD3EItF8trG2vsXzF/UIgZRMAtr/rhsDlV2wVAjNgzil3v759G89xqC8bEwAvY3h47MNxCIRhNHbmygeFQEomAGw6tuzkH+0JgeomIXBg5n7x+vfOiw/19Y1uTvp+td4nAHrwQgjUOiFw6FFCIMkJAJvOTQyBoaH6glNOab06iWsri+b3jfx1+9V+yaG+bE4ATMHg4NiHuiHwjZUPPSsEkpkAsJlYNwTaP+NC4GXMPeLWX5/X+Zf6Rn+S9H1mBzYBsB/iEAjD6HIhkMwEgM3kdofAU+MhUCq1XpPEtZY2f79k5Hcd6svXBMABCMPmb5XC6qpyWGt2QsAZgVmZALDZWBwCa9a2Q2AgeqSoITD5UF/y94lN7wTANOiEQGnHqjCoNc5c+dBOITCzEwA2m9vz0UAUlKJHixICf9d/0/vmOdSX+wmAabRhQ/OD3RBYce7Dz3zh6JsTv4PzOAFgSWzpSXe0Vq/ZUo1DoFKpL8xjCHQP9bWf+J9L+va2mZ8AmAFCYGYnACzJxSFw6WVbakFQfSwPITDhUN/dSd+2NrsTADNocLD5m+0HiYuFwPROAFgaFofAJWu21MIweqJcbhw2MtJ6bRLX5P6av3j0E/GhvvYr/nrSt6UlMwEwC8ZDIIyanRBYJgQOZALA0rQshYBDfTZxAmAWtR8cPtAOgUvK5VrzG996eOfnj74p8QsgixMAlsYt+0r80cCT9aBUfbxcri9I078sGB/qa7/aP7W9J5O+nSw9EwAJuOaaxvvbIfDtOATOOsdHA1OdALA0b9nJd7TWX7mtMTjY/NskrtEXtF41f8nIZxzqs5eaAEhQOwDeHZbqZ1fK9ebK8zY980UfDfQ0AWBp38rzNzWGKo3Dk7hGY/P6Rw6Z1zdyf9K3g6V7AiAFJoXA+Y/sFAIvPwFgaV/SATC3f+TmpG8DS/8EQIoMDETvmhQCx/wg8QskjRMAlvYJAMvCBEAKTQ6BTUJgrwkAS/sEgGVhAiDF4hAIguryMKzVOyGwTAjEEwCW9gkAy8IEQAZs2BC9sxsC55y/qVn0EBAAlvYJAMvCBECGTAyBcy/YPHbYl25J/AJKYgLA0j4BYFmYAMigSqX6jnYEfK1crtXOvXBz87Av3Zr4hTSbEwCW9gkAy8IEQIbtHQKHH1uMEBAAlvYJAMvCBEAOFC0EBIClfQLAsjABkCMbN2799aC84+RuCCzO6UcDAsDSPgFgWZgAyKGhoad+rVKJTmqHQJTHEBAAlvYJAMvCBECOjYdAWKtfsOqx3Hw0IAAs7RMAloUJgAKYGALn5yAEBIClfQLAsjABUCBxCJQH6ye2Q6AWh8DiL2czBASApX0CwLIwAVBApVLrzRNDoC9j7wgIAEv7BIBlYQKgwOIQqFSay9ohsCNLISAALO0TAJaFCQDGQyAMa9svWLW5nvaPBgSApX0CwLIwAcC4735315viEAiCaPuqSx5vLDn+tsQv0H1NAFjaJwAsCxMAvEgnBMJaakNAAFjaJwAsCxMAvKS9QqB+REpCQABY2icALAsTALyibgiEQW1bGkJAAFjaJwAsCxMA9GzDhtYbJ4XACT9M5KIVAJb2CQDLwgQAU7Zx4643hGG0OA6BixMIAQFgaZ8AsCxMALDf4hAYHGwcFoa1py9Z/URjtkJAAFjaJwAsCxMAHLBSqfX6iSFw5AyHgACwtE8AWBYmAJg2E0Jg60yGgACwtE8AWBYmAJh2k0Pgyfp0h4AAsLRPAFgWJgCYMXEIDA/XF4Zh9EQnBE68fVouWgFgaZ8AsCxMADDjxkMgqP7i0suejA40BASApX0CwLIwAcCsufji1uu6IbD68i31o79yx35dtALA0j4BYFmYAGDWdUMgCKqPxyGw7OSphYAAsLRPAFgWJgBITBwClcruELhs7VO1ZT2+IyAALO0TAJaFCQASNx4CYfXnvYSAALC0TwBYFiYASI1uCIRh9FgnBE7+0T4vWgFgaZ8AsCxMAJA6p5zSenUlaP7N7hDY8qIQEACW9gkAy8IEAKkVh8BwpTknDGqPxiFw7Kl3di5aAWBpnwCwLEwAkHojI63XDg3VF4RBtPmyy5+M1q3f1hQAluYJAMvCBACZUSq1XhOG9fnloLap/UT835L4GgSA9TIBYFmYACBzWq3Wq+Il8f8WANbLBIBlYQIApkAAWC8TAJaFCQCYAgFgvUwAWBYmAGAKBID1MgFgWZgAgCkQANbLBIBlYQIApkAAWC8TAJaFCQCYAgFgvUwAWBYmAGAKBID1MgFgWZgAgCkQANbLBIBlYQIApkAAWC8TAJaFCQCYAgFgvUwAWBYmAGAKBID1MgFgWZgAgCkQANbLBIBlYQIApkAAWC8TAJaFCQCYgk4AXLRZANjLTgBYFiYAYArK5dqnwrAW/eMFjzYOP/bWxH+ALZ0TAJaFCQCYolKp9eZKpbmsHNZ2nL/qsWafELC9JgAsCxMAsJ+6IRCGte0XrNpcFwLWnQCwLEwAwAGaGAKrLnm8seT42xL/wbZkJwAsCxMAME2++91db6qEtWVBEAmBgk8AWBYmAGCa7RUCdSFQvAkAy8IEAMyQbgiEQW1bHAJHCIHCTABYFiYAYIZt2NB6oxAo1gSAZWECAGbJxo273hCG0eLxEDjhh4k/ANjMTABYFiYAYJbFITA42DgsDGtbLxYCuZwAsCxMAEBCSqXW6/eEwNOXrH6icaQQyM0EgGVhAgASJgTyNwFgWZgAgJSYEAJbL1n9ZF0IZHcCwFK/vpGfCwBIGSGQ/QkAS/Fun7d4dMGiRbe/LqnrE3gFcQgMD9cXBkH1iU4InHh70g8c1uMEgKVp7eshmts3cvHB/aO/n9Q1CeyHiy9uvS4OgTCo/uLSy56Mlp4gBNI+AWAp2b3tHbdw6chbk7oWgWnQDYEgqD6++vIt9WUn35H0g4u9xASAJba+kWfm9o2W5i8Z+YzP+CFn4hCoVHaHwGVrn6oJgfRNANjsb+TxuX0jZ/zt4ut/M6nrDpgl4yEQVn/eCYGvCIG0TADYrK1v9Kb5S0bnONQHBfSiEDj5R8k/KBV8AsBmdH0j1fhQ37zDRz6V1DUGpMgpp7ReXQmafxOG0WOXrd0iBBKcALAZWd/oz+b2jy6d0zfy5qSuLSDF4hAYrjTnhEHt0TgEjj31zuQfuAo2AWDTtkmH+gB6IASSmwCwA9/uQ31zjxj5QFLXEZBx3RAIwujRyy4XArMxAWD7vT2H+v7jKSOvTer6AXJmYgisEQIzOgFgU9qeQ30L+q77vaSuGaAAxj8aCKNH1qx9SgjMwASA9bL2/fTT+FDfvGO++6akrhWggOIQGBxsfDYoRQ9efsXWSAhM3wSAveQc6gPSohsCpVJ0/5p1T1XjEJi/JAUPlBmeALAXrW/k5+375dR5h9/87qSuC4B9arVar+qEQBDdt27907XjT7tLCOznBIDt3siu9qv97znUB2SCEDjwCYDCb0d8qG/uETd8MqlrAJhm8dvlSX8Ns2VPCPzfIIgeXLvuaR8NTGECoKDrG7mj/ecih/oghyqV2rwwrN03NNT4P/ETZNJfz2yIv8/4+w2D6IG1V2ytfVkIvOIEQHE2t290p0N9UACDg/XPrVn71M7L20+EpVL13+JXyEV5V2DPOwL/Oz4seMW6bTu+fOqPhcBLTADkf3P7Rx+LD/UdcsQN70rqfgZmURwA/3jho7X4ASD+ZTvxX58LBqJHhobqC0ql1muS/vpmy9BQ7TNBUP3puvXbopO+9pPEH4zTNgGQz83tG/mlQ31QUBMDoLs4BOJ/UKeoIVBqh8D6K3eHwPwl1yf+IJ2GCYDcrXOob/7i0U8kdZ8CCdtXAHS39KQ7WqvXbKkGpejRSqW+sGghEATVe9ZfuV0I9AuAHO329hYtWnT7G5O6L4GUeLkA6C4OgUsv21JrPyE+VsQQCEvVu4seAgIgu3OoD9inXgKgu24IhGH0RLncOGxkpFWYzww7Hw2Udtx9ZUFDQABkcSMPtf887u8XjbwzqfsNSLGpBEB3cQhcsqaYIVCpNP+6VIru2BMCu4oSAgIgG5t4qG/OnFJh3qkD9sP+BEB3u98ReCL+aODJgobAbVddtaNahBAQAOle+0l/e/s2OufgxTd+JKn7CMiYAwmA7jrvCKwubggMBNG/XH319vrJy+/ZtSCnISAAUjuH+oD9Mx0B0F0cAqsufTwKw+oWIZCvEBAA6Vn3UN/BS77/V0ndH0AOTGcAdHfUie0QWP14FATVpwYHixcCpVJ069VX78hVCAiA5Nd+0n9wnkN9wHSZiQDobmIIDJVrR2/cuOsNSX+/syUOgfb3PZqXEBAAST3pO9QHzJCZDIDulp50ezsEfhGFYa24ITCwo3by8rszGwICYLaf+Hcf6pu35PoPJ3WbAzk3GwHQ3ZEnTg6Bkctav5L09z9bhsPmXwWl3SFw6hk/3bXgiBsSf5IRAKlc51Df/zv6B7+a1G0NFMRsBkB3S0/YHQJBEG0tWggMDjb/Mg6BgYEd9dO+8bNfZiUEBMDMbfxf6usf/Yukbl+ggJIIgO6WHH9b68JvP1YVAukPAQEwA0/8/aMPtP88bn7/996R1O0KFFiSAdBd/3G3tS5YtbneDoGnh8qNQoVApdL8i9KEEFiY0hAQANP0pO9QH5AWaQiAF4VAGFUrlfoJAwO7CvM56HC58edpDgEBcIBP/P0jT7af/M9YeNjIh5K6DQEmSVMAjIfA8f/SDoHH6mFYK1wItO+PTw+Utv9T2kJAAOz3HOoD0imNASAEDjqoXK7/YSmIvjMwUK2ddkbyISAAet/c/tGx9tYe3Dfy6aRuL4BXlOYAGA+B4yaHwIYNrcL8u+fdEAiCavOrZ92bWAgIgB7WN3J/+8/j2q/2357U7QTQsywEQHd97RA496LNte4ZgSKFwPBw7Q9KwY7EQkAA7HvdQ33zFo9+9qCDWq9K6vYBmLIsBcDEEDjvws31MKhFlUp0UpFCYHCw9vtJhIAA2Gt9o0/Eh/oO7rvut5K6TQAOSBYDYF8hUC7XTt+4ceuvJ317zpZOCJQmhMCRMxsCAmB8nUN9CxeOFOavqgI5leUA2FcIBEHtq0UKgXb4fGpgoFopBdXG6Wfd99xMhUCRA6B7qG/ekuv+MKnvH2Da5SEAxkPgy7dOCoFSadtbkr59Z0scAqVStRyUosbXVtz//CFLpzcEChkADvUBeZanABACncOCvzcTIVCUAHCoDyiMPAZAd4d96ZbWORc8UgvDqFbkEFh+9gPPHWgI5D4AHOoDiibPATApBM7f1CyHtVpQrn11cHD7W5O+3WfL0FD0yckhcKMAmLzb26/2FyxadPvrkvreABJRhAB4UQiUa41yuf7NIoVApRJ9ojSw/yGQpwBo/7ei9qv9ixcsvuEPkvp+ABJXpAB4UQiEtWbRQiAMxz4yMFBdH//1wamEQB4CoP2kf1/7z+MOXnzj25L6PgBSo4gB0N2ivULg2mt3FOaJIQ6BIIjWttdYvuL+VwyBDAfA8/P6Rq+Zv2TkMw71AUxQ5ACYGALfOm/TWCcEgvqKIoXA8PDYh+MQCMPa2JkrH3zJEMhaAMztH/1FfKhv/pE3fjCprxkg1QTAhBA45pbWN899uNl+MmzEITAwsKMwf/977xA49KjJIZChAHCoD6AXAuDlQiBqtp8UVxYpBAYHxz7UDYFvrHzo2W4IpDkAHOoD2A8C4GVCIP5o4PxHxuIQKIXRWZVK9R1J31+zpVIZ+2hYiq4Mg6i5fMUDz5530eaxFAbAvfMc6gPYPwKghxA4ZvcZgfijgfaTYqFCID4s2I6fK4cG68+nJAAc6gOYDgJgKiHwg9bK88bfETh7w4bonUnff7MlPiOwYUMzsQN1c/tGS3P7R/9h7hevf29SXwNArgiA/QuBFec+PBYGtUZYrl14ban+nqTvRwCYEgEwDSEQRs0wrF5ULte9OgUgGwTAge8LR9/cOnPlg0Ig/NTfAAAI4UlEQVQAgOwQANO3zx99U+vMbz30THxyPg6BoaHG+5K+fwFgnwTADIZAGO1sb40QACB1BMDM7dCjJofANdc03p/0/Q0AHQJgtkOgJgQASJ4AmN0Q+PrZD+w5I1BbUy43PpD0/Q9AQQmA2V98RqATAmEt/l0Da4UAALNOAKQjBNorxf/sbtLXAwAFIQCSXxwC8S/c2f2OQC2IfxFP0tcFADknANKz+IzA7hCIhAAAM0sApG97h8Dw8NjHkr5OAMgZAZDeHbr0xkkhcE248+NJXy8A5IQASP8OWXpD6/Sz7hUCAEwfAZCdfa4TAvc9FwbVsd1nBHb+dtLXDwAZJQCyt/EQCGtjpTC6RggAMGUCILvrhMCZ9z4fBFEnBIaGqr+T9PUEQEYIgOzvc0feKAQAmBoBkJ/FIXDaGT97vlSqNuIQ2BBGv5v09QVASgmA/K0bAkFQbZaC6DtCAIAXEQD53cQQCIPouvZ9/emkrzcAUkIA5H/dEBgY2NEJgaGh+h8lfd0BkDABUJxNDIGgVP2+EAAoMAFQvL0QAtVGHAIbyvU/Tvo6BGCWCYDibuGRN7wQAkH1+4ODjT9J+noEYJYIAFtwxA2tk5ffsycEIiEAUAQCwLrbHQJ37+qcEWiHwNBQ40+Tvj4BmCECwPbegiXXd0Lg6oFqMyzVbt5QbvxZ0tcpANNMANhLbeERN7ROOeOnnRAYGKheNzAQvSvp6xWAaSIA7JUWh8BFlz6+c6hS/2LS1ysA00QAWC9bef6mxlClcXjS1ysA00QAWC8TAAA5IwCslwkAgJwRANbLBABAzggA62UCACBnBID1MgEAkDMCwHqZAADIGQFgvUwAAOSMALBeJgAAckYAWC8TAAA5IwCslwkAgJwRANbLBABAzggA62UCACBnBID1MgEAkDMCwHqZAADIGQFgvUwAAOSMALBeJgAAckYAWC8TAAA5IwCslwkAgJwRANbLBABAzggA62UCACBnBID1MgEAkDMCwHqZAADIGQFgvUwAAOSMALBeJgAAckYAWC8TAAA5IwCslwkAgJwRANbLBABAzggA62UCACBnBID1MgEAkDMCwHqZAADIGQFgvUwAAOSMALBeJgAAckYAWC8TAAA5IwCslwkAgJwRANbLBABAzggA62UCACBnBID1MgEAkDMCwHqZAADIGQFgvUwAAOSMALBeJgAAckYAWC8TAAA5IwCslwkAgJwRANbLBABAzggA62UCACBnBID1MgEAkDMCwHqZAADIGQFgvUwAAOSMALBeJgAAckYAWC8TAAA5IwCslwkAgJwRANbLBABAzggA62UCACBn2gEw/5LVTzY/d+SNiT/JWHonAAByZnBw+1uDIBoOSlHj9LPufU4I2L4mAAByamgo+mRpoFqOQ2D52Q88d8hSIWAvTAAA5FwYjn1kYKC6XgjYxAkAgIKIQyAIorXtNZavuF8IFHwCAKBghofHPhyHQBjWxs5c+aAQKOgEAEBBCYFiTwAAFNzg4NiHuiHwjZUPPXvoUUKgCBMAAHTEIRCG0eVCoBgTAABMEobN3yqF1VVhEDU7IeCjgVxOAACwT+MhEEbNM1c+tFMI5GsCAICX1QmB0o5OCKw49+FnvnD0zYk/eZkAAGCWbNjQ/GAnBIJaQwhkfwIAgCmJQyAIqhcLgWxPAACwXwYHm78pBLI7AQDAAZkYAt889992fmGZEMjCBAAA06Jcrr07CKKVYSgEsjABAMC0ikMgLNXPrpTrzZXnbXrmi0IglRMAAMyISSFw/iM7hUC6JgAAmFEDA9G7JoXAMT9I/MnPBAAAs2RyCGwSAgIAgCKJQyAIqsvDsFbvhMAyISAAACiMDRuid3ZD4JzzNzWFgAAAoEAmhsC5F2weO+xLtyT+5FiECQAAUiEOgXYEfK0TAhdubh72pVsTf5LM8wQAAKlSqVTfEYdAuVyrCQEBAEDB7B0Chx8rBAQAAIUxMLDj7RNDYLF3BAQAAMUxNPTUr4Vh9BUhIAAAKKA4BCqV6KR2CEQ+GhAAABTMeAiEtfr5qx4TAgIAgCKJQ6A8WD+xHQK1OAQWf1kICAAACqNUar1ZCAgAAAoqDoFKpbmsHQI74hDo89GAAACgOLohEIa17Res2lz3joAAAKBAJobAqksebyw5/rbEn3zTMAEAQCF897u73lQJa8uCIBICAgCAotkrBOpFDQEBAEAhdUMgDGrb4hA4omAhIAAAKLQNG1pvnBQCJ/ww8SdnAQAAs2Tjxl1vCMNocRwCFxcgBAQAAEwQh8DgYOOwMKxtzXMICAAA2IdSqfX6PSHw9CWrn2gcmbMQEAAA8DImhMDWPIWAAACAHkwOgSfrWQ8BAQAAUxCHwPBwfWEYRk90QuDE2xN/MhcAADBLxkMgqP7i0suejLIWAgIAAA7AxRe3XtcNgdWXb6kf/ZU7En9yFwAAMEu6IRAE1cfjEFh2crpDQAAAwDSKQ6BS2R0Cl619qpbWEBAAADADxkMgrP68EwIp+2hAAADADOqGQBhGj+1+R+BHiT/5CwAAmCWnnNJ6dSVo/s3uENiSeAgIAACYRXEIDFeac8Kg9mgcAseeeqcAAICiSDoEBAAAJKgbAkEYPXrZ5bMXAgIAAFJgYgismYUQEAAAkCJxCAwONj4blKIH16x9asZCQAAAQAqNh0AQ3b9m3VPVOATmLxEAAFAI3RAolaL7r1j3dO340+6alhAQAACQAa1W61WdEAii+9atP/AQEAAAkCHTFQICAAAyqBsCQRDde8W6bVMOAQEAABk2/o5AqfqzqYSAAACAnBgaqn0mDoF167dFrxQCAgAAcqYTAkH1p+uv3Bad9LWfCAAAKJI4BIKgek83BOYvuV4AAEBRvBAC28dDQAAAQEEMDtb/Z/cdgTVrtzwrAACgQCqV+v8Iw+jH7SD4fNJfCwAAAAAAAAAAAAAAAAAAAAAAAAAAAAAAAAAAAAAAAAAAAAAAAAAAAAAAAAAAAAAAAAAAAAAAAAAAAAAAAAAAAAAAAAAAAAAAAAAAAAAAAADA3v4/qUbsv7ZhEXgAAAAASUVORK5CYII=;movable=1;resizable=1;rotatable=1;deletable=1;editable=1;locked=0;connectable=1;container=0;" vertex="1" parent="96xqmQHdzvCccrLlqiye-42">
          <mxGeometry x="20" y="8" width="55" height="55" as="geometry" />
        </mxCell>
        <mxCell id="96xqmQHdzvCccrLlqiye-41" value="registry.terraform.io" style="text;html=1;align=center;verticalAlign=middle;resizable=1;points=[];autosize=1;strokeColor=none;fillColor=none;movable=1;rotatable=1;deletable=1;editable=1;locked=0;connectable=1;container=0;fontSize=9;" vertex="1" parent="96xqmQHdzvCccrLlqiye-42">
          <mxGeometry y="71" width="95" height="23" as="geometry" />
        </mxCell>
        <mxCell id="96xqmQHdzvCccrLlqiye-44" style="edgeStyle=orthogonalEdgeStyle;rounded=0;orthogonalLoop=1;jettySize=auto;html=1;exitX=0.5;exitY=0;exitDx=0;exitDy=0;exitPerimeter=0;entryX=1;entryY=0.352;entryDx=0;entryDy=0;entryPerimeter=0;startArrow=classic;startFill=1;strokeWidth=2;" edge="1" parent="1" source="96xqmQHdzvCccrLlqiye-19" target="96xqmQHdzvCccrLlqiye-39">
          <mxGeometry relative="1" as="geometry" />
        </mxCell>
        <mxCell id="96xqmQHdzvCccrLlqiye-45" style="edgeStyle=orthogonalEdgeStyle;rounded=0;orthogonalLoop=1;jettySize=auto;html=1;strokeWidth=2;" edge="1" parent="1" source="96xqmQHdzvCccrLlqiye-23" target="96xqmQHdzvCccrLlqiye-10">
          <mxGeometry relative="1" as="geometry" />
        </mxCell>
        <mxCell id="96xqmQHdzvCccrLlqiye-49" value="" style="group" vertex="1" connectable="0" parent="1">
          <mxGeometry x="-171" y="439" width="96" height="24" as="geometry" />
        </mxCell>
        <mxCell id="96xqmQHdzvCccrLlqiye-47" value="" style="rounded=1;whiteSpace=wrap;html=1;fillColor=#d0c443;" vertex="1" parent="96xqmQHdzvCccrLlqiye-49">
          <mxGeometry y="1" width="96" height="23" as="geometry" />
        </mxCell>
        <mxCell id="96xqmQHdzvCccrLlqiye-48" value="provider: random" style="text;html=1;align=center;verticalAlign=middle;resizable=0;points=[];autosize=1;strokeColor=none;fillColor=none;fontSize=10;" vertex="1" parent="96xqmQHdzvCccrLlqiye-49">
          <mxGeometry width="94" height="24" as="geometry" />
        </mxCell>
        <mxCell id="96xqmQHdzvCccrLlqiye-53" value="" style="group" vertex="1" connectable="0" parent="1">
          <mxGeometry x="-171" y="461" width="96" height="22" as="geometry" />
        </mxCell>
        <mxCell id="96xqmQHdzvCccrLlqiye-51" value="" style="rounded=1;whiteSpace=wrap;html=1;fillColor=#d0c443;" vertex="1" parent="96xqmQHdzvCccrLlqiye-53">
          <mxGeometry y="0.9166666666666666" width="96" height="21.083333333333332" as="geometry" />
        </mxCell>
        <mxCell id="96xqmQHdzvCccrLlqiye-52" value="provider: aws" style="text;html=1;align=center;verticalAlign=middle;resizable=0;points=[];autosize=1;strokeColor=none;fillColor=none;fontSize=10;container=0;" vertex="1" parent="96xqmQHdzvCccrLlqiye-53">
          <mxGeometry x="9" width="77" height="24" as="geometry" />
        </mxCell>
        <mxCell id="96xqmQHdzvCccrLlqiye-54" style="edgeStyle=orthogonalEdgeStyle;rounded=0;orthogonalLoop=1;jettySize=auto;html=1;entryX=1.043;entryY=0.127;entryDx=0;entryDy=0;entryPerimeter=0;strokeWidth=2;" edge="1" parent="1" source="96xqmQHdzvCccrLlqiye-9" target="96xqmQHdzvCccrLlqiye-39">
          <mxGeometry relative="1" as="geometry">
            <Array as="points">
              <mxPoint x="134" y="445" />
              <mxPoint x="134" y="463" />
            </Array>
          </mxGeometry>
        </mxCell>
        <mxCell id="96xqmQHdzvCccrLlqiye-55" value="Init" style="edgeLabel;html=1;align=center;verticalAlign=middle;resizable=0;points=[];fontSize=12;" vertex="1" connectable="0" parent="96xqmQHdzvCccrLlqiye-54">
          <mxGeometry x="-0.4332" relative="1" as="geometry">
            <mxPoint as="offset" />
          </mxGeometry>
        </mxCell>
        <mxCell id="96xqmQHdzvCccrLlqiye-56" value="main.tf" style="text;html=1;align=center;verticalAlign=middle;resizable=0;points=[];autosize=1;strokeColor=none;fillColor=none;fontSize=10;" vertex="1" parent="1">
          <mxGeometry x="276" y="620" width="48" height="24" as="geometry" />
        </mxCell>
        <mxCell id="96xqmQHdzvCccrLlqiye-57" value=".terraform.local.hcl" style="text;html=1;align=center;verticalAlign=middle;resizable=0;points=[];autosize=1;strokeColor=none;fillColor=none;fontSize=10;" vertex="1" parent="1">
          <mxGeometry x="156" y="618" width="100" height="24" as="geometry" />
        </mxCell>
        <mxCell id="96xqmQHdzvCccrLlqiye-58" value="" style="rounded=0;whiteSpace=wrap;html=1;" vertex="1" parent="1">
          <mxGeometry x="504" y="55" width="239" height="167" as="geometry" />
        </mxCell>
        <mxCell id="96xqmQHdzvCccrLlqiye-59" value="" style="rounded=0;whiteSpace=wrap;html=1;" vertex="1" parent="1">
          <mxGeometry x="76" y="57" width="403" height="165" as="geometry" />
        </mxCell>
        <mxCell id="96xqmQHdzvCccrLlqiye-60" value="" style="sketch=0;outlineConnect=0;fontColor=#232F3E;gradientColor=none;fillColor=#7AA116;strokeColor=none;dashed=0;verticalLabelPosition=bottom;verticalAlign=top;align=center;html=1;fontSize=12;fontStyle=0;aspect=fixed;pointerEvents=1;shape=mxgraph.aws4.bucket_with_objects;" vertex="1" parent="1">
          <mxGeometry x="578.98" y="91" width="87.02" height="90.5" as="geometry" />
        </mxCell>
        <mxCell id="96xqmQHdzvCccrLlqiye-62" value="" style="rounded=0;whiteSpace=wrap;html=1;strokeColor=none;" vertex="1" parent="1">
          <mxGeometry x="512" y="34" width="51" height="42" as="geometry" />
        </mxCell>
        <mxCell id="96xqmQHdzvCccrLlqiye-61" value="" style="shape=image;verticalLabelPosition=bottom;labelBackgroundColor=default;verticalAlign=top;aspect=fixed;imageAspect=0;image=data:image/webp,UklGRqAVAABXRUJQVlA4TJMVAAAv/8A/EP8HJIT/59WICUjcwx+27artNP93jzFmgrsHd3d3lxdri7u7O9RbpO7uberYSyl1d1eCWyFYabGg2XOMcV9/rLkEunY+/iGi/xOgV/z/iv9f8f8r/n/lhyGmJsUYpJCaGCabEGPqjGFyCk3U8ClMGqGJGjw0YZIJSZKa5Xc76Y0f+OwXr77ppqs/cvHeS0tKYYgQQ2dMIwopdMYURhRHlYKkuPgmex1y+NFHH33MXstNkaSYJo8UJK196vRbX2DwWd8/YykpDfZSBw0aRqOwQPdgUdLKJ332b7MKfV+44/pL1gmS4uQQJa39hj9mAJe2zZ1tNvD4+5eX4iCLfuC6r1999dev/urpaRRBi7/jv79+9dVfv/prly6oMIKgY2c8NWvWrFlPzb5YsV+S9r7xeXpdaymlGKD92+d2k+JkEKU9b5wASq62jQEb2znD05dIqU/SCfR/l+JwWuCv9L9JI4zajP6/V98obf0zoOTqQWvOAD/bVHH8BW33CyAXG5uBbVxb+NUqSv2OYCL3TvD8CgrDNDqFF3Nnm9lOcaikjzPbvZkf9onSO6BkG5v+NnbNlbyD4riL2h9KtjGjtKktj6+j1BG0+mxsbBeOVRom6aO0GGxnLlEzlJpbqTY48y6lnqiFf4KzsQGMbWMDtj3BrVHj/yfMNj3Gdq2l5FKqjQEbJrh9foUeSb+iALjlE4rDSH+gmM7MdQrDBK2TscE22ypKilr4r7TGxsa15LY3l2pj20ysojDumr9SbWPXnE1/52pssGn5rGJH0pvI7qnMSBoyaLnncZcrM+fVsI1OpRigcvsUdf+ICTA2zoWBc7YxL64+/tJfKLZrNsCL/5zx25/e9O3f/wvIFRtsV3ZX6onaGmywmVhTYbCkA6imy3hzxSGippMBnHmfkqSky2mxsSmGp372ibdeeunr3/m5Hz9UgFzq5JEr8Mi1F+258ryNJIWFdnznTCjYYDK/Vt+pd1INuHC80jDvoO2DM2erGUJz3Us12GYXRSlq3ZaKsSnwjUOWUP95NjrjhllQy8Rk8FcmgHs+uOeCGnKBS56hYMAu7K3Uk/RR2h4yn1YcTPoJBbAxZL6kOFjUpsY9lXvnlnq+QIvBFO7bRpJi0xvVu+w5f4PHFxh/+h489eW955YUmhj6xSStdjsFg8lcp9D1aqoNrtzaaOCgxZ6k2l2u3D1Vgzc6l2zAmY8qSUHTnsYGqDy2slIKGjA2QYq7X7mrgsZ80DpXnrGspJQ0bJiqTSsGsHl6aQVJQYv9m9pj8joKg0Ttjg0GY5u8nsJAQdeSAbuyd0/SUZQOF07WVA0dkiQFjf0gSTFppFP0IbLdUzlESZKCricDuHCymkEavYHWNvkpbFw4Sc1Amu8hqsGVB+eXej5Ia4DKvxZWGE5SbKImwdA0QSOOWu1FenDLe7oanUY2QOZzioMEfZOMK7/9EhnIfFpxkKjtwD2Zzyiq95vkjsIvNYcadCOZnsK31Rm02mxscOWOKRp4/keoJvPOIyjGlRlJgza6jGywK69R6vg5pc8P5lQanUV2T+XmpkPSrymATVlPoV/U1mBcOHp5sG1mr6YwQNC3yIAr/1xEoeOnA/wtzKFEbQ89VB6cpyvpLWQDzpympl+j88i2qevpH1TjwlFK/YIW/hfVQObLipIUdD25w+Q1FedIglZ6od9j83VFbQM2kJmu2C/oq2RcuXcefZUMtHxokKjdsY1dOFypJ+k9tF2ZzyrGOZPFnu03c54uaa67qQZX7p6qAee6h2oyX5XOJRsX/qABk95Ka3DliSUUug6n2AA250vNHMm05/vdObVP0sfJPaZuqNgVtH7BduY8aQuwbZ5fXqGP9GMKQOZaBfUGTXuaDmP47EJSipNdiCk1KaUYQ59VXhzJAVQbnDlDTVejkyi2YWtp3gepxpUDlbqClnwaG7twnFKHor5KxoBxZebJc0lKcfKKSUOGJqXRBC3+ONVA5suKXVGfosWVh+dX1PVkcMu7+iXtTzXYzFpWod/W2DbYOMOdb9wwSEpxUkqStPiWB5xw2glHHbzXVqsukNS76igUdAMZcOW+udQ3/p1qMjcqNLqEbCj8Qn2T3klrIHOTgvpGfZ4JbMCmFqh/uWLrRlJMk02StMM7fv206fbsJ/567RWHraNpL4yi0Rlkg403UewJWuVFbGderyZqB2xsnl5SoUP6DQXszGlK/YIWuY8WG7BxzQC3vXfXeSSlMImEoHlO/yu9teRSqunOd36rHUXQ6hPY4MzZanqSDqMam90UpYUeoxqbvZV6gpZ/Dhub51dS6Kek9Z6kBdNr7JIB7vvEfvNJadJI0hF3g9viQWvJbQUww0n6LQUg8zWFrvfR2pUnFlWQ9G0yuOWtanqSDqUaKPxAgydt8DBtxabT2DUbuP+KpaU4OSQteQPkYmMGNbZrMR5B0lvJBlfun0fdv6aYwo8kqdGbaA2F76sz6UO0xs6cqzSQkpb9ObTV2HQau+YKT1wgpckgaZOHyAV32LV01mobm+4horbDNjZsrigFLf0MtluuUpKi9sDGlX8voiBJ4S+UHibWUBhMSbrsGci52jadtl1b+OmySuMvaeNnaI07SmZQ51xsPAJprnuoBmfOUyMl7Us1rryqJ2ixJ6nGZhdFKWi12dhQ+IWGj9KKH/g3UHO1MZ02teXRTZTGXdBSD9FiY1MK8K8//finv/z1H2/712w6zSiiPkk2kLlGQWp0Oa1tnp2moN4fU8CZ16qRko6jGJy5VGkoKUlLHH/1Y4DbYmMDNrTM2lhp7N1Ii41NgRlv3HrBKElxynyr7X3+p343y/Yokg6k2rgyc171fp+CC79VZ9JVtIbMNxSkqE+TwaasrzgChSRp0dd88j6AXGwM2LQ8uKTCWEs6mGwbm8y9hycNvez91FEELfEE1diwlWLQwv+m2i3vV+ran2pceXh+SWpupxoKv9eoQwqS5tn5nX83kI0NNi1fUxxr0p8pGEzmZ/NJTRwgxCYp3DEaBd1IBpy5UE3Ujti4cERX0DLPYNuwtWLQ+gUbZ96kNCJJIUVJcdNLv99CwQbblZ0Ux1jSnlQboDJzUU3R8HPdNaJGZ5INZK5XaHQJ2TazV1XokfRrCjhzvppGp5ONDZsqjq43Jkla80MtGQwmc63CWPsYuccuHK4pGsU9IwpacwIbVx6eX1HXkXHl5qTupPfSGjJfU4z6Mhko/C3opY9NkDb4PQUbbGZNUxhfSjOoBqjcPkUjnfexEUn6HQVs2FaaZybVtHxKsd8hVOPKfXNLc/+Dapy5SumlkxQb6RoKHZWDlMZW0LTncY9bPqA0gqDlXsCjSbqCbHDmEmlTY7twkpquoBVfwLapG0mbg3vZRvFlITWachsFwC1vUTO2orasmJ7CSWpGELUTo4raHtuQ+YZ0Jtk2ZX2FLin8mWKcOU26gGyo3NboZTtFJ1MMkPmU4hjbDXdVDlIaQaNzyX3uGkKa+16qceXRhTWdjCv3TFX/pI/QApnPS9eTwZn3Kr1sglafTY8zXxpru/crHDOSqKvJdN031xBRnyIb22yvu6gm8xXFQY6hGFfuCPM9QrVtdlZ82UgLzeo3fazt0a/lrWqGC1r6Kaq7nph/iKSDqTbOnL+ksZ05V02/oDUmsG3qcltg25V75tbLN2ipZzto+ZDSGNvWdFD4hUY4RZeT3WFmr6YwUNCST2JD5ouHUWzDlor9pHQL1biw/+lk48xHlIYJIYwsaifc48xFasZW0IovYgO22VppmCnafALTabOP0kAK+iYZbO7+GhlXHp5Pg0Z9hgxkPvh1Cnblv4YKklIc0RR9lGywza6KY0uacie1Bwo/k+JAMWnjxyi4q+XNagZrdDbZPX4Rm8w3FAZpdDLFuPKPp7BdmTm/hl5w3UWkkMJwYaq2yBhw5ZEFNcajPke2AVN4j9T0CSlKhz9HwcYAhZsbDR60VouNbYydea2aQYLWL9jGYOzMZxQHC1rmTh5+97qSlFIM/UJK0nozKRjT8knFMZb0akofVz4cpJBSVO9610DBpcuu7Kc0kKQ/UMDYGJtdFAeRpt5NNcbGduXVSoMlHYAhf/fkFTVgUO8Slz1Lwdg2m401acptFAwYV/524LzqbVY59rpMrdhgDDjzfYXBkq4km25XHl9EYaCoL5PpV3l0YQ2ZdBClZuD5X7/n6M0WnxrU2yx7wKf/DQXbpuUzihrnSSeQsQHjDA9c8573fOLG214Esqnmc8/gDpsdlAaK2hHbXRR+qCEbnU02fTNfUhxBtZ0LQH3m3t//8Ds33vDD258HcsW2yTy4mMJYk/QzWmzAplT6lmxTK2/X9WTck/my4kDSPP+g9nHLlUqDRW1u+tiFw5SGOrgDu7SFQWuuxrbJsL2SxnvUqk+TsQEb19y2OVcbk+FyaZOKe8ncN1WDR32G3GVX9htGmucBqrsqjy+hMETU3rTGxth2LaXkXKp7saGFA5Q07pN2rrTGZlDb1JZyktToI7QYMrxPcbCkQyk2YJtnllEYIug6sg2YzLUKGjJo4QfIpWN429TM03sqafwn7fQEudh2H2PXFv68iaKCFr6fTM20l2rYoKVmkWvnBL/R0I1ex4u1s8zmGKVhFLTmD8Btce8gNnbJ8LNVlDQZJq30Qyi5un9pKzx2UVSSlLQdZPjFeho+6l0MeKTSMEErPkX/P0zRCKN06C8BSluqB605AzNPl5ImxyQdeytALbmUSu8dly0hRfUmHfw8z1wsNcNJU6/444ybb7755hm/OUMjjNrqmzNu7v3Lp6YpjEBR0pbv/OsEnbXknHMxQPndmQtKUZNllJoDvvJgpdOzfvfe3adISX2jVjxwJSlqhEEKTe8UjTZIU5reJAWNNkkKqx/57h/MfJH+s++55vz1JSVNpknSvBseeMqZp55wwFZLSFIKGjBKShpxUt80EsWg7hg08pjUO/eK2x9w0tkXX3zmkbusPFWSUtAkm6IGTUlDhhQ0zkNKGjI0UZNyTKlJKcWgSTnElJqmaVIM+n8Ah5iaFIOkEFOT4v9YhRQ1wpDC/yCFJElxqe2Puex906/79ne/fcMX3n/J4RsvICmNmxDmRGKUtPIxn/rLswxZH7nh1EU0ZoMU45xGSNLSZ/7kBXpL2+ZcSsm5bSvAzGPHjNZYS0phjiJJ637iSaDkYtvYgI3tmlvYQ3F8RB3sia+sLqU5iKBlPpEhFw+MDWDbs3mDmvHR6MNM8MI7F5PSnELQEY/DRM65bUutHaVti20DpuW9SuMjaK3HeQH+eeE8UpojiDoaMiMt2IBb3jdOFLXu/UxkuPuUKVKaI5iOy3Mzf//Nz777slMPf9Ueu+y0235HXfTxP0Clz1VqxoiSlv4juWS45bhGSmGyC5p2zL4bLTl30NAb/oiKwZnzx4uS5rqOWmuGGcfPJaUwuQ0aU5NSijHGlJoozX03tadysNJYUZLeAZmS4Y6zFpBSnNxCSjFohFP1AVrA1I0Vx4uidHRLa5cMD7xxmhTSZDZsSE3oaPQGWuPKYwtq7IakTe8lV1wyPPnRDSWlMCcQknpj1+U9FH6ocdxooRugYNcM9ab9khTTZBeTpDWOO30lBUlRHyeDW65SGkNK0mXQGrtmYMbFK0hKcfIKSdLCx/+ihed2U5Sk71Fsmz3Gk6K07d2Uim3nCs98+b+mSEphMgopStrs/Q8DZTa/Ve88D1Jx5ZGFNK6TFpgOrbHtkoHb3rK+pJDCJJOipGln/Rooxc78PUpRG1eMM9MVx5WSdPjjlIpt7Fyh/PSsFSWFJkwWIUVJixx27dNAroYMZyqq0Rlk24UDlMaWQtSy10Nr3Fkz8Ny3Tl5BklIcf6EJkhZ61ef+CeRim5rhMkkK+joZV+6fT2O9kY78J7WAjbFLBp777jlrSFJMYXyFlCRpiUOmPwKUbGOc4Y+bq3PBR6h25u1KY00xaonPQK7YYGPnAkz85ood5pGklML4CSlJUlj7zBufAGquxjal8MJrg5KkpL2ptpm9huJ4k5K0218hGxuwsXMGuP+LJ60RJSk2MYyNkJJ6l9z/vX9ugZqrO6kZblpTSur4KNlkpitq7IeoeMGTkI0NYGOX1sDE3z969OpJvamJ4T8spCaod8m9L//hUwA5V2Nj4wx3Hywldc97H9WmrD8ZSEma9vFKLcam09g1F4CJWz5/9jYLqzM0KYb/gJCapM6pax353p8/DVDbYmODjTM8++Z5FKI6k/ahmpZPKGlyTNImN0Itxu4BbOzaFnof/9kHT9l2saTu2DQphpcuhJiaFNQ9z9qHXH79PS2A22IbA9g4V/jsSlJS36jPk6k8OU1hklBI0i4/hVKM3dFrY9ec6Zz1t6++9eitl55Lg8bUNE1KKfZNKaWmSTFowLjguvue//EfP9jSW9piG9Np41zhG5tJKahv0KKPUZ05Q0mTZ4zSPr+Emm27T6+NXUub6fRz//jJ5684df8tlp9/ql7SOPfia+981KUfuv5Pj2c6a5ure+lr29nw3R2lFDRg0jEUWr6nSTZJ2vfHQK7G7tdpY7vkttC3vvD4Hb+6afqHrrz0zBMOe/Xeu++0w7bb77Lnvgccdcr5r3/Xp675wZ8ffHaCvs5tqbYxA9q4ZuDbu0gxauCg71MK/15WcXKRkqSdb6iQi20P1G1su5bc5srL0qVtc6m2sRnctkuGfM12UogaPGqdTIHdlTT5piBt8PEnoWYbe5i+xr21lpzbts2lVrvHdi0lt23OpVT3YjO8jZ0rPPGR9aWQNGzSFUyYk5U0KccoLXP+zUAuNh7JwDYeJTYvobFLBmZctLQUo0Y4191ULlTUZB2TlHb/yiwgFxv7pXj5G7tk4Nmr90lSihph0kHAGYqaxEOStNyZPy9ALjb2WLCxSzbw2/NXkJSCRtroXB7bX1GTfIqS1n/D7ytQcrXxf5ixa84AM67aVFJMGv38r1lWSZN/SJK00WW/eBFwztXG/s8wtktbgfLnK7dOklLQSxw1ZxiTJK184tceojfnahv75WRs19wa4PGbLthAklLUS52C5hxjI0nzb/+Gb/+TXudcqm3sl8jGtmtuK72zfv62fReXpBQ1xx1SkKQFtzt/+q0v0Onc5lKru7G7jPvWktu20pkfuPEt+ywtSaGJmlOPjXqb5fe++DO/eqylv2vJ7eA5F9O/zrr52isOW3du9aYUNIcfm6jO+dfa+8x3fPmntz/xYmHEE88+8PsbPnzJIVssltQbmhT0P4ghNlF9pyyw0qa7HXzCOa+7/J0f+NBHPvaxD3/wPW9700WnH7nvtmstPndQd2hS0P94htg0QS91SE2KQf+DG2JMqWmaJvVtmqZJKYagV/z/iv9f8f8r/v+/dQIA;" vertex="1" parent="1">
          <mxGeometry x="517" y="35" width="41" height="41" as="geometry" />
        </mxCell>
        <mxCell id="96xqmQHdzvCccrLlqiye-76" value="" style="group" vertex="1" connectable="0" parent="1">
          <mxGeometry x="76" y="19" width="154" height="109" as="geometry" />
        </mxCell>
        <mxCell id="96xqmQHdzvCccrLlqiye-70" value="" style="rounded=0;whiteSpace=wrap;html=1;" vertex="1" parent="96xqmQHdzvCccrLlqiye-76">
          <mxGeometry y="38.2972972972973" width="154" height="70.70270270270271" as="geometry" />
        </mxCell>
        <mxCell id="96xqmQHdzvCccrLlqiye-67" value="" style="group" vertex="1" connectable="0" parent="96xqmQHdzvCccrLlqiye-76">
          <mxGeometry x="71.7037037037037" y="55.972972972972975" width="72.5185185185185" height="47.87162162162162" as="geometry" />
        </mxCell>
        <mxCell id="96xqmQHdzvCccrLlqiye-63" value="" style="group;strokeWidth=2;strokeColor=#8465b3;" vertex="1" connectable="0" parent="96xqmQHdzvCccrLlqiye-67">
          <mxGeometry x="17.111111111111104" width="30.14814814814814" height="35.35135135135135" as="geometry" />
        </mxCell>
        <mxCell id="96xqmQHdzvCccrLlqiye-64" value="" style="whiteSpace=wrap;html=1;shape=mxgraph.basic.document" vertex="1" parent="96xqmQHdzvCccrLlqiye-63">
          <mxGeometry width="30.14814814814814" height="35.35135135135135" as="geometry" />
        </mxCell>
        <mxCell id="96xqmQHdzvCccrLlqiye-65" value="" style="shape=image;verticalLabelPosition=bottom;labelBackgroundColor=default;verticalAlign=top;aspect=fixed;imageAspect=0;image=data:image/png,iVBORw0KGgoAAAANSUhEUgAAAgAAAAIACAYAAAD0eNT6AAAABGdBTUEAALGPC/xhBQAAAAFzUkdCAK7OHOkAAAAgY0hSTQAAeiYAAICEAAD6AAAAgOgAAHUwAADqYAAAOpgAABdwnLpRPAAAIABJREFUeJzt3XmQnPVh52F8J7YT346vOD6T2HES59rKtber9ipX7daucqDLYFugGYFAGHOZAIUtY7CQCbcMQggJmH7f7pkRWBWXg2e4DMHgYAw2dwTCGISQ1G8fIw6rt9+WepgRAnqkmXmv56n6lv6Dme53uj/d/ZPmoIMAAAAAAAAAAAAAAAAAAAAAAAAAAAAAAAAAAAAAAAAAAAAAAAAAAAAAAAAAAAAAAAAAAAAAAAAAAAAAAAAAAAAAAAAAAAAAAAAAAAAAAAAAKJyhSv34Uim6dXCw+e+T/loAgFkyOFg/+durf7Hrqqu2N9oh8MOhoeZ/SPprAgBmWBwAX19x/655/aOt40+7q7X+ynYIBNU7Bwcbn036awMAZsjEAOhOCABAzu0rACaGwJVXba8LAQDImZcLgBeFQKn6YyEAADnQSwDsHQJBUL1LCABAhk0lALo79tQ7W+vWb4tKpR0/EQIAkEH7EwATQ+CKdVvrA0H1njgEWq3Wq5L+fgCAHhxIAMSbv2R3CKxd93QtCKIHhyvNOUIAAFLuQANACABABk1XALwoBK54ulYqRQ8JAQBIoekOgL1D4PIrtgoBAEibmQqAiVt28o/2hEB1kxAAgBSYjQDYVwgMDdUXnHJK69VJf/8AUEizGQCTQmDtU/FhwU4IlEqt1yR9OwBAoSQRAJPfEWiHwED0iBAAgFmUZABMDIE1a4UAAMyaNATAXmcEoqAUPSoEAGAGpSkAult60h2t1Wu2VOMQqFTqC4UAAEyzNAbAxBC49LIttSCoPiYEAGAapTkAJobAJWu21MIweqJcbhw2MtJ6bdK3GwBkWhYCYO8QCILqk0IAAA5AlgJg8kcDTwgBANhfWQyAiSGw6tLHIyEAAFOU5QDYRwg8NTgoBADgFeUhALo76sR2CKzeHQLDg42jNm7c9Yakb18ASKU8BcAL7wjc3gmBMKw9NVSuHS0EAGAveQyA7o48MQ6BXwgBANhbngPgpUJg5LLWryR9uwNAoooQAN0tPWF3CARBtFUIAFBoRQqA7pYcf1vrwm//vCoEACisIgZAd/3H3da6YNXmejsEtg2VG0cPDOz61aTvDwCYFUUOgPEQOP5fOiEQhrVqpVI/QQgAkHsCYO8QeEwIAJB/AmAfIXCcEAAg5wTAy4fAuRdtrgVh1AmBDRtab0z6/gKAaSEAXnl9e0Jg9zsC0UlCAIDMEwBTC4HzLtxcD4NaVC7XTt+4ceuvJ33/AcB+EQBCAIACEgAHEAJfvnU8BIKg9lUhAEBmCIDpD4FSadtbkr5fAeBlCYDp2+I4BC4SAgBkgACY/h32pVta51zwSC0Mo1ocAoOD29+a9P0MAJMIgBkOgfM3NcthrRaUhQAAKSIAZjEEyrVGuVz/phAAIHECIIEQCGvNOASuvXbH25K+/wEoKAEw+1s0MQSC+gohAMCsEwDJhsC3zts0JgQAmHUCIPktOuaW1jfPfbgZhrV6HAIDAzvenvR1AUDOCYD0LA6Bs89rh0BQa4Tl2oXDw7XfSPr6ACCnBED6tuiYHwgBAGaWAEjvxkMgjJpxCFxbqr8n6esFgJwQAOlfHAIrzn14TAgAMG0EQHY2HgLxRwNh9aJyuf7epK8fADJKAGRvXzj65taZKx8UAgDsPwGQ3X3+6JvaIfDQzjCImnEIDA013pf09QRARgiA7K8TAt966JkwjHa2t0YIAPCKBEB+tncIXHNN4/1JX18ApJQAyN8OPUoIAPAKBEB+NzkEakIAgBcIgPwv/mjg62c/8Mzuw4K1NeVy4wNJX3cAJEwAFGfjIRDWmkEQrRUCAAUmAIq3ySFQCyqVsY8mfR0CMMsEQHEXnxFYvuKBZ4UAQAEJAHshBKJOCAwPj30s6esSgBkmAKw7IQBQIALA9t4hS29onX7WveMhcE248+NJX6cATDMBYC+1Q4+6sbV8xf3PB0E0FgxE6wcGdv1q0tcrANNEANgrLQ6By9c9XR8u1/970tcrANNEAFgvW7X6ie1D5fr/Svp6BWCaCADrZQIAIGcEgPUyAQCQMwLAepkAAMgZAWC9TAAA5IwAsF4mAAByRgBYLxMAADkjAKyXCQCAnBEA1ssEAEDOCADrZQIAIGcEgPUyAQCQMwLAepkAAMgZAWC9TAAA5IwAsF4mAAByRgBYL0syACqV5n8cqkT/UCpte0sS/3+AXBIA1suSDID2Nfq5UmnHc+UwqpeD2ulCAGAaCADrZUkHwD9e+Ght0ZduaX3rvE1j5bDWLAf1Fddeu+NtSXw9ALkgAKyXpSEAul9LHALfPPfhZhjW6nEIDAzseHsSXxdApgkA62VpCoDuFh2zJwSCWiMIopVCAGAKBID1sjQGQHdxCJx9XvyOQNQMy7ULh4drv5HE1wmQKQLAelmaA6C7Rcf8QAgA9EoAWC/LQgB0Nx4CQa0Rh8C1pfp7kvi6AVJNAFgvy1IAdBeHwIpzHx4TAgD7IACsl2UxALqbFAJh9aJyuf7eJL4PgFQRANbLshwA3X3h6JtbZ658UAgAxASA9bI8BEB3nz/6pnYIPLQz/geF4hAYGmq8L4nvCyBRAsB6WZ4CoLtOCHzroWfCMNrZ3hohABSKALBelscA6G7vELjmmsb7k/g+gfw6ePGNb5vbP7rsoINar0r6axknAKyX5TkAujv0KCEATK+5/df/8dy+kYvn9o3W48cZAWCZWxECoLs4BL5+9gPPhEEU/76BNeVy4wNJfN9ANh1xxMY3zF8yOqf9pP+9vR9fBIBlbkUKgO7ijwY6IRDWmkEQrRUCwMtZcNg/v39u/8ip7Vf8W17qcUUAWOZWxADobmIItFcKw7GPJHE7AOlzyimtV89fMvKZ9qv90ry+0ede6fFEAFjmVuQA6G7yOwK1oFIZ+2gStweQvDmLvveW9uPCovYr/p9O5XFEAFjmJgBeWHxGYPmKB56Nf+mQEIBiOXjx9/+kc6ivf6SxP48fAsAyNwHw4u0dAsPDYx9L4vYBZtbLHeqb6gSAZW4C4KV36NIbhQDk0MGLb/xI+9X+Ge2f86em6/FCAFjmJgBeeYcsvaF1+ln3jofANeHOjydxewH7b9Khvv7R56f7cUIAWOYmAHrf5zohcN9zYVAd231GYOdvJ3G7Ab1buHTkrXP7R5fO6x95aCYfHwSAZW4CYOobD4GwNlYKo2uEAKTPgR7qm+oEgGVuAmD/1wmBM+99PgiiTggMDVV/J4nbEdite6hvXt/oTbP9eCAALHMTAAe+zx15oxCABC044rqPTvehvqlOAFjmJgCmb3uHwIYw+t0kblcogpk+1DfVCQDL3ATA9C8OgdPO+Fk7BKrNUhB9RwjA9Oke6mu/4n846Z/1iRMAlrkJgJnbxBAIg+i69vf76SRuZ8iD7qG+eX0jzaR/tvc1AWCZmwCY+XVDYGBghxCAKRj/l/r6R25O+uf4lSYALHMTALO3iSEQlKrfHxqq/1EStzukXftV/sfiQ31z+0a3Jv1z2+sEgGVuAmD290IIVBtxCGwo1/84idsf0iRth/qmOgFgmZsASG4Lj7zhhRAIhADFNO/wm9/d/nk4bm7/6L8l/TN5IBMAlrkJgOS34IgbWicvv2c8BAYHG3+SxP0Bsynth/qmOgFgmZsASM92h8DduzpnBILo+0NDjT9N4n6BmbJw4civzFs8uqB9vf9r0j9v0z0BYJmbAEjfFiy5vhMCVw9Um2GpdrMQIOuyeKhvqhMAlrkJgPRu7xDYUG78WRL3E+yP7qG+eX2j18zrH8n9c5EAsMxNAKR/3RDY89HADyqVxr9L4v6CXvzdkf/8G+3r9rj2NiX9szObS1sAnHjO+Y/smt9+8Ej6hrH0TgBkZ/EZgVPP+Okv2yHQKJWqI94RIE3ydqhvqktVAGzY0PxgqRTdcvXV22tfWX73L4WA7WsCIHuLQ+Afvn7Prquv7oTA9d4RICl5PtQ31aUqALoGB5t/GZSqo+1XDfXTvvGzX8YPHknfUJaeCYDsLo76E796166rrtreKA1Etw6XG3+exP1I8fz9kaMf7/z63b6Rp5P+OUjLUhkAXZVK8y8mhsBCIWD9AiAPGw+Bq7fXgzD618HB2n9K4v4k34p2qG+qS3UAdMWvEkpCwPZMAORncQic9LWfdEKgFFTvHBqq/eck7lfypaiH+qa6TARAV/wbyQZK2/9JCBR7AiB/64bAlXtCYLhc+y9J3L9kW+dQX//o2rn9I88mfU1nYZkKgK5yuf6HpSD6ztUD1dppZwiBok0A5Hd7h8DgYO2/JnE/kx1z+kbe3L52Fs3tG70z6es3a8tkAHR1Q6C9xlfPulcIFGQCoBg7/rQf77rqqm1CgH2a33/Db3cO9fWPbEv6Ws3qMh0AXcPDtT8oBTu+EwTVphDI/wRAsXb8aXe1rrxqW2N3CDQ+m8T9TjrMmVN6zbzFo59tv9r/nkN9B75cBEBX+1XC7wuB/E8AFHNxCKy/crsQKKCFfSPvmRf/+t2+kUeSvg7ztFwFQFcnBEoTQuBIIZCnCYBib/c7At0zAkIgzxzqm9nlMgC6yuXapwYGqpX4jMDpZ937vBDIxwSAxRsPgVL1x0IgPw499KZfmxcf6usf+XHS11jel+sA6IpDoP0gUQ5KcQjc95wQyPYEgE1cNwSCoHqXEMiuuYdf9zsO9c3uChEAXcPDtd/rhsDXVtz//CFLhUAWJwBsXzv21Dtb69Zvi0qlHT8RAtngUF+yK1QAdE0MgeVnP/CcEMjWBIC93OIQuGLd1vpAUL0nDoFWq4APcinXPdTXftJ/NOnrpcgrZAB0DQ1Fn5wcAjcmfofYK08AWC+LQ2DtuqdrQRA9MFxpzhECyXOoL10rdAB0VSrRJ0oDQiArEwDW6+YvmRQCDwqB2dc91Devb+SupK8HmzwBMEEYjn1kYKC6Pv7rg0IgvRMANtWNh8AVT9dKpeghITDzOof6+kfOad/+fl5SOgGwD3EItF8trG2vsXzF/UIgZRMAtr/rhsDlV2wVAjNgzil3v759G89xqC8bEwAvY3h47MNxCIRhNHbmygeFQEomAGw6tuzkH+0JgeomIXBg5n7x+vfOiw/19Y1uTvp+td4nAHrwQgjUOiFw6FFCIMkJAJvOTQyBoaH6glNOab06iWsri+b3jfx1+9V+yaG+bE4ATMHg4NiHuiHwjZUPPSsEkpkAsJlYNwTaP+NC4GXMPeLWX5/X+Zf6Rn+S9H1mBzYBsB/iEAjD6HIhkMwEgM3kdofAU+MhUCq1XpPEtZY2f79k5Hcd6svXBMABCMPmb5XC6qpyWGt2QsAZgVmZALDZWBwCa9a2Q2AgeqSoITD5UF/y94lN7wTANOiEQGnHqjCoNc5c+dBOITCzEwA2m9vz0UAUlKJHixICf9d/0/vmOdSX+wmAabRhQ/OD3RBYce7Dz3zh6JsTv4PzOAFgSWzpSXe0Vq/ZUo1DoFKpL8xjCHQP9bWf+J9L+va2mZ8AmAFCYGYnACzJxSFw6WVbakFQfSwPITDhUN/dSd+2NrsTADNocLD5m+0HiYuFwPROAFgaFofAJWu21MIweqJcbhw2MtJ6bRLX5P6av3j0E/GhvvYr/nrSt6UlMwEwC8ZDIIyanRBYJgQOZALA0rQshYBDfTZxAmAWtR8cPtAOgUvK5VrzG996eOfnj74p8QsgixMAlsYt+0r80cCT9aBUfbxcri9I078sGB/qa7/aP7W9J5O+nSw9EwAJuOaaxvvbIfDtOATOOsdHA1OdALA0b9nJd7TWX7mtMTjY/NskrtEXtF41f8nIZxzqs5eaAEhQOwDeHZbqZ1fK9ebK8zY980UfDfQ0AWBp38rzNzWGKo3Dk7hGY/P6Rw6Z1zdyf9K3g6V7AiAFJoXA+Y/sFAIvPwFgaV/SATC3f+TmpG8DS/8EQIoMDETvmhQCx/wg8QskjRMAlvYJAMvCBEAKTQ6BTUJgrwkAS/sEgGVhAiDF4hAIguryMKzVOyGwTAjEEwCW9gkAy8IEQAZs2BC9sxsC55y/qVn0EBAAlvYJAMvCBECGTAyBcy/YPHbYl25J/AJKYgLA0j4BYFmYAMigSqX6jnYEfK1crtXOvXBz87Av3Zr4hTSbEwCW9gkAy8IEQIbtHQKHH1uMEBAAlvYJAMvCBEAOFC0EBIClfQLAsjABkCMbN2799aC84+RuCCzO6UcDAsDSPgFgWZgAyKGhoad+rVKJTmqHQJTHEBAAlvYJAMvCBECOjYdAWKtfsOqx3Hw0IAAs7RMAloUJgAKYGALn5yAEBIClfQLAsjABUCBxCJQH6ye2Q6AWh8DiL2czBASApX0CwLIwAVBApVLrzRNDoC9j7wgIAEv7BIBlYQKgwOIQqFSay9ohsCNLISAALO0TAJaFCQDGQyAMa9svWLW5nvaPBgSApX0CwLIwAcC4735315viEAiCaPuqSx5vLDn+tsQv0H1NAFjaJwAsCxMAvEgnBMJaakNAAFjaJwAsCxMAvKS9QqB+REpCQABY2icALAsTALyibgiEQW1bGkJAAFjaJwAsCxMA9GzDhtYbJ4XACT9M5KIVAJb2CQDLwgQAU7Zx4643hGG0OA6BixMIAQFgaZ8AsCxMALDf4hAYHGwcFoa1py9Z/URjtkJAAFjaJwAsCxMAHLBSqfX6iSFw5AyHgACwtE8AWBYmAJg2E0Jg60yGgACwtE8AWBYmAJh2k0Pgyfp0h4AAsLRPAFgWJgCYMXEIDA/XF4Zh9EQnBE68fVouWgFgaZ8AsCxMADDjxkMgqP7i0suejA40BASApX0CwLIwAcCsufji1uu6IbD68i31o79yx35dtALA0j4BYFmYAGDWdUMgCKqPxyGw7OSphYAAsLRPAFgWJgBITBwClcruELhs7VO1ZT2+IyAALO0TAJaFCQASNx4CYfXnvYSAALC0TwBYFiYASI1uCIRh9FgnBE7+0T4vWgFgaZ8AsCxMAJA6p5zSenUlaP7N7hDY8qIQEACW9gkAy8IEAKkVh8BwpTknDGqPxiFw7Kl3di5aAWBpnwCwLEwAkHojI63XDg3VF4RBtPmyy5+M1q3f1hQAluYJAMvCBACZUSq1XhOG9fnloLap/UT835L4GgSA9TIBYFmYACBzWq3Wq+Il8f8WANbLBIBlYQIApkAAWC8TAJaFCQCYAgFgvUwAWBYmAGAKBID1MgFgWZgAgCkQANbLBIBlYQIApkAAWC8TAJaFCQCYAgFgvUwAWBYmAGAKBID1MgFgWZgAgCkQANbLBIBlYQIApkAAWC8TAJaFCQCYAgFgvUwAWBYmAGAKBID1MgFgWZgAgCkQANbLBIBlYQIApkAAWC8TAJaFCQCYgk4AXLRZANjLTgBYFiYAYArK5dqnwrAW/eMFjzYOP/bWxH+ALZ0TAJaFCQCYolKp9eZKpbmsHNZ2nL/qsWafELC9JgAsCxMAsJ+6IRCGte0XrNpcFwLWnQCwLEwAwAGaGAKrLnm8seT42xL/wbZkJwAsCxMAME2++91db6qEtWVBEAmBgk8AWBYmAGCa7RUCdSFQvAkAy8IEAMyQbgiEQW1bHAJHCIHCTABYFiYAYIZt2NB6oxAo1gSAZWECAGbJxo273hCG0eLxEDjhh4k/ANjMTABYFiYAYJbFITA42DgsDGtbLxYCuZwAsCxMAEBCSqXW6/eEwNOXrH6icaQQyM0EgGVhAgASJgTyNwFgWZgAgJSYEAJbL1n9ZF0IZHcCwFK/vpGfCwBIGSGQ/QkAS/Fun7d4dMGiRbe/LqnrE3gFcQgMD9cXBkH1iU4InHh70g8c1uMEgKVp7eshmts3cvHB/aO/n9Q1CeyHiy9uvS4OgTCo/uLSy56Mlp4gBNI+AWAp2b3tHbdw6chbk7oWgWnQDYEgqD6++vIt9WUn35H0g4u9xASAJba+kWfm9o2W5i8Z+YzP+CFn4hCoVHaHwGVrn6oJgfRNANjsb+TxuX0jZ/zt4ut/M6nrDpgl4yEQVn/eCYGvCIG0TADYrK1v9Kb5S0bnONQHBfSiEDj5R8k/KBV8AsBmdH0j1fhQ37zDRz6V1DUGpMgpp7ReXQmafxOG0WOXrd0iBBKcALAZWd/oz+b2jy6d0zfy5qSuLSDF4hAYrjTnhEHt0TgEjj31zuQfuAo2AWDTtkmH+gB6IASSmwCwA9/uQ31zjxj5QFLXEZBx3RAIwujRyy4XArMxAWD7vT2H+v7jKSOvTer6AXJmYgisEQIzOgFgU9qeQ30L+q77vaSuGaAAxj8aCKNH1qx9SgjMwASA9bL2/fTT+FDfvGO++6akrhWggOIQGBxsfDYoRQ9efsXWSAhM3wSAveQc6gPSohsCpVJ0/5p1T1XjEJi/JAUPlBmeALAXrW/k5+375dR5h9/87qSuC4B9arVar+qEQBDdt27907XjT7tLCOznBIDt3siu9qv97znUB2SCEDjwCYDCb0d8qG/uETd8MqlrAJhm8dvlSX8Ns2VPCPzfIIgeXLvuaR8NTGECoKDrG7mj/ecih/oghyqV2rwwrN03NNT4P/ETZNJfz2yIv8/4+w2D6IG1V2ytfVkIvOIEQHE2t290p0N9UACDg/XPrVn71M7L20+EpVL13+JXyEV5V2DPOwL/Oz4seMW6bTu+fOqPhcBLTADkf3P7Rx+LD/UdcsQN70rqfgZmURwA/3jho7X4ASD+ZTvxX58LBqJHhobqC0ql1muS/vpmy9BQ7TNBUP3puvXbopO+9pPEH4zTNgGQz83tG/mlQ31QUBMDoLs4BOJ/UKeoIVBqh8D6K3eHwPwl1yf+IJ2GCYDcrXOob/7i0U8kdZ8CCdtXAHS39KQ7WqvXbKkGpejRSqW+sGghEATVe9ZfuV0I9AuAHO329hYtWnT7G5O6L4GUeLkA6C4OgUsv21JrPyE+VsQQCEvVu4seAgIgu3OoD9inXgKgu24IhGH0RLncOGxkpFWYzww7Hw2Udtx9ZUFDQABkcSMPtf887u8XjbwzqfsNSLGpBEB3cQhcsqaYIVCpNP+6VIru2BMCu4oSAgIgG5t4qG/OnFJh3qkD9sP+BEB3u98ReCL+aODJgobAbVddtaNahBAQAOle+0l/e/s2OufgxTd+JKn7CMiYAwmA7jrvCKwubggMBNG/XH319vrJy+/ZtSCnISAAUjuH+oD9Mx0B0F0cAqsufTwKw+oWIZCvEBAA6Vn3UN/BS77/V0ndH0AOTGcAdHfUie0QWP14FATVpwYHixcCpVJ069VX78hVCAiA5Nd+0n9wnkN9wHSZiQDobmIIDJVrR2/cuOsNSX+/syUOgfb3PZqXEBAAST3pO9QHzJCZDIDulp50ezsEfhGFYa24ITCwo3by8rszGwICYLaf+Hcf6pu35PoPJ3WbAzk3GwHQ3ZEnTg6Bkctav5L09z9bhsPmXwWl3SFw6hk/3bXgiBsSf5IRAKlc51Df/zv6B7+a1G0NFMRsBkB3S0/YHQJBEG0tWggMDjb/Mg6BgYEd9dO+8bNfZiUEBMDMbfxf6usf/Yukbl+ggJIIgO6WHH9b68JvP1YVAukPAQEwA0/8/aMPtP88bn7/996R1O0KFFiSAdBd/3G3tS5YtbneDoGnh8qNQoVApdL8i9KEEFiY0hAQANP0pO9QH5AWaQiAF4VAGFUrlfoJAwO7CvM56HC58edpDgEBcIBP/P0jT7af/M9YeNjIh5K6DQEmSVMAjIfA8f/SDoHH6mFYK1wItO+PTw+Utv9T2kJAAOz3HOoD0imNASAEDjqoXK7/YSmIvjMwUK2ddkbyISAAet/c/tGx9tYe3Dfy6aRuL4BXlOYAGA+B4yaHwIYNrcL8u+fdEAiCavOrZ92bWAgIgB7WN3J/+8/j2q/2357U7QTQsywEQHd97RA496LNte4ZgSKFwPBw7Q9KwY7EQkAA7HvdQ33zFo9+9qCDWq9K6vYBmLIsBcDEEDjvws31MKhFlUp0UpFCYHCw9vtJhIAA2Gt9o0/Eh/oO7rvut5K6TQAOSBYDYF8hUC7XTt+4ceuvJ317zpZOCJQmhMCRMxsCAmB8nUN9CxeOFOavqgI5leUA2FcIBEHtq0UKgXb4fGpgoFopBdXG6Wfd99xMhUCRA6B7qG/ekuv+MKnvH2Da5SEAxkPgy7dOCoFSadtbkr59Z0scAqVStRyUosbXVtz//CFLpzcEChkADvUBeZanABACncOCvzcTIVCUAHCoDyiMPAZAd4d96ZbWORc8UgvDqFbkEFh+9gPPHWgI5D4AHOoDiibPATApBM7f1CyHtVpQrn11cHD7W5O+3WfL0FD0yckhcKMAmLzb26/2FyxadPvrkvreABJRhAB4UQiUa41yuf7NIoVApRJ9ojSw/yGQpwBo/7ei9qv9ixcsvuEPkvp+ABJXpAB4UQiEtWbRQiAMxz4yMFBdH//1wamEQB4CoP2kf1/7z+MOXnzj25L6PgBSo4gB0N2ivULg2mt3FOaJIQ6BIIjWttdYvuL+VwyBDAfA8/P6Rq+Zv2TkMw71AUxQ5ACYGALfOm/TWCcEgvqKIoXA8PDYh+MQCMPa2JkrH3zJEMhaAMztH/1FfKhv/pE3fjCprxkg1QTAhBA45pbWN899uNl+MmzEITAwsKMwf/977xA49KjJIZChAHCoD6AXAuDlQiBqtp8UVxYpBAYHxz7UDYFvrHzo2W4IpDkAHOoD2A8C4GVCIP5o4PxHxuIQKIXRWZVK9R1J31+zpVIZ+2hYiq4Mg6i5fMUDz5530eaxFAbAvfMc6gPYPwKghxA4ZvcZgfijgfaTYqFCID4s2I6fK4cG68+nJAAc6gOYDgJgKiHwg9bK88bfETh7w4bonUnff7MlPiOwYUMzsQN1c/tGS3P7R/9h7hevf29SXwNArgiA/QuBFec+PBYGtUZYrl14ban+nqTvRwCYEgEwDSEQRs0wrF5ULte9OgUgGwTAge8LR9/cOnPlg0Ig/NTfAAAI4UlEQVQAgOwQANO3zx99U+vMbz30THxyPg6BoaHG+5K+fwFgnwTADIZAGO1sb40QACB1BMDM7dCjJofANdc03p/0/Q0AHQJgtkOgJgQASJ4AmN0Q+PrZD+w5I1BbUy43PpD0/Q9AQQmA2V98RqATAmEt/l0Da4UAALNOAKQjBNorxf/sbtLXAwAFIQCSXxwC8S/c2f2OQC2IfxFP0tcFADknANKz+IzA7hCIhAAAM0sApG97h8Dw8NjHkr5OAMgZAZDeHbr0xkkhcE248+NJXy8A5IQASP8OWXpD6/Sz7hUCAEwfAZCdfa4TAvc9FwbVsd1nBHb+dtLXDwAZJQCyt/EQCGtjpTC6RggAMGUCILvrhMCZ9z4fBFEnBIaGqr+T9PUEQEYIgOzvc0feKAQAmBoBkJ/FIXDaGT97vlSqNuIQ2BBGv5v09QVASgmA/K0bAkFQbZaC6DtCAIAXEQD53cQQCIPouvZ9/emkrzcAUkIA5H/dEBgY2NEJgaGh+h8lfd0BkDABUJxNDIGgVP2+EAAoMAFQvL0QAtVGHAIbyvU/Tvo6BGCWCYDibuGRN7wQAkH1+4ODjT9J+noEYJYIAFtwxA2tk5ffsycEIiEAUAQCwLrbHQJ37+qcEWiHwNBQ40+Tvj4BmCECwPbegiXXd0Lg6oFqMyzVbt5QbvxZ0tcpANNMANhLbeERN7ROOeOnnRAYGKheNzAQvSvp6xWAaSIA7JUWh8BFlz6+c6hS/2LS1ysA00QAWC9bef6mxlClcXjS1ysA00QAWC8TAAA5IwCslwkAgJwRANbLBABAzggA62UCACBnBID1MgEAkDMCwHqZAADIGQFgvUwAAOSMALBeJgAAckYAWC8TAAA5IwCslwkAgJwRANbLBABAzggA62UCACBnBID1MgEAkDMCwHqZAADIGQFgvUwAAOSMALBeJgAAckYAWC8TAAA5IwCslwkAgJwRANbLBABAzggA62UCACBnBID1MgEAkDMCwHqZAADIGQFgvUwAAOSMALBeJgAAckYAWC8TAAA5IwCslwkAgJwRANbLBABAzggA62UCACBnBID1MgEAkDMCwHqZAADIGQFgvUwAAOSMALBeJgAAckYAWC8TAAA5IwCslwkAgJwRANbLBABAzggA62UCACBnBID1MgEAkDMCwHqZAADIGQFgvUwAAOSMALBeJgAAckYAWC8TAAA5IwCslwkAgJwRANbLBABAzggA62UCACBnBID1MgEAkDMCwHqZAADIGQFgvUwAAOSMALBeJgAAckYAWC8TAAA5IwCslwkAgJwRANbLBABAzggA62UCACBn2gEw/5LVTzY/d+SNiT/JWHonAAByZnBw+1uDIBoOSlHj9LPufU4I2L4mAAByamgo+mRpoFqOQ2D52Q88d8hSIWAvTAAA5FwYjn1kYKC6XgjYxAkAgIKIQyAIorXtNZavuF8IFHwCAKBghofHPhyHQBjWxs5c+aAQKOgEAEBBCYFiTwAAFNzg4NiHuiHwjZUPPXvoUUKgCBMAAHTEIRCG0eVCoBgTAABMEobN3yqF1VVhEDU7IeCjgVxOAACwT+MhEEbNM1c+tFMI5GsCAICX1QmB0o5OCKw49+FnvnD0zYk/eZkAAGCWbNjQ/GAnBIJaQwhkfwIAgCmJQyAIqhcLgWxPAACwXwYHm78pBLI7AQDAAZkYAt889992fmGZEMjCBAAA06Jcrr07CKKVYSgEsjABAMC0ikMgLNXPrpTrzZXnbXrmi0IglRMAAMyISSFw/iM7hUC6JgAAmFEDA9G7JoXAMT9I/MnPBAAAs2RyCGwSAgIAgCKJQyAIqsvDsFbvhMAyISAAACiMDRuid3ZD4JzzNzWFgAAAoEAmhsC5F2weO+xLtyT+5FiECQAAUiEOgXYEfK0TAhdubh72pVsTf5LM8wQAAKlSqVTfEYdAuVyrCQEBAEDB7B0Chx8rBAQAAIUxMLDj7RNDYLF3BAQAAMUxNPTUr4Vh9BUhIAAAKKA4BCqV6KR2CEQ+GhAAABTMeAiEtfr5qx4TAgIAgCKJQ6A8WD+xHQK1OAQWf1kICAAACqNUar1ZCAgAAAoqDoFKpbmsHQI74hDo89GAAACgOLohEIa17Res2lz3joAAAKBAJobAqksebyw5/rbEn3zTMAEAQCF897u73lQJa8uCIBICAgCAotkrBOpFDQEBAEAhdUMgDGrb4hA4omAhIAAAKLQNG1pvnBQCJ/ww8SdnAQAAs2Tjxl1vCMNocRwCFxcgBAQAAEwQh8DgYOOwMKxtzXMICAAA2IdSqfX6PSHw9CWrn2gcmbMQEAAA8DImhMDWPIWAAACAHkwOgSfrWQ8BAQAAUxCHwPBwfWEYRk90QuDE2xN/MhcAADBLxkMgqP7i0suejLIWAgIAAA7AxRe3XtcNgdWXb6kf/ZU7En9yFwAAMEu6IRAE1cfjEFh2crpDQAAAwDSKQ6BS2R0Cl619qpbWEBAAADADxkMgrP68EwIp+2hAAADADOqGQBhGj+1+R+BHiT/5CwAAmCWnnNJ6dSVo/s3uENiSeAgIAACYRXEIDFeac8Kg9mgcAseeeqcAAICiSDoEBAAAJKgbAkEYPXrZ5bMXAgIAAFJgYgismYUQEAAAkCJxCAwONj4blKIH16x9asZCQAAAQAqNh0AQ3b9m3VPVOATmLxEAAFAI3RAolaL7r1j3dO340+6alhAQAACQAa1W61WdEAii+9atP/AQEAAAkCHTFQICAAAyqBsCQRDde8W6bVMOAQEAABk2/o5AqfqzqYSAAACAnBgaqn0mDoF167dFrxQCAgAAcqYTAkH1p+uv3Bad9LWfCAAAKJI4BIKgek83BOYvuV4AAEBRvBAC28dDQAAAQEEMDtb/Z/cdgTVrtzwrAACgQCqV+v8Iw+jH7SD4fNJfCwAAAAAAAAAAAAAAAAAAAAAAAAAAAAAAAAAAAAAAAAAAAAAAAAAAAAAAAAAAAAAAAAAAAAAAAAAAAAAAAAAAAAAAAAAAAAAAAAAAAAAAAADA3v4/qUbsv7ZhEXgAAAAASUVORK5CYII=;" vertex="1" parent="96xqmQHdzvCccrLlqiye-63">
          <mxGeometry x="4.0740740740740735" y="7.733108108108108" width="19.885135135135133" height="19.885135135135133" as="geometry" />
        </mxCell>
        <mxCell id="96xqmQHdzvCccrLlqiye-66" value="terraform.tfstate" style="text;html=1;align=center;verticalAlign=middle;resizable=0;points=[];autosize=1;strokeColor=none;fillColor=none;fontSize=10;" vertex="1" parent="96xqmQHdzvCccrLlqiye-67">
          <mxGeometry y="30.195945945945944" width="89" height="24" as="geometry" />
        </mxCell>
        <mxCell id="96xqmQHdzvCccrLlqiye-71" value="" style="rounded=0;whiteSpace=wrap;html=1;strokeColor=none;" vertex="1" parent="96xqmQHdzvCccrLlqiye-76">
          <mxGeometry x="5.703703703703703" y="16.202702702702705" width="75.77777777777777" height="39.770270270270274" as="geometry" />
        </mxCell>
        <mxCell id="96xqmQHdzvCccrLlqiye-75" value="" style="group" vertex="1" connectable="0" parent="96xqmQHdzvCccrLlqiye-76">
          <mxGeometry x="4.0740740740740735" width="73.33333333333333" height="66.28378378378378" as="geometry" />
        </mxCell>
        <mxCell id="96xqmQHdzvCccrLlqiye-68" value="" style="shape=image;verticalLabelPosition=bottom;labelBackgroundColor=default;verticalAlign=top;aspect=fixed;imageAspect=0;image=data:image/png,iVBORw0KGgoAAAANSUhEUgAAAUAAAAFACAYAAADNkKWqAAAWQ0lEQVR4nO3dfYxc1XmA8SfT0Wq12lrblWutXMt1HMeyEELUpYhSagiiFEVRgiJEXUJpgkiEEIrSiKYJIlRRhFAUIUQjlCI3jSgilBJCEaUpog6hDqUJJQkJHzEbY2yMbWxj8OfaXq+3f7yzZXHW2XNn7p07987zk65szN2dM7M775yP97wHJEmSJEmSJEmSJEmSJEmSJEmSJEmSJEmSJEmSJEmSJEmSJEmSJEmSJEmSJEmSJEmSJEmSJEmSJEmSJEmSJEmSJEmSJEmSJEmSJEmSJEmSJEmSJEmSJEmSJEmSJEmSJEmSJEmSJEmSJEmSJEmSJEmSJEmSJEmSJEmSJEmSJEmSJEmSJPWW95TdAGmWAWAhsARYBIwB7wcWt66FwDCwABgEGrO+9ljrOgLsBfYAu1rXeOvPPcBOYDuwv/Bno55nAFRZBohgtgg4A/jD1p8LgVEiyA3z7iDXiSPAQSI4vg28AjwH/KD194Ot60ROj6cKMACqmxrAMuA8IuCtJoLeYIltAtgGPA9sAP4H+BERDFVzBkAVbRhYCZwN/BmwChih/KA3lxPE0HgP8D3gEeCnxLD5eIntklQxC4ArgIeAHcB0Ba+jwDPA7URvNa/huKQaahI9va8C+yg/gOV9/Rz4HDGMNxhKAmKYex5wD7AFmKL8YFXUNUkEwi8DK4jFHEl9aAC4iBjmHqL84NTtawfvDI8l9YlBYA0R+N6i/EBU5jUF7CaG/afj0LhSXAVWVmPAXwNXETl73TaTz3cEOMw7q7ODRI90FBgqoV0AvwDuBP6RaJt6nAFQqUaBjwK3EMnLRThBpKC8QuTmvQxsav19K+k7OAaJ4LyY2FWyHHgfsLT13zO7SoryM6JH+C/E7hT1KAOg5tMEzgK+CFxAvr2rI0RA20rk3W0ggt0uYrdGnr2oBrFYM9q6TgP+ADiXCIwz2+vysh/4FjFH+EvcYSJVzgLgs8QcV55zZluAdcDHiZXUZpeez1yaxNzdx4F7gdfId45wHLgSV4ulymgQOza+C0zQeRCYBDYTaTKXEUPQXtwJMkQMkdcSCzybySel5xBwFzEUl9TjLgNeIJ8e0Cbg88Se3yqtkA4AZwI3Ai+RT8/3WWI6QVIPWgDcSue9vgmiB3Up9Rj6DRALQI8CB+jstXkT+Ay92QOW+tYS4Bt0FvwOAU8QPciR7ja/K0aBS4An6SwQ7iNWictII5J0kpXA07Q/3zUFPAVcTn/0bAaJHuFTdDZHeD+xAi2pJBcRe1vbDXybgWsoLjewVzWIHuE1RGHVdl6/ydbXuoNEKsF5wEbaD3734D7YBpHKcw/tTx88Syy4SOqCJjFcfZP23rA/IRY4yszf60UX0P5UwpbW19sTlAq2Fnid7G/SCeA+YsimuS0lFpPaWSQZJ3rlBkGpAA1izq+dCi47iF0h9vrmN0hUw36D7K/zRqLSjqScXUwkJmed63sBuBCDXxYNojr2erIPiV+jeonjUk87g/ZWezfgm7ETy4nDlbIGwaeJ9CRJHVpOLFxkDX7fwGTdPAwCd5C9avaTRP1FSW0aJaqcZF3s+Gbra5WPBcBNZEuVmSQ+hOq4q0bqijuI4x1T33RHiQN/hstobB+4gWwn5k0RgdP5VymDJlG2PkvwOwTcjMGvSAPAtWQLgm8S9QolJVpNbFPL0tP4Oga/bhgg+3D4deI8YknzWEis3maZ97uNmKdS99xEtoWRx3FRRPq1BohhbOrQd4qoc2fw674R4hS51BSZo8TP1vlA6RQuItv80tNYqr1MQ8BjZJsPvLCUlko9bikR0FLfTONYhaQXrCRqC6b+3DbgUFj6FTeRPvQ9QFRudodHb1hDenWeKWJftqSW00hfVZyZS1LvaBDFVVMXRV4nKsdIfW+EKFOVOoR6FIdQvWiI2LWTsigyBTyIPXhVRINYaR0jFh1Oa12riAOJOjlL43LSew5vth5XvWkV6UeSThGLXmrTe8puQA01iPMxxojJ7d8jSqavInpqjVnXjBPAMWAP8CJxDu3PgK3A9ta/n8oCYhXxnIS2HQa+APxd8rNRtzWIA5fuIy3d5XvAx4CdRTZKmk+DmJO5jVila6fi8smf7q8R9eS+RByoPddwZy3pvb/1WOCgCprAw6T9TCeI4qtSKc4kVl/H6eyIxJSAuJHYTD9Tkn4h8Ezi179FFOhUNZxBevHa57BijLpogPgFvZ3YbztJcYHv5GuSeGPcCnwu8bEnW20dKOLFUCGaxEp9yofqBHA1LoioC1YQw9x2T1Qr4xonFlpULWOkV/F+Cqc3VKAFwPUUP9Qtosd4QwGvh4rXIEpnpeR3ThJHlUq5Wwyso7tD3byun+Ne3yobJb0X+DCdpVNJ79IEPkj2k9R66bom91dF3XY1aR++u7FQgnIySAw/dlB+EGv32oQFTutgGWmHWk0RRyAokXXF5tYEbgE+RT4B5BjwSyKxeRtwsPVvJ1qPtYBIaVlCJE/nkdJwnKjwfDCH76VybQXuZ/7KPQ0iL/QLRNK7lNkI8BU6m++bSVV5gBiCnk7sDllApKI0efeOkAEi0I4SQXANEYCfAt5osw3O/dXLGOkJ75eX1EZVXBP4KtnOajj5GgeuI/IEO+1hjxDB8E5ifidLO77c4WOr9zxI2s/+blwMUUaDRHJxllPUZvf4niT2cBb1i7cQuJHI+p8vDWcL5v3V0YdIq/a9CQteKIOZIyQPkD34vUYEpm6Ul2oQc4Q3th53rmH6FNGLdddH/SwmbTFkEvcHK4NLyL7aOwk8QUxMl7EFaTnv7EGe3a4dROUZ1dMdpP1+3ltWA1Uti4jyU1mC3wGil7WohPbO1iTOAfkysegxRcwXuie0vtaQtkC3GQskaB5DwNfIFvwOEUUIemmSuUHkit1MLL6ovsZIS8x/C5OiNY+ryLbiu5vIypfKMkhsy5zvd3WKmCJxNKA5jRErqqnBb4LI6eulnp/606dIy1a4nxjlSO8yQCQapyY7T2BenXrHWaSVY9tI+fPU6kGryLbquw731Kp3DBHBLSVTwTlh/YpbSQ9+L+CWMvWeh0j7/V1bVgOroB8nSM8k/ZfibeCvgFeKa47UlmcS7/v9QltRcf0YAD9E2jaxE8C3ge8X2hqpPc8Tv6PzOY3+fJ9rDk3Si5uO435K9a7UhZBniX3kmkO/fTJcTPp83t3AywW2RerEfmBXwn3DGABPqZ8CYBP4SOK9+4F/IIqKSr1oP7A34b4FeFrcKfVTAFwKnJN47z8BOwtsi9Sp1B7gTLVxzaGfAuByopTUfPYCjxTcFqlTR0g77mCQCIKaQz8FwPNJ28b2MvCjgtsideoEaUPgBg6BT6mfAuDZifd9n8j/k3rdm4n3/XahraiwfgmAw6QNfwEeK7IhUo5ST/yzLuAp1P1YzCFiL+RHSNsUvhNTX1QdRxLvsyLMKdQxADaIYHcB8JdEABwjrbf7CzxPVdVxLPE+S7idQt0C4BJin+9fEGfxZh3iGwBVJal5qh6QdQp1CIANIvBdRQS+5bT3vI4T299SP1WlsvXLHH5hqh4AB4kqzZ8AVnf4vY4Ar3baIKmLUgNg6mJJ36lqABwijrL8IjHHl8cn4RFcAFG1pP7erwRuaP39MJHmdRDYQ+QS7mr9W0p1mVqpWgBsEAsatwCXku/y/mFga47fTypaagA8t3XNOM47O0n2t66twIvAk0RHYCZI9l1Q7FVNYoHj52Q7xjLleo0451eqkmvJ/70wTSRYPw58iRhpuYpcsiXEgd/7yOcHPEnUBXyIOOZyMf6QVT3XUUwAnLmmiPfcc8QxEufitrquWwk8Svww8vihPgt8lkiTqdoUgDTb9RQbAE++3iLei1fge6dwA8AHSat6O9+n2CbgNuI8EKkuPk13A+DsazPwOWJOXjkbAD4OvE5nw9xx4jzf0zAZVPXzGcoLgNPE4ew/JHqE7jfOyQDxyXaA9n8wW4Cb8dNJ9XYD5QbA2YFwPTFH6NC4A8NEj+0Q7f0g3gDuoP3dIFKV3Ej5wW/2tZtYrFyKu1Ta8nna7/n9hDjy0sCnfnEt8MJJ1yZifm7m2kJ0DHYDExQfBKeIYfF5BT7v2hmk/SX93cQCh2ks0q83Ux36TGIjwU3APcAGIkjmlWkxTaTP3IKluObVIHLxsq72ThGLHJdi8JPa1STmylcTixkPEj3HdqehZl9HgXXAsm49mSq6iOjFZQ1+j+PB5VIRFhHB8D4i96/TQLiByLvVSU4n5i2yvJiTwNeI3RuSijNEbES4HXiJeO+1Oy/4ArAGF0f+30LgYbJ3qe/EeQWpmxrAKmLOMOtobfa1Ebiwy23vWXeRbdJ1gsg8N6FZKs8yYgTW7r78fcRxFX3bE2wQ835ZJlkncEVJ6hWDRMrZ07Q3LN5IBMG+tAx4huxzfq70Sr1ljJiSaie/8CX6cGGkSfah7zpivlBS7xkkzuMZJ/vCyJP0WYrMGrLl+71E2nm+ksrTAM4m8gez9gTX0SdTWyPAE6S/MON0ftCRpO5ZStQLzBIAjxLz+7V3JfFkU1+Ua+jjlSKpolYA3yXbNNc+ar53eAlRiTl1buBeojKMpOoZAx4hW0/waaIHWUvXkd77GyeyzyVV1wpiu2qWRZE7qGE1pybp292miGKokqpvBXHiYmoQ3E0Nh8JXkP4CPIYpL1KdXEi2oy3WU6Py+iOkzwVMEWeQSqqPJnF2SZYF0LWltLQA55Ce97ehpDZKKtYwcD/pK8M/pCbVnr5K+jL45SW1UVLxVhJ7gFN7gZVfC1hA+hN+Ck+cl+ruOtKLJ4xT8cpPl5Fe8eXqktooqXtGiJL7qQsilY0LTeKgopQx/w76bEO01MfOJX1BpLJZIaNEZnfKk/wmlrqS+skDpMWGA0Tt0Mo5nbQaYYeo0ZK3pCQXEsdwpgTBu0pqY0euIe3JOfyV+s8Q6fnBmyhwgbSoait/nHjfj4FXC2qDpN50mKjyfjzh3jHg4qIaUkQAHCb2AKZYX8DjS+p9PwWeT7hvCDifglJiigiAy4ioPZ9jRA9QUv/ZC/w7cCLh3jUUtD+4iAC4lLSl623AzgIeX1LvO04UTt2fcO9KCqoVWEQAXERaMdNtxKeApP70v8D2hPuaFFQmq4gA+N7E77sVA6DUz44A/5F47/kUEK+KCIBLEu/bTtoqkKT62kDaPOAyCtgVUkQAXJ543+YCHltStfyStGHwQgqYByxqDjDFtgIeW1K17AJeSbhvhAJqBBYRAFMPOU5Z/ZFUb2+T1hkapiI9wNQAeLCAx5ZULceAlxLvfV/eD15mADxcwGNLqp5XE++rVQ/wWAGPLal6tibeV4k5wJQlbajhAciS2pK6Iyz3qjBFBMDUnl2l6/1Lys3bifflvh+4iAB4JPG+2hx+LKkjqQuiqdNryYoIgKnR3FPgJEGJo8YiAuCexPtSSmZJ0ozc1w3KDIC/W8BjS6qe1J5d7pkjRQTA1C1uS3AlWFKJqXNFBMDxxPuW4jygpPT6AanrC8mKCIDbSYvUi3ElWFJ6AMy9fmhRQ+CUSL0UF0IkpW9xS11fSFZUAEyJ1IPA6gIeX1K1vD/xvlfzfuCihsC7Eu/9owIeX1J1DJB+jO6WvB+8qJ0gP0q89xzSx/+S6mchUe5+PseI6tG5KiIAAvww8b4FwNkFtUFS71tEWgB8mwKO0S0qAP6YtIrPw8CfYGEEqV+tIG0UuJcCjtEoKgDuIW0Y3AAuxnxAqV/9KWlxaDsVCoAHiQCYUhtwJa4GS/1okPQDz39KeqWpnnAe8BYwnXA9hMNgqd9cAuwjLUZcUkQDiuoBQswDppa6Pgt7gVI/aQIfINYB5rMTeL6IRhQZAA8DDybeuwT48wLbIqm3jAIfJi0G/TcF7APuhrOAHaR1cfcRgVBS/V0OTDF/XDgKXFdSGzs2TMzvpQTAaeAWLJEl1d0Q8ChpMWE3cHo5zczHxaQHwNeJ3SGS6utS0hdIHympjbkZIE5+Tw2Cd2MvUKqrBum9v0ngynKama9PE2P51LnAD5bTTEkFu4C0ub9p4DnStsn1vMXE/uDUXuDTFHAKvKRSjQHrSY8DN1FspkpXXU/6E58CbqZGT14SnwImSIsBE9QsK2QE2EB6EHwLuKKUlkrK2+mkp8RNAbeX08ziNIC1wAHSg+Bm0stlS+pNC4D7SJ/720zkENfOAPAw6QFwmsgjtGiqVE0NYhF0kvT3/Feo8fTXamAT6S/GJPB10s8OldQ7Pkzk96a+3zdS81FfE7iBbL3AQ8QiivmBUnWMkS0H+CjwWfrgfd4AHiNbEJwkutKWzZJ63zLgSbK9xx8jagT2hXOAcbK9QLuBa+mDTwipwkaBB8g277eDSJLuK2uJ4W2WIHgUuJo++qSQKmQhcD/Zgt808Bn6sGMzCNxK+ja5mesA8CVieV1Sb1hK9PxS012mW/f21dD3ZKNknw+cJjLF78QgKPWCUeBxsvf8xoEzS2hvT1lGtl0is68NWEJLKtMlwAtkf+++SZTLE3AGsIXsL+JU6+suJ+18AUn5GCYWJdt53x4gUl7M6pjlAmIbTDs9wQngHuKgZUnFWgl8k+xD3unW19xGHy56zKcBXEi2nSIn9wY3EWcIuH1Oyt8IUaR0C9kWO2ZfXyPmDDWHmSCYZfvMXL3BJ4A1+Ckj5aFBLFY8SPbUtdkdlEeJIKp5rAaeof0gOPOCPw58FF90qR1NokNyD+0Nd2e/F9fh+zBZg5hneIbOXvhposz+eqIg4xhOvEq/TpNIaP4wUcbqDTp7/00Ad+G0VFuWEJOt7c43nHxtIn4YlxI/ZElhCLiI2JzwHPm85w61vp/VnDowAtxI559Es68DxIrz/cBVwNlEJrupNKq7BvF7vowoPHol8A2icss+8utsvNH63j27y+M9ZTcggybRa7uVYlJd9gKvAltb13jrz+3ATuBt4AhwvIDHlvLWIA4WW0r0voaJIejvEKOqha3/N/P3vL0I/A3wbwV879xUKQDOGCXOC7gUt8FJveYw8M/AF4BdJbdlXr9RdgPaMAH8J/AycBrwW9S4fLZUESeIUdPfEknOe8ttTpoqBkCAY8DzwHeIIen7ce5OKstBYi79k0Tn5Gi5zUlX1QA44yDwA+Bfgd8kUlwMhFJ3HCaKkVwP/D0VGPKerIpzgKcyQFSF+SRwGT288iTVwIvAHcC3qchwdy51CoCzrQQ+QSyUrMDtcFIeDhMjrnuBb1GDjIi6BkCIhZEVwHnAx4hyWyMYDKUsjhFD2/8C7gZ+DOwptUU5qnMAnK1BBMALgPOJpOfFZTZI6mEngG1E0NtA5PJtL7VFBemXADjbMNETXAV8gMiEX0LkF47iPmH1l+NEkv8e3unpbQB+Buwnhr211Y8B8GQDRG9wMREIlwLvJbYJLWpdM4HR4KiqOkzsZNpFBLttxNa3V4kdT9ta15GS2idJkiRJkiRJkiRJkiRJkiRJkiRJkiRJkiRJkiRJkiRJkiRJkiRJkiRJkiRJkiRJkiRJkiRJkiRJkiRJkiRJkiRJkiRJkiRJkiRJkiRJkiRJkiRJkiRJkiRJkiRJkiRJkiRJkiRJkiRJkiRJkiRJkiRJkiRJkiRJkiRJkiRJkiRJkiRJwP8BIWipkJtxdVIAAAAASUVORK5CYII=;" vertex="1" parent="96xqmQHdzvCccrLlqiye-75">
          <mxGeometry width="66.28378378378378" height="66.28378378378378" as="geometry" />
        </mxCell>
        <mxCell id="96xqmQHdzvCccrLlqiye-15" value="" style="shape=image;verticalLabelPosition=bottom;labelBackgroundColor=default;verticalAlign=top;aspect=fixed;imageAspect=0;image=data:image/png,iVBORw0KGgoAAAANSUhEUgAAAgAAAAIACAYAAAD0eNT6AAAABGdBTUEAALGPC/xhBQAAAAFzUkdCAK7OHOkAAAAgY0hSTQAAeiYAAICEAAD6AAAAgOgAAHUwAADqYAAAOpgAABdwnLpRPAAAIABJREFUeJzt3XmQnPVh52F8J7YT346vOD6T2HES59rKtber9ipX7daucqDLYFugGYFAGHOZAIUtY7CQCbcMQggJmH7f7pkRWBWXg2e4DMHgYAw2dwTCGISQ1G8fIw6rt9+WepgRAnqkmXmv56n6lv6Dme53uj/d/ZPmoIMAAAAAAAAAAAAAAAAAAAAAAAAAAAAAAAAAAAAAAAAAAAAAAAAAAAAAAAAAAAAAAAAAAAAAAAAAAAAAAAAAAAAAAAAAAAAAAAAAAAAAAAAAKJyhSv34Uim6dXCw+e+T/loAgFkyOFg/+durf7Hrqqu2N9oh8MOhoeZ/SPprAgBmWBwAX19x/655/aOt40+7q7X+ynYIBNU7Bwcbn036awMAZsjEAOhOCABAzu0rACaGwJVXba8LAQDImZcLgBeFQKn6YyEAADnQSwDsHQJBUL1LCABAhk0lALo79tQ7W+vWb4tKpR0/EQIAkEH7EwATQ+CKdVvrA0H1njgEWq3Wq5L+fgCAHhxIAMSbv2R3CKxd93QtCKIHhyvNOUIAAFLuQANACABABk1XALwoBK54ulYqRQ8JAQBIoekOgL1D4PIrtgoBAEibmQqAiVt28o/2hEB1kxAAgBSYjQDYVwgMDdUXnHJK69VJf/8AUEizGQCTQmDtU/FhwU4IlEqt1yR9OwBAoSQRAJPfEWiHwED0iBAAgFmUZABMDIE1a4UAAMyaNATAXmcEoqAUPSoEAGAGpSkAult60h2t1Wu2VOMQqFTqC4UAAEyzNAbAxBC49LIttSCoPiYEAGAapTkAJobAJWu21MIweqJcbhw2MtJ6bdK3GwBkWhYCYO8QCILqk0IAAA5AlgJg8kcDTwgBANhfWQyAiSGw6tLHIyEAAFOU5QDYRwg8NTgoBADgFeUhALo76sR2CKzeHQLDg42jNm7c9Yakb18ASKU8BcAL7wjc3gmBMKw9NVSuHS0EAGAveQyA7o48MQ6BXwgBANhbngPgpUJg5LLWryR9uwNAoooQAN0tPWF3CARBtFUIAFBoRQqA7pYcf1vrwm//vCoEACisIgZAd/3H3da6YNXmejsEtg2VG0cPDOz61aTvDwCYFUUOgPEQOP5fOiEQhrVqpVI/QQgAkHsCYO8QeEwIAJB/AmAfIXCcEAAg5wTAy4fAuRdtrgVh1AmBDRtab0z6/gKAaSEAXnl9e0Jg9zsC0UlCAIDMEwBTC4HzLtxcD4NaVC7XTt+4ceuvJ33/AcB+EQBCAIACEgAHEAJfvnU8BIKg9lUhAEBmCIDpD4FSadtbkr5fAeBlCYDp2+I4BC4SAgBkgACY/h32pVta51zwSC0Mo1ocAoOD29+a9P0MAJMIgBkOgfM3NcthrRaUhQAAKSIAZjEEyrVGuVz/phAAIHECIIEQCGvNOASuvXbH25K+/wEoKAEw+1s0MQSC+gohAMCsEwDJhsC3zts0JgQAmHUCIPktOuaW1jfPfbgZhrV6HAIDAzvenvR1AUDOCYD0LA6Bs89rh0BQa4Tl2oXDw7XfSPr6ACCnBED6tuiYHwgBAGaWAEjvxkMgjJpxCFxbqr8n6esFgJwQAOlfHAIrzn14TAgAMG0EQHY2HgLxRwNh9aJyuf7epK8fADJKAGRvXzj65taZKx8UAgDsPwGQ3X3+6JvaIfDQzjCImnEIDA013pf09QRARgiA7K8TAt966JkwjHa2t0YIAPCKBEB+tncIXHNN4/1JX18ApJQAyN8OPUoIAPAKBEB+NzkEakIAgBcIgPwv/mjg62c/8Mzuw4K1NeVy4wNJX3cAJEwAFGfjIRDWmkEQrRUCAAUmAIq3ySFQCyqVsY8mfR0CMMsEQHEXnxFYvuKBZ4UAQAEJAHshBKJOCAwPj30s6esSgBkmAKw7IQBQIALA9t4hS29onX7WveMhcE248+NJX6cATDMBYC+1Q4+6sbV8xf3PB0E0FgxE6wcGdv1q0tcrANNEANgrLQ6By9c9XR8u1/970tcrANNEAFgvW7X6ie1D5fr/Svp6BWCaCADrZQIAIGcEgPUyAQCQMwLAepkAAMgZAWC9TAAA5IwAsF4mAAByRgBYLxMAADkjAKyXCQCAnBEA1ssEAEDOCADrZQIAIGcEgPUyAQCQMwLAepkAAMgZAWC9TAAA5IwAsF4mAAByRgBYL0syACqV5n8cqkT/UCpte0sS/3+AXBIA1suSDID2Nfq5UmnHc+UwqpeD2ulCAGAaCADrZUkHwD9e+Ght0ZduaX3rvE1j5bDWLAf1Fddeu+NtSXw9ALkgAKyXpSEAul9LHALfPPfhZhjW6nEIDAzseHsSXxdApgkA62VpCoDuFh2zJwSCWiMIopVCAGAKBID1sjQGQHdxCJx9XvyOQNQMy7ULh4drv5HE1wmQKQLAelmaA6C7Rcf8QAgA9EoAWC/LQgB0Nx4CQa0Rh8C1pfp7kvi6AVJNAFgvy1IAdBeHwIpzHx4TAgD7IACsl2UxALqbFAJh9aJyuf7eJL4PgFQRANbLshwA3X3h6JtbZ658UAgAxASA9bI8BEB3nz/6pnYIPLQz/geF4hAYGmq8L4nvCyBRAsB6WZ4CoLtOCHzroWfCMNrZ3hohABSKALBelscA6G7vELjmmsb7k/g+gfw6ePGNb5vbP7rsoINar0r6axknAKyX5TkAujv0KCEATK+5/df/8dy+kYvn9o3W48cZAWCZWxECoLs4BL5+9gPPhEEU/76BNeVy4wNJfN9ANh1xxMY3zF8yOqf9pP+9vR9fBIBlbkUKgO7ijwY6IRDWmkEQrRUCwMtZcNg/v39u/8ip7Vf8W17qcUUAWOZWxADobmIItFcKw7GPJHE7AOlzyimtV89fMvKZ9qv90ry+0ede6fFEAFjmVuQA6G7yOwK1oFIZ+2gStweQvDmLvveW9uPCovYr/p9O5XFEAFjmJgBeWHxGYPmKB56Nf+mQEIBiOXjx9/+kc6ivf6SxP48fAsAyNwHw4u0dAsPDYx9L4vYBZtbLHeqb6gSAZW4C4KV36NIbhQDk0MGLb/xI+9X+Ge2f86em6/FCAFjmJgBeeYcsvaF1+ln3jofANeHOjydxewH7b9Khvv7R56f7cUIAWOYmAHrf5zohcN9zYVAd231GYOdvJ3G7Ab1buHTkrXP7R5fO6x95aCYfHwSAZW4CYOobD4GwNlYKo2uEAKTPgR7qm+oEgGVuAmD/1wmBM+99PgiiTggMDVV/J4nbEdite6hvXt/oTbP9eCAALHMTAAe+zx15oxCABC044rqPTvehvqlOAFjmJgCmb3uHwIYw+t0kblcogpk+1DfVCQDL3ATA9C8OgdPO+Fk7BKrNUhB9RwjA9Oke6mu/4n846Z/1iRMAlrkJgJnbxBAIg+i69vf76SRuZ8iD7qG+eX0jzaR/tvc1AWCZmwCY+XVDYGBghxCAKRj/l/r6R25O+uf4lSYALHMTALO3iSEQlKrfHxqq/1EStzukXftV/sfiQ31z+0a3Jv1z2+sEgGVuAmD290IIVBtxCGwo1/84idsf0iRth/qmOgFgmZsASG4Lj7zhhRAIhADFNO/wm9/d/nk4bm7/6L8l/TN5IBMAlrkJgOS34IgbWicvv2c8BAYHG3+SxP0Bsynth/qmOgFgmZsASM92h8DduzpnBILo+0NDjT9N4n6BmbJw4civzFs8uqB9vf9r0j9v0z0BYJmbAEjfFiy5vhMCVw9Um2GpdrMQIOuyeKhvqhMAlrkJgPRu7xDYUG78WRL3E+yP7qG+eX2j18zrH8n9c5EAsMxNAKR/3RDY89HADyqVxr9L4v6CXvzdkf/8G+3r9rj2NiX9szObS1sAnHjO+Y/smt9+8Ej6hrH0TgBkZ/EZgVPP+Okv2yHQKJWqI94RIE3ydqhvqktVAGzY0PxgqRTdcvXV22tfWX73L4WA7WsCIHuLQ+Afvn7Prquv7oTA9d4RICl5PtQ31aUqALoGB5t/GZSqo+1XDfXTvvGzX8YPHknfUJaeCYDsLo76E796166rrtreKA1Etw6XG3+exP1I8fz9kaMf7/z63b6Rp5P+OUjLUhkAXZVK8y8mhsBCIWD9AiAPGw+Bq7fXgzD618HB2n9K4v4k34p2qG+qS3UAdMWvEkpCwPZMAORncQic9LWfdEKgFFTvHBqq/eck7lfypaiH+qa6TARAV/wbyQZK2/9JCBR7AiB/64bAlXtCYLhc+y9J3L9kW+dQX//o2rn9I88mfU1nYZkKgK5yuf6HpSD6ztUD1dppZwiBok0A5Hd7h8DgYO2/JnE/kx1z+kbe3L52Fs3tG70z6es3a8tkAHR1Q6C9xlfPulcIFGQCoBg7/rQf77rqqm1CgH2a33/Db3cO9fWPbEv6Ws3qMh0AXcPDtT8oBTu+EwTVphDI/wRAsXb8aXe1rrxqW2N3CDQ+m8T9TjrMmVN6zbzFo59tv9r/nkN9B75cBEBX+1XC7wuB/E8AFHNxCKy/crsQKKCFfSPvmRf/+t2+kUeSvg7ztFwFQFcnBEoTQuBIIZCnCYBib/c7At0zAkIgzxzqm9nlMgC6yuXapwYGqpX4jMDpZ937vBDIxwSAxRsPgVL1x0IgPw499KZfmxcf6usf+XHS11jel+sA6IpDoP0gUQ5KcQjc95wQyPYEgE1cNwSCoHqXEMiuuYdf9zsO9c3uChEAXcPDtd/rhsDXVtz//CFLhUAWJwBsXzv21Dtb69Zvi0qlHT8RAtngUF+yK1QAdE0MgeVnP/CcEMjWBIC93OIQuGLd1vpAUL0nDoFWq4APcinXPdTXftJ/NOnrpcgrZAB0DQ1Fn5wcAjcmfofYK08AWC+LQ2DtuqdrQRA9MFxpzhECyXOoL10rdAB0VSrRJ0oDQiArEwDW6+YvmRQCDwqB2dc91Devb+SupK8HmzwBMEEYjn1kYKC6Pv7rg0IgvRMANtWNh8AVT9dKpeghITDzOof6+kfOad/+fl5SOgGwD3EItF8trG2vsXzF/UIgZRMAtr/rhsDlV2wVAjNgzil3v759G89xqC8bEwAvY3h47MNxCIRhNHbmygeFQEomAGw6tuzkH+0JgeomIXBg5n7x+vfOiw/19Y1uTvp+td4nAHrwQgjUOiFw6FFCIMkJAJvOTQyBoaH6glNOab06iWsri+b3jfx1+9V+yaG+bE4ATMHg4NiHuiHwjZUPPSsEkpkAsJlYNwTaP+NC4GXMPeLWX5/X+Zf6Rn+S9H1mBzYBsB/iEAjD6HIhkMwEgM3kdofAU+MhUCq1XpPEtZY2f79k5Hcd6svXBMABCMPmb5XC6qpyWGt2QsAZgVmZALDZWBwCa9a2Q2AgeqSoITD5UF/y94lN7wTANOiEQGnHqjCoNc5c+dBOITCzEwA2m9vz0UAUlKJHixICf9d/0/vmOdSX+wmAabRhQ/OD3RBYce7Dz3zh6JsTv4PzOAFgSWzpSXe0Vq/ZUo1DoFKpL8xjCHQP9bWf+J9L+va2mZ8AmAFCYGYnACzJxSFw6WVbakFQfSwPITDhUN/dSd+2NrsTADNocLD5m+0HiYuFwPROAFgaFofAJWu21MIweqJcbhw2MtJ6bRLX5P6av3j0E/GhvvYr/nrSt6UlMwEwC8ZDIIyanRBYJgQOZALA0rQshYBDfTZxAmAWtR8cPtAOgUvK5VrzG996eOfnj74p8QsgixMAlsYt+0r80cCT9aBUfbxcri9I078sGB/qa7/aP7W9J5O+nSw9EwAJuOaaxvvbIfDtOATOOsdHA1OdALA0b9nJd7TWX7mtMTjY/NskrtEXtF41f8nIZxzqs5eaAEhQOwDeHZbqZ1fK9ebK8zY980UfDfQ0AWBp38rzNzWGKo3Dk7hGY/P6Rw6Z1zdyf9K3g6V7AiAFJoXA+Y/sFAIvPwFgaV/SATC3f+TmpG8DS/8EQIoMDETvmhQCx/wg8QskjRMAlvYJAMvCBEAKTQ6BTUJgrwkAS/sEgGVhAiDF4hAIguryMKzVOyGwTAjEEwCW9gkAy8IEQAZs2BC9sxsC55y/qVn0EBAAlvYJAMvCBECGTAyBcy/YPHbYl25J/AJKYgLA0j4BYFmYAMigSqX6jnYEfK1crtXOvXBz87Av3Zr4hTSbEwCW9gkAy8IEQIbtHQKHH1uMEBAAlvYJAMvCBEAOFC0EBIClfQLAsjABkCMbN2799aC84+RuCCzO6UcDAsDSPgFgWZgAyKGhoad+rVKJTmqHQJTHEBAAlvYJAMvCBECOjYdAWKtfsOqx3Hw0IAAs7RMAloUJgAKYGALn5yAEBIClfQLAsjABUCBxCJQH6ye2Q6AWh8DiL2czBASApX0CwLIwAVBApVLrzRNDoC9j7wgIAEv7BIBlYQKgwOIQqFSay9ohsCNLISAALO0TAJaFCQDGQyAMa9svWLW5nvaPBgSApX0CwLIwAcC4735315viEAiCaPuqSx5vLDn+tsQv0H1NAFjaJwAsCxMAvEgnBMJaakNAAFjaJwAsCxMAvKS9QqB+REpCQABY2icALAsTALyibgiEQW1bGkJAAFjaJwAsCxMA9GzDhtYbJ4XACT9M5KIVAJb2CQDLwgQAU7Zx4643hGG0OA6BixMIAQFgaZ8AsCxMALDf4hAYHGwcFoa1py9Z/URjtkJAAFjaJwAsCxMAHLBSqfX6iSFw5AyHgACwtE8AWBYmAJg2E0Jg60yGgACwtE8AWBYmAJh2k0Pgyfp0h4AAsLRPAFgWJgCYMXEIDA/XF4Zh9EQnBE68fVouWgFgaZ8AsCxMADDjxkMgqP7i0suejA40BASApX0CwLIwAcCsufji1uu6IbD68i31o79yx35dtALA0j4BYFmYAGDWdUMgCKqPxyGw7OSphYAAsLRPAFgWJgBITBwClcruELhs7VO1ZT2+IyAALO0TAJaFCQASNx4CYfXnvYSAALC0TwBYFiYASI1uCIRh9FgnBE7+0T4vWgFgaZ8AsCxMAJA6p5zSenUlaP7N7hDY8qIQEACW9gkAy8IEAKkVh8BwpTknDGqPxiFw7Kl3di5aAWBpnwCwLEwAkHojI63XDg3VF4RBtPmyy5+M1q3f1hQAluYJAMvCBACZUSq1XhOG9fnloLap/UT835L4GgSA9TIBYFmYACBzWq3Wq+Il8f8WANbLBIBlYQIApkAAWC8TAJaFCQCYAgFgvUwAWBYmAGAKBID1MgFgWZgAgCkQANbLBIBlYQIApkAAWC8TAJaFCQCYAgFgvUwAWBYmAGAKBID1MgFgWZgAgCkQANbLBIBlYQIApkAAWC8TAJaFCQCYAgFgvUwAWBYmAGAKBID1MgFgWZgAgCkQANbLBIBlYQIApkAAWC8TAJaFCQCYgk4AXLRZANjLTgBYFiYAYArK5dqnwrAW/eMFjzYOP/bWxH+ALZ0TAJaFCQCYolKp9eZKpbmsHNZ2nL/qsWafELC9JgAsCxMAsJ+6IRCGte0XrNpcFwLWnQCwLEwAwAGaGAKrLnm8seT42xL/wbZkJwAsCxMAME2++91db6qEtWVBEAmBgk8AWBYmAGCa7RUCdSFQvAkAy8IEAMyQbgiEQW1bHAJHCIHCTABYFiYAYIZt2NB6oxAo1gSAZWECAGbJxo273hCG0eLxEDjhh4k/ANjMTABYFiYAYJbFITA42DgsDGtbLxYCuZwAsCxMAEBCSqXW6/eEwNOXrH6icaQQyM0EgGVhAgASJgTyNwFgWZgAgJSYEAJbL1n9ZF0IZHcCwFK/vpGfCwBIGSGQ/QkAS/Fun7d4dMGiRbe/LqnrE3gFcQgMD9cXBkH1iU4InHh70g8c1uMEgKVp7eshmts3cvHB/aO/n9Q1CeyHiy9uvS4OgTCo/uLSy56Mlp4gBNI+AWAp2b3tHbdw6chbk7oWgWnQDYEgqD6++vIt9WUn35H0g4u9xASAJba+kWfm9o2W5i8Z+YzP+CFn4hCoVHaHwGVrn6oJgfRNANjsb+TxuX0jZ/zt4ut/M6nrDpgl4yEQVn/eCYGvCIG0TADYrK1v9Kb5S0bnONQHBfSiEDj5R8k/KBV8AsBmdH0j1fhQ37zDRz6V1DUGpMgpp7ReXQmafxOG0WOXrd0iBBKcALAZWd/oz+b2jy6d0zfy5qSuLSDF4hAYrjTnhEHt0TgEjj31zuQfuAo2AWDTtkmH+gB6IASSmwCwA9/uQ31zjxj5QFLXEZBx3RAIwujRyy4XArMxAWD7vT2H+v7jKSOvTer6AXJmYgisEQIzOgFgU9qeQ30L+q77vaSuGaAAxj8aCKNH1qx9SgjMwASA9bL2/fTT+FDfvGO++6akrhWggOIQGBxsfDYoRQ9efsXWSAhM3wSAveQc6gPSohsCpVJ0/5p1T1XjEJi/JAUPlBmeALAXrW/k5+375dR5h9/87qSuC4B9arVar+qEQBDdt27907XjT7tLCOznBIDt3siu9qv97znUB2SCEDjwCYDCb0d8qG/uETd8MqlrAJhm8dvlSX8Ns2VPCPzfIIgeXLvuaR8NTGECoKDrG7mj/ecih/oghyqV2rwwrN03NNT4P/ETZNJfz2yIv8/4+w2D6IG1V2ytfVkIvOIEQHE2t290p0N9UACDg/XPrVn71M7L20+EpVL13+JXyEV5V2DPOwL/Oz4seMW6bTu+fOqPhcBLTADkf3P7Rx+LD/UdcsQN70rqfgZmURwA/3jho7X4ASD+ZTvxX58LBqJHhobqC0ql1muS/vpmy9BQ7TNBUP3puvXbopO+9pPEH4zTNgGQz83tG/mlQ31QUBMDoLs4BOJ/UKeoIVBqh8D6K3eHwPwl1yf+IJ2GCYDcrXOob/7i0U8kdZ8CCdtXAHS39KQ7WqvXbKkGpejRSqW+sGghEATVe9ZfuV0I9AuAHO329hYtWnT7G5O6L4GUeLkA6C4OgUsv21JrPyE+VsQQCEvVu4seAgIgu3OoD9inXgKgu24IhGH0RLncOGxkpFWYzww7Hw2Udtx9ZUFDQABkcSMPtf887u8XjbwzqfsNSLGpBEB3cQhcsqaYIVCpNP+6VIru2BMCu4oSAgIgG5t4qG/OnFJh3qkD9sP+BEB3u98ReCL+aODJgobAbVddtaNahBAQAOle+0l/e/s2OufgxTd+JKn7CMiYAwmA7jrvCKwubggMBNG/XH319vrJy+/ZtSCnISAAUjuH+oD9Mx0B0F0cAqsufTwKw+oWIZCvEBAA6Vn3UN/BS77/V0ndH0AOTGcAdHfUie0QWP14FATVpwYHixcCpVJ069VX78hVCAiA5Nd+0n9wnkN9wHSZiQDobmIIDJVrR2/cuOsNSX+/syUOgfb3PZqXEBAAST3pO9QHzJCZDIDulp50ezsEfhGFYa24ITCwo3by8rszGwICYLaf+Hcf6pu35PoPJ3WbAzk3GwHQ3ZEnTg6Bkctav5L09z9bhsPmXwWl3SFw6hk/3bXgiBsSf5IRAKlc51Df/zv6B7+a1G0NFMRsBkB3S0/YHQJBEG0tWggMDjb/Mg6BgYEd9dO+8bNfZiUEBMDMbfxf6usf/Yukbl+ggJIIgO6WHH9b68JvP1YVAukPAQEwA0/8/aMPtP88bn7/996R1O0KFFiSAdBd/3G3tS5YtbneDoGnh8qNQoVApdL8i9KEEFiY0hAQANP0pO9QH5AWaQiAF4VAGFUrlfoJAwO7CvM56HC58edpDgEBcIBP/P0jT7af/M9YeNjIh5K6DQEmSVMAjIfA8f/SDoHH6mFYK1wItO+PTw+Utv9T2kJAAOz3HOoD0imNASAEDjqoXK7/YSmIvjMwUK2ddkbyISAAet/c/tGx9tYe3Dfy6aRuL4BXlOYAGA+B4yaHwIYNrcL8u+fdEAiCavOrZ92bWAgIgB7WN3J/+8/j2q/2357U7QTQsywEQHd97RA496LNte4ZgSKFwPBw7Q9KwY7EQkAA7HvdQ33zFo9+9qCDWq9K6vYBmLIsBcDEEDjvws31MKhFlUp0UpFCYHCw9vtJhIAA2Gt9o0/Eh/oO7rvut5K6TQAOSBYDYF8hUC7XTt+4ceuvJ317zpZOCJQmhMCRMxsCAmB8nUN9CxeOFOavqgI5leUA2FcIBEHtq0UKgXb4fGpgoFopBdXG6Wfd99xMhUCRA6B7qG/ekuv+MKnvH2Da5SEAxkPgy7dOCoFSadtbkr59Z0scAqVStRyUosbXVtz//CFLpzcEChkADvUBeZanABACncOCvzcTIVCUAHCoDyiMPAZAd4d96ZbWORc8UgvDqFbkEFh+9gPPHWgI5D4AHOoDiibPATApBM7f1CyHtVpQrn11cHD7W5O+3WfL0FD0yckhcKMAmLzb26/2FyxadPvrkvreABJRhAB4UQiUa41yuf7NIoVApRJ9ojSw/yGQpwBo/7ei9qv9ixcsvuEPkvp+ABJXpAB4UQiEtWbRQiAMxz4yMFBdH//1wamEQB4CoP2kf1/7z+MOXnzj25L6PgBSo4gB0N2ivULg2mt3FOaJIQ6BIIjWttdYvuL+VwyBDAfA8/P6Rq+Zv2TkMw71AUxQ5ACYGALfOm/TWCcEgvqKIoXA8PDYh+MQCMPa2JkrH3zJEMhaAMztH/1FfKhv/pE3fjCprxkg1QTAhBA45pbWN899uNl+MmzEITAwsKMwf/977xA49KjJIZChAHCoD6AXAuDlQiBqtp8UVxYpBAYHxz7UDYFvrHzo2W4IpDkAHOoD2A8C4GVCIP5o4PxHxuIQKIXRWZVK9R1J31+zpVIZ+2hYiq4Mg6i5fMUDz5530eaxFAbAvfMc6gPYPwKghxA4ZvcZgfijgfaTYqFCID4s2I6fK4cG68+nJAAc6gOYDgJgKiHwg9bK88bfETh7w4bonUnff7MlPiOwYUMzsQN1c/tGS3P7R/9h7hevf29SXwNArgiA/QuBFec+PBYGtUZYrl14ban+nqTvRwCYEgEwDSEQRs0wrF5ULte9OgUgGwTAge8LR9/cOnPlg0Ig/NTfAAAI4UlEQVQAgOwQANO3zx99U+vMbz30THxyPg6BoaHG+5K+fwFgnwTADIZAGO1sb40QACB1BMDM7dCjJofANdc03p/0/Q0AHQJgtkOgJgQASJ4AmN0Q+PrZD+w5I1BbUy43PpD0/Q9AQQmA2V98RqATAmEt/l0Da4UAALNOAKQjBNorxf/sbtLXAwAFIQCSXxwC8S/c2f2OQC2IfxFP0tcFADknANKz+IzA7hCIhAAAM0sApG97h8Dw8NjHkr5OAMgZAZDeHbr0xkkhcE248+NJXy8A5IQASP8OWXpD6/Sz7hUCAEwfAZCdfa4TAvc9FwbVsd1nBHb+dtLXDwAZJQCyt/EQCGtjpTC6RggAMGUCILvrhMCZ9z4fBFEnBIaGqr+T9PUEQEYIgOzvc0feKAQAmBoBkJ/FIXDaGT97vlSqNuIQ2BBGv5v09QVASgmA/K0bAkFQbZaC6DtCAIAXEQD53cQQCIPouvZ9/emkrzcAUkIA5H/dEBgY2NEJgaGh+h8lfd0BkDABUJxNDIGgVP2+EAAoMAFQvL0QAtVGHAIbyvU/Tvo6BGCWCYDibuGRN7wQAkH1+4ODjT9J+noEYJYIAFtwxA2tk5ffsycEIiEAUAQCwLrbHQJ37+qcEWiHwNBQ40+Tvj4BmCECwPbegiXXd0Lg6oFqMyzVbt5QbvxZ0tcpANNMANhLbeERN7ROOeOnnRAYGKheNzAQvSvp6xWAaSIA7JUWh8BFlz6+c6hS/2LS1ysA00QAWC9bef6mxlClcXjS1ysA00QAWC8TAAA5IwCslwkAgJwRANbLBABAzggA62UCACBnBID1MgEAkDMCwHqZAADIGQFgvUwAAOSMALBeJgAAckYAWC8TAAA5IwCslwkAgJwRANbLBABAzggA62UCACBnBID1MgEAkDMCwHqZAADIGQFgvUwAAOSMALBeJgAAckYAWC8TAAA5IwCslwkAgJwRANbLBABAzggA62UCACBnBID1MgEAkDMCwHqZAADIGQFgvUwAAOSMALBeJgAAckYAWC8TAAA5IwCslwkAgJwRANbLBABAzggA62UCACBnBID1MgEAkDMCwHqZAADIGQFgvUwAAOSMALBeJgAAckYAWC8TAAA5IwCslwkAgJwRANbLBABAzggA62UCACBnBID1MgEAkDMCwHqZAADIGQFgvUwAAOSMALBeJgAAckYAWC8TAAA5IwCslwkAgJwRANbLBABAzggA62UCACBnBID1MgEAkDMCwHqZAADIGQFgvUwAAOSMALBeJgAAckYAWC8TAAA5IwCslwkAgJwRANbLBABAzggA62UCACBn2gEw/5LVTzY/d+SNiT/JWHonAAByZnBw+1uDIBoOSlHj9LPufU4I2L4mAAByamgo+mRpoFqOQ2D52Q88d8hSIWAvTAAA5FwYjn1kYKC6XgjYxAkAgIKIQyAIorXtNZavuF8IFHwCAKBghofHPhyHQBjWxs5c+aAQKOgEAEBBCYFiTwAAFNzg4NiHuiHwjZUPPXvoUUKgCBMAAHTEIRCG0eVCoBgTAABMEobN3yqF1VVhEDU7IeCjgVxOAACwT+MhEEbNM1c+tFMI5GsCAICX1QmB0o5OCKw49+FnvnD0zYk/eZkAAGCWbNjQ/GAnBIJaQwhkfwIAgCmJQyAIqhcLgWxPAACwXwYHm78pBLI7AQDAAZkYAt889992fmGZEMjCBAAA06Jcrr07CKKVYSgEsjABAMC0ikMgLNXPrpTrzZXnbXrmi0IglRMAAMyISSFw/iM7hUC6JgAAmFEDA9G7JoXAMT9I/MnPBAAAs2RyCGwSAgIAgCKJQyAIqsvDsFbvhMAyISAAACiMDRuid3ZD4JzzNzWFgAAAoEAmhsC5F2weO+xLtyT+5FiECQAAUiEOgXYEfK0TAhdubh72pVsTf5LM8wQAAKlSqVTfEYdAuVyrCQEBAEDB7B0Chx8rBAQAAIUxMLDj7RNDYLF3BAQAAMUxNPTUr4Vh9BUhIAAAKKA4BCqV6KR2CEQ+GhAAABTMeAiEtfr5qx4TAgIAgCKJQ6A8WD+xHQK1OAQWf1kICAAACqNUar1ZCAgAAAoqDoFKpbmsHQI74hDo89GAAACgOLohEIa17Res2lz3joAAAKBAJobAqksebyw5/rbEn3zTMAEAQCF897u73lQJa8uCIBICAgCAotkrBOpFDQEBAEAhdUMgDGrb4hA4omAhIAAAKLQNG1pvnBQCJ/ww8SdnAQAAs2Tjxl1vCMNocRwCFxcgBAQAAEwQh8DgYOOwMKxtzXMICAAA2IdSqfX6PSHw9CWrn2gcmbMQEAAA8DImhMDWPIWAAACAHkwOgSfrWQ8BAQAAUxCHwPBwfWEYRk90QuDE2xN/MhcAADBLxkMgqP7i0suejLIWAgIAAA7AxRe3XtcNgdWXb6kf/ZU7En9yFwAAMEu6IRAE1cfjEFh2crpDQAAAwDSKQ6BS2R0Cl619qpbWEBAAADADxkMgrP68EwIp+2hAAADADOqGQBhGj+1+R+BHiT/5CwAAmCWnnNJ6dSVo/s3uENiSeAgIAACYRXEIDFeac8Kg9mgcAseeeqcAAICiSDoEBAAAJKgbAkEYPXrZ5bMXAgIAAFJgYgismYUQEAAAkCJxCAwONj4blKIH16x9asZCQAAAQAqNh0AQ3b9m3VPVOATmLxEAAFAI3RAolaL7r1j3dO340+6alhAQAACQAa1W61WdEAii+9atP/AQEAAAkCHTFQICAAAyqBsCQRDde8W6bVMOAQEAABk2/o5AqfqzqYSAAACAnBgaqn0mDoF167dFrxQCAgAAcqYTAkH1p+uv3Bad9LWfCAAAKJI4BIKgek83BOYvuV4AAEBRvBAC28dDQAAAQEEMDtb/Z/cdgTVrtzwrAACgQCqV+v8Iw+jH7SD4fNJfCwAAAAAAAAAAAAAAAAAAAAAAAAAAAAAAAAAAAAAAAAAAAAAAAAAAAAAAAAAAAAAAAAAAAAAAAAAAAAAAAAAAAAAAAAAAAAAAAAAAAAAAAADA3v4/qUbsv7ZhEXgAAAAASUVORK5CYII=;" vertex="1" parent="96xqmQHdzvCccrLlqiye-75">
          <mxGeometry x="25.259259259259256" y="25.040540540540537" width="23.56756756756756" height="23.56756756756756" as="geometry" />
        </mxCell>
        <mxCell id="96xqmQHdzvCccrLlqiye-86" value="" style="group" vertex="1" connectable="0" parent="1">
          <mxGeometry x="236" y="60" width="235" height="146" as="geometry" />
        </mxCell>
        <mxCell id="96xqmQHdzvCccrLlqiye-80" value="" style="rounded=0;whiteSpace=wrap;html=1;" vertex="1" parent="96xqmQHdzvCccrLlqiye-86">
          <mxGeometry y="11" width="235" height="135" as="geometry" />
        </mxCell>
        <mxCell id="96xqmQHdzvCccrLlqiye-77" value="" style="rounded=0;whiteSpace=wrap;html=1;" vertex="1" parent="96xqmQHdzvCccrLlqiye-86">
          <mxGeometry x="18.146718146718147" y="35" width="197.7992277992278" height="93" as="geometry" />
        </mxCell>
        <mxCell id="96xqmQHdzvCccrLlqiye-78" value="" style="rounded=0;whiteSpace=wrap;html=1;" vertex="1" parent="96xqmQHdzvCccrLlqiye-86">
          <mxGeometry x="47.18146718146718" y="55" width="80.75289575289575" height="60" as="geometry" />
        </mxCell>
        <mxCell id="96xqmQHdzvCccrLlqiye-84" value="" style="rounded=0;whiteSpace=wrap;html=1;strokeColor=none;" vertex="1" parent="96xqmQHdzvCccrLlqiye-86">
          <mxGeometry x="22.22972972972973" y="26" width="58.97683397683397" height="19" as="geometry" />
        </mxCell>
        <mxCell id="96xqmQHdzvCccrLlqiye-79" value="Project" style="text;html=1;align=center;verticalAlign=middle;resizable=0;points=[];autosize=1;strokeColor=none;fillColor=none;" vertex="1" parent="96xqmQHdzvCccrLlqiye-86">
          <mxGeometry x="26.766409266409266" y="23.5" width="55" height="26" as="geometry" />
        </mxCell>
        <mxCell id="96xqmQHdzvCccrLlqiye-83" value="" style="rounded=0;whiteSpace=wrap;html=1;strokeColor=none;" vertex="1" parent="96xqmQHdzvCccrLlqiye-86">
          <mxGeometry x="4.9903474903474905" width="76.21621621621621" height="21" as="geometry" />
        </mxCell>
        <mxCell id="96xqmQHdzvCccrLlqiye-81" value="Organization" style="text;html=1;align=center;verticalAlign=middle;resizable=0;points=[];autosize=1;strokeColor=none;fillColor=none;" vertex="1" parent="96xqmQHdzvCccrLlqiye-86">
          <mxGeometry x="4.083011583011583" width="86" height="26" as="geometry" />
        </mxCell>
        <mxCell id="96xqmQHdzvCccrLlqiye-85" value="" style="rounded=0;whiteSpace=wrap;html=1;strokeColor=none;" vertex="1" parent="96xqmQHdzvCccrLlqiye-86">
          <mxGeometry x="50.81081081081081" y="45" width="66.23552123552123" height="19" as="geometry" />
        </mxCell>
        <mxCell id="96xqmQHdzvCccrLlqiye-82" value="Workspace" style="text;html=1;align=center;verticalAlign=middle;resizable=0;points=[];autosize=1;strokeColor=none;fillColor=none;" vertex="1" parent="96xqmQHdzvCccrLlqiye-86">
          <mxGeometry x="48.996138996138995" y="41.5" width="78" height="26" as="geometry" />
        </mxCell>
        <mxCell id="96xqmQHdzvCccrLlqiye-87" value="Resources" style="text;html=1;align=center;verticalAlign=middle;resizable=0;points=[];autosize=1;strokeColor=none;fillColor=none;" vertex="1" parent="96xqmQHdzvCccrLlqiye-86">
          <mxGeometry x="50.809999999999945" y="67.5" width="75" height="26" as="geometry" />
        </mxCell>
        <mxCell id="96xqmQHdzvCccrLlqiye-88" value="Outputs" style="text;html=1;align=center;verticalAlign=middle;resizable=0;points=[];autosize=1;strokeColor=none;fillColor=none;" vertex="1" parent="96xqmQHdzvCccrLlqiye-86">
          <mxGeometry x="57.05000000000001" y="86" width="60" height="26" as="geometry" />
        </mxCell>
        <mxCell id="96xqmQHdzvCccrLlqiye-94" value="" style="rounded=0;whiteSpace=wrap;html=1;" vertex="1" parent="96xqmQHdzvCccrLlqiye-86">
          <mxGeometry x="134" y="62.75" width="71" height="35.5" as="geometry" />
        </mxCell>
        <mxCell id="96xqmQHdzvCccrLlqiye-95" value="Env Vars" style="text;html=1;align=center;verticalAlign=middle;resizable=0;points=[];autosize=1;strokeColor=none;fillColor=none;" vertex="1" parent="96xqmQHdzvCccrLlqiye-86">
          <mxGeometry x="139" y="68.5" width="66" height="26" as="geometry" />
        </mxCell>
        <mxCell id="96xqmQHdzvCccrLlqiye-89" value="" style="rounded=0;whiteSpace=wrap;html=1;" vertex="1" parent="1">
          <mxGeometry x="90" y="143" width="120" height="60" as="geometry" />
        </mxCell>
        <mxCell id="96xqmQHdzvCccrLlqiye-92" style="edgeStyle=orthogonalEdgeStyle;rounded=0;orthogonalLoop=1;jettySize=auto;html=1;exitX=0;exitY=0.5;exitDx=0;exitDy=0;strokeWidth=2;" edge="1" parent="1" source="96xqmQHdzvCccrLlqiye-89" target="96xqmQHdzvCccrLlqiye-60">
          <mxGeometry relative="1" as="geometry">
            <Array as="points">
              <mxPoint x="39" y="173" />
              <mxPoint x="39" y="-10" />
              <mxPoint x="623" y="-10" />
            </Array>
          </mxGeometry>
        </mxCell>
        <mxCell id="96xqmQHdzvCccrLlqiye-93" value="samba07-tf-8i06lymozkzx3g83" style="edgeLabel;html=1;align=center;verticalAlign=middle;resizable=0;points=[];fontSize=12;" vertex="1" connectable="0" parent="96xqmQHdzvCccrLlqiye-92">
          <mxGeometry x="0.1904" y="-1" relative="1" as="geometry">
            <mxPoint x="-3" y="-12" as="offset" />
          </mxGeometry>
        </mxCell>
        <mxCell id="96xqmQHdzvCccrLlqiye-90" value="random_string&lt;br&gt;&lt;i&gt;bucket_name&lt;/i&gt;" style="text;html=1;align=center;verticalAlign=middle;resizable=0;points=[];autosize=1;strokeColor=none;fillColor=none;" vertex="1" parent="1">
          <mxGeometry x="102.5" y="152.5" width="95" height="41" as="geometry" />
        </mxCell>
        <mxCell id="96xqmQHdzvCccrLlqiye-96" style="edgeStyle=orthogonalEdgeStyle;rounded=0;orthogonalLoop=1;jettySize=auto;html=1;exitX=0.5;exitY=0;exitDx=0;exitDy=0;strokeWidth=2;" edge="1" parent="1" source="96xqmQHdzvCccrLlqiye-9">
          <mxGeometry relative="1" as="geometry">
            <mxPoint x="87" y="50" as="targetPoint" />
            <Array as="points">
              <mxPoint x="300" y="245" />
              <mxPoint x="17" y="245" />
              <mxPoint x="17" y="50" />
            </Array>
          </mxGeometry>
        </mxCell>
        <mxCell id="96xqmQHdzvCccrLlqiye-97" value="Plan, Apply, Destroy" style="text;html=1;align=center;verticalAlign=middle;resizable=0;points=[];autosize=1;strokeColor=none;fillColor=none;" vertex="1" parent="1">
          <mxGeometry x="108" y="240" width="125" height="26" as="geometry" />
        </mxCell>
      </root>
    </mxGraphModel>
  </diagram>
</mxfile>
